<?xml version="1.0" encoding="UTF-8" standalone="no"?>
<!-- Generator: Adobe Illustrator 26.0.3, SVG Export Plug-In . SVG Version: 6.00 Build 0)  -->

<svg
   version="1.0"
   id="katman_1"
   x="0px"
   y="0px"
   viewBox="0 0 450 300"
   xml:space="preserve"
   sodipodi:docname="ca.svg"
   width="450"
   height="300"
   inkscape:version="1.3.2 (091e20e, 2023-11-25, custom)"
   xmlns:inkscape="http://www.inkscape.org/namespaces/inkscape"
   xmlns:sodipodi="http://sodipodi.sourceforge.net/DTD/sodipodi-0.dtd"
   xmlns="http://www.w3.org/2000/svg"
   xmlns:svg="http://www.w3.org/2000/svg"><defs
   id="defs9"><style
     id="style1">.cls-1{fill:#003d8d;}.cls-2{fill:#fff;}.cls-3{fill:#f60;}</style><clipPath
     id="clipPath20"
     clipPathUnits="userSpaceOnUse"><path
       id="path18"
       d="M 17.008,17.008 H 549.92 V 548.274 H 17.008 Z" /></clipPath><clipPath
     id="clipPath32"
     clipPathUnits="userSpaceOnUse"><path
       id="path30"
       d="M 0,0 H 566.929 V 793.701 H 0 Z" /></clipPath><clipPath
     id="clipPath114"
     clipPathUnits="userSpaceOnUse"><path
       id="path112"
       d="m 434.875,726.409 h 124.393 v 62.898 H 434.875 Z" /></clipPath><inkscape:path-effect
     effect="fill_between_many"
     method="originald"
     linkedpaths="#path17,0,1"
     id="path-effect17"
     is_visible="true"
     lpeversion="0"
     join="true"
     close="true"
     autoreverse="true" /></defs><sodipodi:namedview
   id="namedview7"
   pagecolor="#ffffff"
   bordercolor="#999999"
   borderopacity="1"
   inkscape:pageshadow="0"
   inkscape:pageopacity="0"
   inkscape:pagecheckerboard="0"
   showgrid="false"
   fit-margin-top="10"
   fit-margin-right="10"
   fit-margin-bottom="10"
   fit-margin-left="10"
   inkscape:zoom="0.47960816"
   inkscape:cx="323.18049"
   inkscape:cy="635.9358"
   inkscape:window-width="2560"
   inkscape:window-height="1411"
   inkscape:window-x="-9"
   inkscape:window-y="-9"
   inkscape:window-maximized="1"
   inkscape:current-layer="katman_1"
   inkscape:showpageshadow="0"
   inkscape:deskcolor="#d1d1d1"
   showguides="true"><inkscape:page
     x="0"
     y="0"
     width="450"
     height="300"
     id="page1"
     margin="0"
     bleed="0"
     inkscape:export-filename="ca.svg"
     inkscape:export-xdpi="96"
     inkscape:export-ydpi="96" /><inkscape:page
     x="460"
     y="0"
     width="450"
     height="300"
     id="page19"
     margin="0"
     bleed="0" /><inkscape:page
     x="920"
     y="0"
     width="450"
     height="300"
     id="page20"
     margin="0"
     bleed="0" /><inkscape:page
     x="0"
     y="310"
     width="450"
     height="300"
     id="page21"
     margin="0"
     bleed="0" /><inkscape:page
     x="460.36829"
     y="310"
     width="450"
     height="300"
     id="page22"
     margin="0"
     bleed="0" /><inkscape:page
     x="0"
     y="620"
     width="450"
     height="300"
     id="page23"
     margin="0"
     bleed="0" /><inkscape:page
     x="919.90796"
     y="310"
     width="450"
     height="300"
     id="page24"
     margin="0"
     bleed="0" /><inkscape:page
     x="460.41431"
     y="620"
     width="450"
     height="300"
     id="page25"
     margin="0"
     bleed="0" /><inkscape:page
     x="919.93097"
     y="620"
     width="450"
     height="300"
     id="page26"
     margin="0"
     bleed="0" /></sodipodi:namedview>
<style
   type="text/css"
   id="style2">
	.st0{fill:#010202;}
</style>

<g
   id="g7"
   inkscape:label="c&amp;a"
   transform="translate(-492.49008,568.28076)"><rect
     style="fill:#dc0330;fill-opacity:1;fill-rule:evenodd;stroke-width:0.999985"
     id="rect1"
     width="450.00003"
     height="300"
     x="492.49008"
     y="-568.28076"
     rx="20"
     ry="20"
     inkscape:label="rect1" /><path
     class="st0"
     d="m 713.08378,-410.44438 -7.8628,-10.81794 c -2.26913,1.4248 -3.79947,4.27441 -3.79947,6.91293 0,4.16887 2.42744,6.59631 6.27968,6.59631 2.37467,0 3.85224,-1.10818 5.38259,-2.6913 z m -5.17151,-22.90237 c 0,2.37467 0.84433,3.90501 2.3219,6.12137 2.6913,-1.4248 4.01056,-3.43008 4.01056,-6.17414 0,-1.84697 -0.94987,-3.7467 -2.95515,-3.7467 -2.11081,0 -3.37731,1.74143 -3.37731,3.79947 z m 8.44328,26.54353 c -3.11346,2.48022 -6.86016,3.06069 -9.76254,3.06069 -7.07124,0 -12.77045,-3.79947 -12.92876,-10.18469 -0.10554,-5.59367 5.11873,-9.49869 9.39314,-10.76518 -1.31926,-1.74142 -2.48021,-3.7467 -2.48021,-6.43799 0,-6.22691 5.27705,-9.23483 10.92348,-9.23483 5.5409,0 9.55146,3.06068 9.55146,7.91556 0,4.22164 -4.22164,6.86017 -8.12665,8.54882 l 5.32981,7.91557 c 1.95251,-2.74407 3.21899,-5.43536 3.90502,-8.17942 0.0528,-0.21108 0.21108,-0.58048 0.94986,-0.58048 h 8.54882 c 0.47493,0 1.0554,-0.0528 0.68601,0.94987 l -1.00264,2.3219 c -0.21108,0.47493 -0.5277,0.68601 -1.00264,0.68601 h -1.16095 c -0.94986,0 -1.26649,0.52771 -1.84696,1.37204 0,0 -1.21372,2.00528 -2.11082,3.27177 -1.37203,1.9525 -1.74142,2.58575 -3.90501,4.74934 0,0 1.68865,2.8496 5.1715,2.8496 h 1.53035 c 0.26384,0 1.10817,-0.10554 0.68601,0.84433 l -1.05541,2.48021 c -0.15831,0.36939 -0.31662,0.68602 -1.00264,0.68602 h -3.43008 c 0,0 -4.32717,0.31662 -6.86015,-2.26914 z m 54.40633,2.26914 -11.55673,-38.31135 -15.3562,38.31135 z m 42.74406,28.54881 v 5.48812 c 0,0.8971 -0.58047,1.42481 -1.47757,1.47757 h -40.58048 c -0.89709,0 -1.4248,-0.58047 -1.4248,-1.4248 v -5.48812 c 0,-0.8971 0.58047,-1.4248 1.4248,-1.4248 l 3.37731,-0.10554 c 2.63853,-0.0528 3.27177,-1.31926 3.32454,-2.53298 0,-0.52771 -0.10554,-1.05542 -0.21108,-1.47758 -0.26385,-1.10818 -1.10818,-3.69393 -1.10818,-3.69393 0,0 -2.37468,-7.65172 -3.85224,-11.82058 h -32.13721 l -5.38259,13.24538 c -0.58047,1.37203 -0.79155,2.42744 -0.79155,3.27177 0,2.79683 2.63852,2.95514 5.1715,2.95514 l 3.06069,0.0528 c 0.84433,0 1.4248,0.52771 1.4248,1.4248 v 5.48812 c 0,0.89711 -0.5277,1.42481 -1.4248,1.47758 h -27.44063 c -0.84433,0 -1.4248,-0.5277 -1.4248,-1.4248 v -5.48813 c 0,-0.8971 0.5277,-1.4248 1.4248,-1.4248 l 0.94986,-0.0528 c 0,0 2.95515,0.10554 4.59103,-0.73879 1.68866,-0.84433 2.3219,-1.89973 3.06069,-3.58839 l 35.25066,-84.59103 c 0.36939,-0.94986 1.10818,-1.26649 1.89973,-1.26649 h 11.24011 c 0.94987,0 1.53034,0.47493 1.7942,1.26649 3.219,9.18206 29.44591,84.16887 29.44591,84.22164 1.26648,3.53562 2.4802,4.69657 6.64907,4.74934 h 1.74143 c 0.84433,-0.0528 1.4248,0.5277 1.4248,1.4248 z m -115.40897,-19.52507 v 25.01319 c 0,0.8971 -0.58047,1.42481 -1.4248,1.42481 h -5.75198 c -0.58047,0 -1.00264,-0.15832 -1.37203,-0.8971 -0.31662,-0.73879 -0.94987,-1.63588 -2.26913,-1.63588 -3.16623,0 -8.86544,3.32453 -21.53034,3.32453 -28.70713,0 -44.27441,-23.7467 -44.27441,-49.8153 0,-30.81794 18.68074,-50.1847 44.11609,-50.1847 8.07388,0 12.55937,1.63589 15.25067,2.74407 2.16358,1.00263 3.11345,1.63588 4.53825,1.63588 1.9525,0 2.53299,-1.10818 3.219,-2.58575 0.42216,-0.84433 0.68601,-1.16095 1.37203,-1.16095 h 5.69921 c 0.84433,0 1.4248,0.58047 1.4248,1.47757 v 25.01319 c 0,0.8971 -0.52771,1.4248 -1.4248,1.4248 h -5.59367 c -0.79156,0 -1.21372,-0.31661 -1.4248,-1.31926 -2.11082,-11.7678 -6.33245,-18.89181 -19.47229,-18.89181 -16.56993,0 -20.58048,25.64643 -20.58048,38.31134 0,19.26122 2.16358,45.01319 21.26649,45.01319 13.82585,0 17.94195,-7.86279 19.68338,-19.05013 0.21108,-1.10818 0.8971,-1.26649 1.4248,-1.26649 h 5.64644 c 0.84432,-0.0528 1.47757,0.47493 1.47757,1.4248 z"
     id="path4"
     style="fill:#ffffff;fill-opacity:1;stroke-width:1"
     inkscape:label="path1" /></g><g
   id="g8"
   inkscape:label="coop supercard"
   transform="translate(-546.90997,565.51953)"><rect
     style="fill:#0c4b7a;fill-opacity:1;fill-rule:evenodd;stroke-width:0.999985"
     id="rect1-3"
     width="450.00003"
     height="300"
     x="1006.91"
     y="-565.51953"
     rx="20"
     ry="20"
     inkscape:label="rect2" /><path
     id="path1"
     style="fill:#ffffff;stroke-width:1"
     d="m 1058.0117,-436.32031 c -8.6646,0 -20.666,2.85257 -20.666,13.42773 0,7.10393 5.3277,9.90152 11.4629,11.0586 l 5.5703,1.05078 c 3.848,0.69963 6.8359,1.5055 6.8359,3.90039 0,3.6596 -6.1361,4.00976 -9.123,4.00976 -5.8392,0 -8.3416,-1.91005 -9.1758,-5.4082 l -11.0058,2.74414 c 0.8341,8.31483 10.8994,10.81836 20.0214,10.81836 11.5977,0 21.0684,-4.17089 21.0684,-13.77734 0,-6.94248 -4.6815,-9.76872 -12.8887,-11.41016 l -6.4316,-1.29102 c -4.144,-0.80726 -4.7891,-2.04496 -4.7891,-3.25585 0,-1.91053 2.2326,-3.71289 7.5606,-3.71289 5.902,0 8.1132,1.44404 9.6465,4.97265 l 10.8046,-2.84765 c -2.2603,-7.96502 -10.8179,-10.2793 -18.8906,-10.2793 z m 8.086,13.12695 -0.014,0.004 0.027,0.0273 c 0,-0.0108 -0.01,-0.0204 -0.014,-0.0312 z m 210.5488,-13.12695 c -14.2617,0 -25.5625,8.85338 -25.5625,24.43359 0,11.03262 7.8558,17.14063 18.2695,17.14063 11.0595,0 18.8372,-3.12228 23.8691,-12.37891 l -11.3554,-2.44727 c -2.3411,4.06323 -6.1347,5.75782 -10.3594,5.75782 -5.6239,0 -8.9609,-3.20245 -8.9609,-8.96094 0,-7.96501 5.5165,-14.47656 12.9433,-14.47656 6.3211,0 7.9641,3.30786 8.5567,6.45507 l 11.3281,-1.85351 c -1.0494,-9.36427 -7.8574,-13.66992 -18.7285,-13.66992 z m 7.4004,15.52343 -0.028,0.004 h 0.028 c -2e-4,-10e-4 2e-4,-0.003 0,-0.004 z m -199.2598,-14.63476 -5.0859,20.42383 c -0.2422,1.04944 -0.4035,1.93579 -0.5918,2.79687 -2.5295,12.37806 5.7313,17.49219 17.1406,17.49219 11.4093,0 19.1314,-4.41272 22.0645,-16.17187 h 0.027 l 6.1348,-24.54102 h -10.8711 l -5.8653,23.4375 c -1.3992,5.65085 -5.7317,8.20703 -11.0058,8.20703 -3.7673,0 -8.3153,-1.56033 -6.916,-8.07226 0.1883,-0.83418 0.485,-1.99265 0.6464,-2.7461 l 5.2188,-20.82617 z m 47.8965,0 -9.9551,39.82422 h 10.8711 l 2.6367,-10.52149 h 7.4805 l 0.027,0.0273 c 10.8174,0 21.8223,-4.49304 21.8223,-16.87109 0,-9.149 -5.6236,-12.45899 -15.4453,-12.45899 z m 40.875,0 -9.957,39.82422 h 34.6601 l 2.3399,-9.41797 h -23.7598 l 1.6406,-6.56641 h 19.7246 l 2.0996,-8.36718 h -19.7246 l 1.5332,-6.05469 h 22.8731 l 2.3945,-9.41797 z m 40.793,0 -9.9551,39.82422 h 10.8984 l 3.1485,-12.78125 h 7.0234 l 5.5156,12.78125 h 12.0547 l -6.916,-14.12696 c 7.1577,-1.96434 12.3516,-6.91518 12.3516,-14.47656 0,-7.56138 -4.7361,-11.2207 -14.9883,-11.2207 z m 102.6582,0 -26.6934,39.82422 h 11.4629 l 4.3867,-6.75391 h 19.3203 l 1.291,6.75391 h 10.8184 l -8.0742,-39.82422 z m 34.8476,0 -9.957,39.82422 h 10.8711 l 3.1484,-12.78125 h 7.0235 l 5.5156,12.78125 h 12.0547 l -6.9141,-14.12696 h 0.024 c 7.1309,-1.96434 12.3516,-6.91518 12.3516,-14.47656 0,-7.56138 -4.736,-11.2207 -14.9883,-11.2207 z m 43.9961,0 -9.957,39.82422 h 18.1894 0.027 c 16.6835,0 27.7969,-8.77178 27.7969,-23.89453 0,-10.81735 -6.3776,-15.92969 -18.379,-15.92969 z m -74.1074,8.66406 1.9902,14.98828 h -11.5156 z m -89.4453,0.26953 c 3.229,0 4.9238,1.23663 4.9238,3.79297 0,3.74033 -3.3893,5.35547 -8.0176,5.35547 h -8.4765 l 2.2871,-9.12305 h 9.3105 z m 137.5312,0 c 3.2291,0 4.9239,1.23663 4.9239,3.79297 0,3.74033 -3.3913,5.35547 -8.0196,5.35547 h -8.5019 l 2.2871,-9.12305 h 9.3105 z m -228.4824,0.0527 h 7.2637 c 3.9018,0 5.7871,1.69629 5.7871,4.89844 0,4.54759 -3.3919,6.51172 -8.4238,6.51172 h -7.4805 z m 263.0606,0.43164 h 7.83 c 5.92,0 8.5567,2.5553 8.5567,7.91016 0,8.5301 -7.0504,13.07812 -14.8809,13.07812 h -6.7812 z"
     inkscape:label="path2-1" /><g
     transform="matrix(0.22930476,0,0,0.22930476,1286.6533,-648.17078)"
     id="g2001"
     style="stroke-width:4.36101"
     inkscape:label="coop"><path
       d="m 280.8451,550.9571 c -20.03138,0 -36.18283,-16.14756 -36.18283,-36.03259 0.004,-19.83969 16.14791,-35.98725 36.18283,-35.98725 19.88823,0 36.02232,16.14756 36.02232,35.98725 0,19.88503 -16.13764,36.03259 -36.02232,36.03259 m 60.96543,-84.99543 c -16.8626,-11.6713 -39.78708,-16.56248 -60.96543,-16.56248 -39.735,-0.004 -86.28555,17.00894 -86.28555,65.09303 0,6.33437 1.00772,12.25028 2.01862,17.29134 -8.49933,9.50669 -22.43338,18.87732 -39.72437,18.87732 -22.77496,0 -38.91224,-14.54775 -38.91224,-36.89362 0,-20.69716 15.9874,-35.98405 36.84472,-35.98405 10.51796,-0.004 18.30225,3.60141 22.62863,6.49134 l 16.7159,-26.51563 c -8.36327,-4.17969 -24.59799,-10.09595 -46.2189,-10.09595 -40.92732,0 -81.377001,22.05354 -81.377001,66.40051 0.0035,44.23536 36.416341,67.01386 80.086891,67.01386 27.62078,-0.004 49.80649,-13.83626 62.35299,-27.67287 16.28397,17.67118 43.76834,26.03444 71.87031,26.03444 20.56465,0 43.80661,-4.61232 60.96189,-16.38141 l 0.004,-97.09583 z"
       style="fill:#ff5404;fill-opacity:1;fill-rule:evenodd;stroke-width:4.36101"
       id="_46823448"
       inkscape:label="path2-4" /><path
       d="m 549.05183,553.10825 h -0.43229 c -20.18126,-0.28241 -36.60094,-15.98741 -36.60094,-38.46615 0,-21.572 16.85905,-37.42688 36.5974,-37.57358 h 0.43583 c 20.75633,0 36.26291,16.52776 36.26291,37.27736 0.003,20.03138 -15.07784,38.76237 -36.26646,38.76237 m -146.04094,-2.72977 c -19.88858,0 -36.02232,-16.14756 -36.02232,-36.0326 0,-20.03492 16.13374,-36.11976 36.02232,-36.11976 19.84996,0 35.9837,16.08484 35.9837,36.11976 0,19.88504 -16.13728,36.0326 -35.9837,36.0326 m 155.26523,-98.38559 c -3.30838,0 -6.4807,0.2824 -9.65657,0.57863 -14.84043,1.71885 -26.51563,7.05968 -35.59004,13.3937 v -11.80737 h -39.88134 v 19.15973 c -16.86224,-17.00894 -46.68626,-23.91839 -70.03984,-23.91839 l -0.0974,-0.004 c -21.17834,0 -44.28815,4.84937 -61.19929,16.66736 l 0.004,96.75035 c 16.81016,11.73118 39.76973,16.62555 61.19575,16.62555 h 0.0974 c 26.81185,0 52.16988,-8.44689 69.17528,-22.86212 l 0.004,60.4846 h 40.74236 V 563.3399 c 6.33437,5.9159 18.44894,13.27181 35.59004,15.4226 3.45827,0.44291 7.05933,0.67641 10.81063,0.67641 32.08996,0 74.03846,-19.25752 74.03846,-64.66429 0,-42.17173 -33.87118,-62.78173 -75.19252,-62.78173 z"
       style="fill:#ff8605;fill-opacity:1;fill-rule:evenodd;stroke-width:4.36101"
       id="_47521032"
       inkscape:label="path2-3" /><path
       d="m 341.90833,562.91116 c -14.65937,-10.08532 -25.04091,-25.79032 -25.04091,-48.41894 0,-22.42984 10.09559,-38.14866 25.03736,-48.527 14.84717,10.37834 25.07918,26.09716 25.07918,48.527 0,22.62862 -10.23201,38.18728 -25.07563,48.41894 z"
       style="fill:#dc3002;fill-opacity:1;fill-rule:evenodd;stroke-width:4.36101"
       id="_92386648"
       inkscape:label="path2-2" /></g></g><g
   id="g9"
   inkscape:label="migros cumulus"
   transform="translate(-599.04102,566.35889)"><rect
     style="fill:#004e99;fill-opacity:1;fill-rule:evenodd;stroke-width:0.999985"
     id="rect1-3-0"
     width="450.00003"
     height="300"
     x="1519.041"
     y="-566.35889"
     rx="20"
     ry="20"
     inkscape:label="rect3" /><path
     d="m 1834.3695,-522.93064 v -13.26909 l -5.6923,13.26909 h -3.1581 l -5.5981,-13.26909 v 13.26909 h -5.88 v -22.98439 h 7.8719 l 5.4075,12.97756 5.6593,-12.97756 h 7.2689 v 22.98439 z m 10.4049,1e-5 v -22.9844 h 5.0279 c 0.4406,0 0.8808,0.44054 0.8808,0.91983 v 22.06457 z m 22.2232,-13.23668 h 7.474 c 0.5897,0 0.9229,0.48263 0.9229,1.04943 v 11.87297 c -2.1021,0.46995 -5.3874,0.75815 -7.8296,0.75815 -8.5687,0 -13.0877,-4.08509 -13.0877,-11.96674 2e-4,-7.03324 4.519,-11.90539 12.0508,-11.90539 3.3178,0 6.2268,0.8844 8.0994,2.14776 l -2.3162,3.95549 c -1.6205,-0.72573 -3.8002,-1.2311 -5.3426,-1.2311 -4.3306,0 -6.3559,2.87341 -6.3559,7.03324 0,4.44121 2.3452,7.1851 6.6703,7.1851 0.7904,0 1.7755,-0.0291 2.5628,-0.15235 v -4.04934 h -2.8482 z m 21.5112,-5.31943 h -2.8928 v 5.76306 h 2.8928 c 1.7266,0 3.084,-0.91991 3.084,-3.10668 3e-4,-2.21584 -1.3577,-2.65638 -3.084,-2.65638 z m 4.3539,18.55611 -2.7277,-6.32677 c -0.5573,-1.28927 -0.9464,-1.92749 -2.1288,-1.92749 h -2.3902 v 8.25426 h -5.7762 v -22.06456 c 0,-0.4793 0.5249,-0.91984 0.9005,-0.91984 h 8.154 c 4.4312,0 8.2309,0.91984 8.2309,6.64089 0,2.56238 -1.4179,5.18667 -4.0785,5.71797 1.3255,0.4502 2.6606,2.14768 3.3827,3.99099 l 2.6275,6.63455 z m 18.9643,-18.55611 c -3.1,0 -5.3063,2.2126 -5.3063,7.03324 3e-4,4.88832 2.206,7.09458 5.3061,7.09458 2.6597,0 4.8366,-2.20626 4.8366,-7.09458 3e-4,-4.82064 -2.1769,-7.03324 -4.8364,-7.03324 z m 0,18.99998 c -7.5252,0 -11.5071,-5.31594 -11.5071,-11.96674 0,-6.5927 3.9816,-11.90539 11.5069,-11.90539 7.0495,0 11.0375,5.31269 11.0375,11.90539 2e-4,6.65055 -3.9883,11.96674 -11.0373,11.96674 z m 22.3527,0 c -3.8871,0 -7.4964,-1.39287 -9.1061,-2.50087 l 2.6207,-4.64547 c 1.4612,0.8844 4.305,2.24485 6.9257,2.24485 1.4838,0 3.3597,-0.28495 3.3597,-1.93382 0,-1.54855 -2.0959,-2.0215 -4.8435,-2.80881 -3.317,-0.94925 -7.1785,-2.27094 -7.1785,-6.73189 10e-5,-4.80748 4.2726,-7.49612 9.8324,-7.49612 3.6698,0 6.5143,1.29886 7.9657,2.68864 l -3.1912,3.63163 c -1.5774,-0.94275 -3.1905,-1.67481 -4.9984,-1.67481 -2.1768,0 -3.4077,0.82615 -3.4077,2.02784 2e-4,1.19218 1.5774,1.80123 3.5661,2.40044 3.5157,1.08543 8.3164,2.19335 8.3164,6.79681 3e-4,4.74257 -3.7907,8.00158 -9.8613,8.00158 z"
     style="fill:#ff6600;fill-opacity:1;fill-rule:evenodd;stroke-width:1"
     id="polygon3036"
     inkscape:label="path3-3" /><g
     id="g4"
     transform="matrix(2.0814882,0,0,2.0814882,1405.8028,-749.39429)"
     style="stroke-width:0.480426"
     inkscape:label="cumulus"><path
       id="path3-7"
       style="fill:#ffffff;stroke-width:0.480426"
       class="cls-2"
       d="m 79.711191,146.11023 c -8.071292,0 -13.298028,6.16087 -13.298028,13.89386 0,7.733 5.226736,13.89293 13.298028,13.89293 6.759793,0 11.804461,-4.03076 12.17766,-10.90716 h -6.946465 a 4.952,4.952 0 0 1 -5.382266,4.92999 c -4.484896,0 -6.200492,-3.95951 -6.200492,-7.91951 0,-3.9557 1.720688,-7.9156 6.205183,-7.9167 2.911097,0 5.003429,1.41614 5.381329,4.10614 h 6.947403 c -0.1912,-6.4219 -6.426758,-10.07955 -12.182352,-10.07955 z m 169.262719,0 c -6.47569,0 -11.44951,3.1206 -11.44951,8.7246 0,5.20099 4.49853,6.73369 8.36053,7.84069 3.20509,0.9107 5.64031,1.46223 5.64031,3.26633 0,1.9205 -2.18267,2.25012 -3.91097,2.25012 a 17.2971,17.2971 0 0 1 -8.07246,-2.6095 l -3.04395,5.40948 a 20.624,20.624 0 0 0 10.60033,2.90601 c 7.07619,0 11.48517,-3.79095 11.48517,-9.31575 0,-5.36399 -5.58246,-6.65326 -9.68076,-7.91576 -2.3148,-0.6982 -4.15493,-1.39974 -4.15493,-2.79153 0,-1.4079 1.43575,-2.35991 3.96445,-2.35991 a 11.34,11.34 0 0 1 5.82703,1.95548 l 3.71486,-4.23562 a 13.7346,13.7346 0 0 0 -9.2801,-3.12464 z m -153.138438,0.55643 v 15.65324 c 0,7.72999 3.546184,11.57806 11.617478,11.57806 8.07129,0 11.61841,-3.84807 11.61841,-11.57806 v -15.65324 h -6.95115 v 16.06235 c 0,3.43589 -1.27196,5.19178 -4.67195,5.19178 -3.3957,0 -4.67102,-1.75589 -4.67102,-5.19178 l 0.005,-14.98233 a 1.1037,1.1037 0 0 0 -1.03592,-1.08002 z m 63.687338,0 v 15.65324 c 0,7.72969 3.54773,11.57806 11.61842,11.57806 8.07069,0 11.61748,-3.84807 11.61748,-11.57806 v -15.65324 h -6.95116 v 16.06235 c 0,3.43589 -1.27195,5.19178 -4.67195,5.19178 -3.3957,0 -4.67101,-1.75589 -4.67101,-5.19178 l 0.005,-14.98233 a 1.1037,1.1037 0 0 0 -1.03592,-1.08002 z m 28.22594,0 v 24.01846 a 2.6509,2.6509 0 0 0 2.64891,2.6489 h 16.74358 v -4.89433 a 1.1088,1.1088 0 0 0 -1.03592,-1.08377 h -11.40447 v -19.60924 a 1.104,1.104 0 0 0 -1.03123,-1.08002 z m 22.12866,0 v 15.65324 c 0,7.72969 3.54772,11.57806 11.61842,11.57806 8.07069,0 11.61747,-3.84807 11.61747,-11.57806 v -15.65324 h -6.95115 v 16.06235 c 0,3.43589 -1.27196,5.19178 -4.67195,5.19178 -3.3957,0 -4.67102,-1.75589 -4.67102,-5.19178 l 0.005,-14.98233 a 1.1037,1.1037 0 0 0 -1.03592,-1.08002 z"
       inkscape:label="path3-1" /><path
       class="cls-3"
       d="m 146.0663,146.6668 h 8.4313 v 26.6673 H 147.68 V 157.938 l -6.6134,15.3961 h -3.6627 L 130.91,157.938 v 15.3961 h -6.8265 v -26.6673 h 9.1375 l 6.2759,15.0539 z"
       id="path5-9"
       style="fill:#ff6600;stroke-width:0.480426"
       inkscape:label="path3-2" /></g></g><g
   id="layer1-5"
   transform="matrix(0.25668777,0,0,0.25668777,-1020.834,251.58844)"
   style="fill:#ffffff;fill-opacity:1;stroke-width:3.89578"
   inkscape:label="h&amp;m">
	
<rect
   style="fill:#e50010;fill-opacity:1;fill-rule:evenodd;stroke-width:0.999985"
   id="rect1-3-0-8"
   width="450.00003"
   height="300"
   x="485.86807"
   y="-214.31111"
   rx="20"
   ry="20"
   inkscape:label="rect4"
   transform="matrix(3.8957836,0,0,3.8957836,2084.1113,1062.4685)" /><path
   id="path45125"
   style="fill:#ffffff;fill-opacity:1;stroke-width:3.89578"
   d="m 4831.8912,578.18339 c -9.9918,-0.238 -33.0685,11.88375 -47.6016,14.40375 -4.919,0.858 -9.6098,6.05851 -11.2688,9.7775 -24.826,57.02995 -47.0807,111.39679 -66.3577,160.92174 -24.654,4.20999 -53.4833,9.7514 -85.7453,16.9984 23.109,-59.27794 46.4451,-117.74215 69.211,-173.97109 11.211,-27.68597 -18.3024,-30.31927 -29.7433,-2.29029 -14.873,36.43796 -42.7314,104.70829 -73.5634,184.28121 -22.652,5.554 -46.6709,11.90535 -71.7829,19.15934 -18.2479,5.268 -18.9954,10.13381 -11.1014,21.0768 4.347,6.093 13.3293,5.47355 17.4473,9.81555 10.64,11.25199 17.1032,24.71608 36.1501,26.75308 -16.9889,45.44595 -33.9722,92.30694 -49.3592,137.43282 -9.667,28.326 17.844,34.1209 28.427,4.1469 17.046,-48.3179 35.0074,-97.21975 53.4833,-145.9777 15.387,-3.57599 52.6228,-11.59382 87.0008,-19.05281 -27.285,74.78492 -45.2468,131.57896 -52.0528,159.22491 -1.258,5.319 0.8571,8.2715 2.0011,10.4395 9.209,13.402 17.9633,13.9485 29.8043,30.5195 3.204,4.519 13.9547,6.9563 17.6147,-4.1697 25.283,-76.36992 51.3115,-148.02139 75.5645,-212.25933 10.067,-2.202 28.2033,-6.57884 39.3002,-23.13882 19.734,-29.39097 25.3977,-23.43349 30.1467,-32.36848 5.949,-11.21699 1.9962,-21.74613 -19.0528,-19.14413 0,0 -7.9509,0.56864 -22.6519,2.24464 23.338,-60.08994 43.7586,-111.0574 58.4596,-149.89636 5.036,-13.15299 5.6691,-22.76127 -2.5109,-24.70627 -0.5434,-0.13225 -1.1524,-0.20479 -1.8186,-0.22066 z m 366.7135,1.09569 c -6.7387,-0.52824 -17.7803,2.51821 -35.0697,10.21883 -11.84,5.26299 -21.0493,-0.28698 -35.4653,29.40099 -45.418,93.1699 -80.659,168.82299 -122.702,277.66589 1.201,-89.38292 17.1621,-160.52518 26.7151,-247.5801 1.774,-16.01698 4.2321,-38.14608 3.8881,-54.79206 -0.287,-12.81399 -13.0428,-14.47575 -38.7828,-1.83376 -14.301,7.03499 -31.517,6.46468 -38.098,23.51166 -27.914,72.35993 -92.4931,273.62975 -122.4661,387.43257 -7.207,27.347 19.9094,31.931 28.0314,3.873 19.735,-67.81191 64.7478,-217.90418 91.5737,-295.21211 -2.687,70.76993 -21.9608,182.62998 -12.9808,241.31793 2.8609,18.45898 20.0774,26.43369 28.9444,42.05463 6.291,11.11995 16.4181,12.23815 21.9671,-2.9598 26.2559,-71.57097 77.3305,-197.80126 126.5825,-298.77316 -9.668,44.44596 -46.7321,233.07295 -57.0291,308.25381 -2.058,15.101 16.4775,15.4576 32.8935,38.1665 3.662,5.102 17.8435,10.635 20.3615,-2.412 8.75,-45.09295 66.013,-337.9459 88.378,-430.95581 3.755,-15.69498 4.4896,-26.49661 -6.7415,-27.37701 z m -404.8039,265.17199 c -6.6242,0.2081 -13.2964,2.91565 -18.1549,8.68942 -9.267,10.94299 -6.9226,21.68758 -4.4056,30.90757 0.7741,2.81458 2.0437,7.05488 3.5001,11.82431 -4.9398,5.06711 -10.837,11.38222 -18.7104,20.52895 -19.62,22.77198 -14.3047,52.32065 6.6883,58.84764 12.7799,3.97576 24.7313,-1.82362 35.0696,-10.98733 0.4889,1.27092 1.0257,2.72741 1.4838,3.87296 5.434,13.73399 22.4275,9.57575 15.9635,-7.00024 -1.1043,-2.83463 -2.549,-6.85229 -4.1012,-11.27646 3.3316,-4.22091 6.388,-8.49551 9.0775,-12.47868 12.527,-18.53899 0.3982,-29.41931 -12.2428,-18.45932 -1.7815,1.54552 -3.6336,3.29697 -5.5241,5.11321 -2.1482,-6.58368 -4.2652,-13.17597 -6.247,-19.49413 5.969,-7.29336 11.6833,-14.48628 16.5723,-22.10401 14.5957,-22.71535 -2.0404,-38.5157 -18.9691,-37.98389 z m -0.6163,18.04844 c 4.3192,-0.0279 8.2602,5.27088 1.4533,12.93521 -1.8969,2.14289 -3.6761,4.03301 -5.4404,5.86651 -0.4107,-1.45916 -0.8945,-3.11558 -1.1946,-4.26102 -2.7347,-10.34436 1.3706,-14.51611 5.1817,-14.5407 z m -10.4395,58.64219 c 1.7607,5.38404 3.5747,10.82366 5.41,16.22229 -2.3765,1.98005 -4.7805,3.78453 -7.1905,5.26539 -7.722,4.696 -13.7819,-0.3515 -3.4849,-14.52549 1.7296,-2.37421 3.4907,-4.68595 5.2654,-6.96219 z"
   inkscape:label="path4" /></g><g
   id="g11"
   inkscape:label="mediamarkt"
   transform="translate(-548.27014,511.92314)"><rect
     style="fill:#b20000;fill-opacity:1;fill-rule:evenodd;stroke-width:0.999985"
     id="rect1-3-0-8-3"
     width="450.00003"
     height="300"
     x="1008.6384"
     y="-201.92314"
     rx="20"
     ry="20"
     inkscape:label="rect5" /><path
     d="m 1383.1117,-59.0803 0.1206,-0.76037 c 0.059,-0.30503 -0.027,-0.62372 -0.223,-0.86507 -0.2026,-0.23675 -0.4962,-0.37786 -0.8057,-0.37786 h -5.4624 c -0.5053,-0.007 -0.9468,0.35056 -1.0424,0.85139 l -0.1525,0.82638 -5.8356,31.900414 c -0.052,0.307325 0.041,0.628311 0.2458,0.867344 0.2071,0.236753 0.5212,0.377898 0.8353,0.371065 l 2.6947,-0.04098 h 2.5332 c 0.5053,0 0.9263,-0.352856 1.0265,-0.837744 l 4.0034,-19.798619 c 1.3224,-5.01739 4.6453,-6.51074 7.5859,-6.94558 0.1571,-0.0205 0.7511,-0.0112 0.8763,-0.0933 -2.0143,12.00391 -4.3995,26.216015 -4.4405,26.452769 -0.052,0.300497 0.036,0.612376 0.2344,0.851409 0.198,0.234479 0.4962,0.371065 0.7966,0.371065 h 5.8835 c 0.4574,0 0.8671,-0.293665 0.9991,-0.737581 0.1889,-0.578228 1.5955,-8.734872 2.4399,-13.633892 2.1781,3.30321 9.1335,13.888859 9.1335,13.888859 0.1958,0.295944 0.5258,0.471233 0.8786,0.471233 l 7.0305,0.0114 c 0.1274,0 0.2435,-0.02958 0.3618,-0.06829 0.1502,0.06829 0.3164,0.113823 0.4802,0.10927 l 5.9358,-0.04098 c 0.5121,-0.0023 0.9423,-0.371065 1.0265,-0.865065 0,0 4.2993,-24.836477 4.5816,-26.466427 1.3815,-0.005 6.8143,-0.009 6.8143,-0.009 0.5098,0 0.9468,-0.36883 1.0356,-0.8719 l 0.9172,-5.34065 c 0.011,-0.0592 0.018,-0.11387 0.018,-0.17759 0,-0.2413 -0.089,-0.4826 -0.2435,-0.67158 -0.2003,-0.23674 -0.4939,-0.37335 -0.8103,-0.37335 h -6.7118 c 0.3277,-1.8872 1.5226,-8.85097 1.5226,-8.85097 0.01,-0.0614 0.014,-0.12066 0.014,-0.17754 0,-0.25269 -0.084,-0.49172 -0.2458,-0.67842 -0.1958,-0.2413 -0.4962,-0.37335 -0.8012,-0.37335 h -5.8994 c -0.5098,0 -0.9468,0.3688 -1.0355,0.86963 0,0 -1.3133,7.7833 -1.5568,9.21065 -0.5326,0.0158 -1.0833,0.0275 -1.0833,0.0275 l -0.9195,0.007 -0.9765,-0.0181 c -0.3755,-0.009 -0.7101,0.18442 -0.9058,0.48721 -0.1889,-0.28911 -0.5076,-0.47581 -0.8649,-0.47581 l -5.4009,-0.0112 h -1.5818 c -0.2936,0 -0.569,0.12521 -0.7738,0.33694 0,0 -5.4328,6.22846 -8.3188,9.35409 0.8444,-4.95135 3.1728,-18.54428 3.1728,-18.54428 0.01,-0.0637 0.014,-0.11837 0.014,-0.18214 0,-0.24358 -0.089,-0.48488 -0.2504,-0.67153 -0.198,-0.24131 -0.4916,-0.37563 -0.8012,-0.37563 l -5.8765,-0.0135 c -0.5167,-0.005 -0.9583,0.36423 -1.0424,0.86735 -0.1366,0.81042 -0.7466,4.42776 -1.5637,9.24707 -0.01,-0.0158 -0.016,-0.0274 -0.027,-0.0409 -0.2071,-0.24359 -0.5076,-0.37107 -0.8262,-0.35967 -2.5036,0.0728 -4.7636,1.09953 -6.7323,2.36981 z m 29.4376,29.865255 c -2.4194,-3.888232 -9.4886,-15.238835 -10.1099,-16.240465 0.817,-0.96526 9.4226,-11.45302 11.1705,-13.50642 l -0.7738,4.06581 c -0.059,0.30959 0.027,0.62833 0.2276,0.86508 0.2003,0.23902 0.4938,0.38241 0.8102,0.38241 h 2.6811 c -0.3049,1.85307 -3.109,18.942701 -4.0057,24.433585 z M 1210.7672,-42.79202 c -1.2268,4.28432 -5.2826,8.361534 -9.2405,9.322185 -3.0271,0.400698 -5.2484,0.116139 -6.7961,-0.885535 -1.6296,-1.12005 -2.4467,-3.06414 -3.0794,-4.8193 -0.1092,-0.62833 -0.1662,-1.26121 -0.1662,-1.87814 0,-3.90191 2.0871,-7.66265 5.9267,-10.54242 2.2077,-1.54572 5.2052,-2.12851 7.8362,-1.52521 1.484,0.34144 3.5141,1.22474 4.7819,3.51944 0.7101,1.24521 1.0879,2.82284 1.0879,4.36172 0,0.85144 -0.1184,1.68689 -0.3505,2.44726 z m -29.9224,-27.53642 -1.27,6.89777 c -0.059,0.3073 0.025,0.62832 0.2253,0.87646 0.2003,0.23674 0.4962,0.37786 0.8171,0.37786 h 6.1383 c 0.5053,0 0.9445,-0.35967 1.0356,-0.86507 l 1.1539,-6.83628 c 0.05,-0.30502 -0.032,-0.62604 -0.2276,-0.86507 -0.2002,-0.23902 -0.4962,-0.38018 -0.8011,-0.38246 l -6.0336,-0.05 c -0.5053,-0.005 -0.94,0.35512 -1.0379,0.84684 z m -13.2599,27.53642 v 0 c 0.2299,-0.76037 0.3414,-1.59582 0.3414,-2.44726 0,-1.53888 -0.3733,-3.11651 -1.0811,-4.36172 -1.2746,-2.2947 -3.3025,-3.178 -4.7887,-3.51944 -2.6242,-0.6033 -5.6285,-0.0205 -7.8362,1.52521 -3.8327,2.87977 -5.9267,6.64051 -5.9267,10.54242 0,0.61693 0.059,1.24981 0.1685,1.87814 0.6327,1.75516 1.4498,3.69925 3.0816,4.8193 1.5477,1.001674 3.7714,1.286233 6.7939,0.885535 3.9602,-0.960651 8.0114,-5.037865 9.2473,-9.322185 z m -50.3539,-4.92177 v 0 c 2.5127,-0.0228 14.5458,-0.1366 16.2778,-0.15256 -0.1251,-1.16553 -0.7396,-2.25823 -2.0256,-3.54674 -1.4202,-1.21563 -3.3662,-1.78707 -6.1292,-1.80298 -2.9929,0.41889 -6.4889,2.38805 -8.123,5.50228 z m 246.6873,4.92177 c -1.2245,4.28432 -5.278,8.361534 -9.2405,9.322185 -3.0293,0.400698 -5.2507,0.116139 -6.7893,-0.885535 -1.6341,-1.12005 -2.4535,-3.06414 -3.0862,-4.8193 -0.1047,-0.62833 -0.1684,-1.26121 -0.1684,-1.87814 0,-3.90191 2.0893,-7.66265 5.9335,-10.54242 2.2008,-1.54572 5.2051,-2.12851 7.8339,-1.52521 1.4817,0.34144 3.5164,1.22474 4.7818,3.51944 0.7033,1.24521 1.0834,2.82284 1.0834,4.36172 0,0.85144 -0.1161,1.68689 -0.3482,2.44726 z m -330.2797,15.94451 v -0.653353 c 0.032,-0.06829 0.073,-0.134312 0.1251,-0.191224 l 43.7376,-50.419663 c 0.1526,-0.16846 0.3665,-0.26864 0.5986,-0.26864 h 7.0624 c 0.2322,0 0.4552,0.10702 0.6077,0.28911 0.1138,0.14116 0.1798,0.32554 0.1798,0.49628 0,0.0501 -0.011,0.1093 -0.021,0.16163 0,0 -5.4782,27.06065 -6.4956,31.95507 3.4481,-3.89735 28.9073,-32.63345 28.9073,-32.63345 0.1456,-0.17529 0.3641,-0.26864 0.5849,-0.26864 h 6.6459 c 0.2436,0 0.4734,0.1093 0.6237,0.30051 0.1479,0.19121 0.2025,0.4439 0.1411,0.67614 l -6.976,28.3286 c 0.057,-0.10474 0.107,-0.20716 0.1593,-0.30735 3.3207,-6.45837 9.6297,-10.99767 16.4577,-11.83316 0.02,-0.005 0.048,-0.005 0.075,-0.005 6.1747,-0.31414 10.9407,2.02381 13.7993,6.74521 0.016,0.0251 0.027,0.0478 0.046,0.0752 1.0264,2.06247 1.7912,4.83298 1.9277,7.6854 1.1653,-3.40107 3.2365,-6.54717 6.1156,-9.20154 4.8797,-4.53935 10.8292,-6.32637 16.7604,-5.02423 0.061,0.0135 0.1343,0.0386 0.1957,0.0638 l 0.5508,0.23674 c 1.3155,0.56684 2.7471,1.19516 3.958,2.28102 0.6418,-3.0186 2.5218,-11.96977 2.5218,-11.96977 0.1047,-0.48488 0.5348,-0.83548 1.0333,-0.83548 h 5.4532 c 0.3164,0 0.6122,0.14116 0.8126,0.37563 0.2002,0.2413 0.2844,0.56004 0.2298,0.86734 l -7.9546,42.900433 c -0.096,0.500828 -0.5303,0.860512 -1.0401,0.860512 l -5.41,-0.01595 c -0.3164,0 -0.6168,-0.132038 -0.8171,-0.371066 -0.1593,-0.191227 -0.2436,-0.43026 -0.2436,-0.673842 0,-0.06602 0.01,-0.132037 0.02,-0.193502 0,0 0.1366,-0.719372 0.2231,-1.195134 -4.4109,2.72266 -8.8764,3.783502 -13.0596,3.025432 -4.7842,-0.951572 -9.2383,-5.629758 -10.135,-10.642603 -0.2458,-1.34311 -0.3551,-2.68851 -0.3414,-4.01344 -0.1889,0.17075 -0.4393,0.27316 -0.7078,0.27316 0,0 -23.9297,0.009 -25.1201,0.0112 -0.027,0.10246 -0.043,0.19581 -0.043,0.30507 0,0.38474 0.132,0.88325 0.305,1.45242 0,0 0.073,0.25948 0.1069,0.37107 1.1927,2.929813 4.0535,4.76693 7.2991,4.689534 3.2274,-0.07284 6.218,-1.618558 8.874,-4.589394 0.1958,-0.22535 0.4848,-0.35284 0.7807,-0.35284 h 5.6012 c 0.3619,0 0.7011,0.18665 0.89,0.494 0.1957,0.30502 0.2207,0.68977 0.068,1.0153 -3.1796,6.686051 -10.3103,11.177558 -17.7937,11.177558 -5.2052,-0.202605 -9.5751,-2.73634 -12.0081,-6.972903 -1.2109,-2.258279 -1.7844,-5.060605 -1.7503,-7.928975 l -3.2865,13.347036 c -0.089,0.359688 -0.4097,0.605548 -0.7715,0.605548 h -7.0852 c -0.239,0 -0.4689,-0.111548 -0.6145,-0.302776 -0.116,-0.143419 -0.1753,-0.316428 -0.1753,-0.487168 0,-0.06602 0.01,-0.12293 0.021,-0.184395 2.7676,-11.523595 6.6482,-27.902905 8.057,-34.384065 -3.389,3.96791 -29.9452,35.032865 -29.9452,35.032865 -0.1457,0.175289 -0.3618,0.273177 -0.5917,0.273177 l -5.9859,0.05236 c -0.2412,0 -0.4643,-0.10472 -0.6168,-0.295944 -0.1137,-0.138865 -0.1775,-0.314158 -0.1775,-0.494 0,-0.05464 0,-0.111549 0.016,-0.166181 2.5332,-11.660187 6.0769,-28.264877 7.3241,-34.723297 -3.266,3.9019 -29.6037,35.399413 -29.6037,35.399413 -0.1525,0.179842 -0.3869,0.284558 -0.6305,0.280009 -2.0438,-0.07057 -3.5846,-0.06146 -5.3736,-0.05236 h -3.4093 c -0.305,0.0069 -0.585,-0.172912 -0.7124,-0.452921 z m 340.0164,-33.85823 c -0.1958,-0.23675 -0.4916,-0.37786 -0.8057,-0.37786 h -5.4579 c -0.4961,0 -0.9308,0.34828 -1.031,0.83544 l -0.4211,2.06479 c -1.213,-1.08591 -2.4216,-1.78251 -4.1536,-2.45633 l -0.544,-0.23674 c -0.066,-0.0251 -0.132,-0.0501 -0.2002,-0.0638 -5.9267,-1.30214 -11.8807,0.48489 -16.7582,5.02423 -2.433,2.24005 -4.2788,4.83754 -5.5033,7.63535 l 7.1717,-29.12311 c 0.059,-0.23224 0.01,-0.48493 -0.1434,-0.67614 -0.148,-0.19121 -0.3756,-0.30051 -0.6191,-0.30051 h -6.6436 c -0.2321,0 -0.4415,0.0933 -0.5917,0.26864 0,0 -25.457,28.7361 -28.9051,32.63345 1.0151,-4.89442 6.6937,-31.95507 6.6937,-31.95507 0,-0.0523 0.014,-0.11154 0.014,-0.16163 0,-0.1753 -0.055,-0.35512 -0.1752,-0.49628 -0.1503,-0.18209 -0.3756,-0.28911 -0.61,-0.28911 h -7.3401 c -0.2322,0 -0.4483,0.10018 -0.5963,0.26864 l -36.6616,42.34494 c -0.6145,-6.1647 -3.5482,-12.8781 -3.5482,-12.8781 -4.9139,-10.06888 -15.8455,-13.33111 -22.0453,-7.55562 l -0.043,0.009 -0.9719,0.70567 c 4.4974,-7.17776 15.9069,-6.85902 23.2538,1.59358 0,0 3.2638,3.92466 5.5807,9.76387 0.6168,-2.06252 0.9946,-4.19787 1.1084,-6.38103 -3.8236,-5.17674 -8.1344,-8.21586 -8.1344,-8.21586 -9.2792,-6.26032 -20.3882,-3.61502 -22.8714,4.4847 l -0.032,0.034 -0.4802,1.09498 c 0.3027,-8.47079 10.3398,-13.89568 20.9231,-10.25103 0,0 4.9821,1.82805 10.0121,5.88247 -0.068,-0.32325 -0.1365,-0.64651 -0.2253,-0.96977 -0.544,-2.1399 -1.3315,-4.17055 -2.3488,-6.06004 -5.8675,-2.54056 -11.0659,-3.01405 -11.0659,-3.01405 -11.1705,-0.77628 -19.4619,7.05712 -17.5638,15.31847 l -0.014,0.0433 0.1252,1.19289 c -3.967,-7.48963 2.0097,-17.19889 12.9959,-19.34331 0,0 5.1005,-0.88558 11.3731,0.0501 -1.5909,-1.68004 -3.4072,-3.15297 -5.4214,-4.3959 -6.2886,0.73758 -10.9793,2.91391 -10.9793,2.91391 -10.0553,4.90809 -13.3237,15.8466 -7.5495,22.05232 l 0.01,0.0363 0.7101,0.97889 c -7.1807,-4.50289 -6.8553,-15.91266 1.5886,-23.25661 0,0 3.9466,-3.29181 9.8163,-5.62065 -2.4216,-0.72619 -4.932,-1.09498 -7.4652,-1.11321 -4.907,3.73572 -7.7725,7.7947 -7.7725,7.7947 -6.2566,9.28581 -3.6165,20.38823 4.4815,22.87646 l 0.03,0.0274 1.1016,0.48945 c -8.4667,-0.30507 -13.8904,-10.34438 -10.2465,-20.93233 0,0 1.6774,-4.56437 5.3782,-9.36321 -2.119,0.54865 -4.1241,1.34995 -6.0041,2.35847 -2.3898,5.7026 -2.8359,10.66534 -2.8359,10.66534 -0.7806,11.17526 7.0579,19.46852 15.3174,17.57219 l 0.036,0.0112 1.2017,-0.13427 c -7.4902,3.97702 -17.2065,-2.00559 -19.339,-12.99875 0,0 -0.8558,-4.91042 0,-11.02963 -1.7844,1.69144 -3.3457,3.6333 -4.6385,5.80051 0.8012,6.03042 2.8473,10.46047 2.8473,10.46047 4.9092,10.06437 15.8408,13.32884 22.0429,7.55112 l 0.046,-0.009 0.9696,-0.70344 c -4.4928,7.17777 -15.9069,6.85907 -23.247,-1.59353 0,0 -3.7645,-4.70549 -5.7309,-10.18275 0,-0.25726 -0.075,-0.50311 -0.2344,-0.69888 -0.2026,-0.23675 -0.4985,-0.37791 -0.8171,-0.37791 h -5.451 c -0.5007,0 -0.9309,0.34833 -1.0356,0.83549 0,0 -0.4188,0.63516 -0.6122,1.88949 -1.2108,-1.08591 -2.6448,-1.71419 -3.9557,-2.28102 l -0.5531,-0.2368 c -0.064,-0.0251 -0.1342,-0.05 -0.198,-0.0637 -5.9244,-1.30214 -11.8761,0.48489 -16.7558,5.02419 -2.8814,2.65442 -4.9525,5.80051 -6.127,9.20158 0,0 -0.036,0.0865 -0.1001,0.22312 l 2.3192,-13.36303 c 0.05,-0.30274 -0.034,-0.61916 -0.2344,-0.85595 -0.2048,-0.23674 -0.5007,-0.37563 -0.8102,-0.37335 l -5.8174,0.007 c -0.5099,0.005 -0.9446,0.36651 -1.0379,0.8719 l -6.0108,32.790551 c -0.052,0.307325 0.032,0.623758 0.2321,0.867344 0.198,0.236753 0.4961,0.371065 0.8079,0.371065 l 6.1316,0.01595 c 0.5189,0 0.9582,-0.371066 1.0424,-0.878726 l 2.3169,-13.340224 c 0.025,0.0842 0.046,0.13888 0.046,0.13888 -0.02,1.32493 0.089,2.67033 0.3369,4.01345 0.9012,5.012829 5.3462,9.691001 10.1372,10.642573 4.1787,0.75807 8.6488,-0.302772 13.0596,-3.025465 -0.087,0.475795 -0.2253,1.195167 -0.2253,1.195167 -0.011,0.06146 -0.016,0.127484 -0.016,0.193502 0,0.243582 0.084,0.482615 0.2413,0.673842 0.198,0.239028 0.4961,0.371066 0.8171,0.371066 l 5.41,0.01595 c 0.5098,0 0.9491,-0.359684 1.0379,-0.860512 l 4.7636,-25.808553 c 3.5642,4.23428 8.2277,7.84935 8.2277,7.84935 9.2769,6.26488 20.3792,3.61962 22.8623,-4.47787 l 0.036,-0.034 0.4825,-1.09953 c -0.3028,8.47079 -10.3421,13.89795 -20.9278,10.24874 0,0 -4.5633,-1.67777 -9.3725,-5.37935 0.041,0.1753 0.075,0.3574 0.1207,0.53498 0.5712,2.2173 1.3974,4.31851 2.4671,6.27172 5.5944,2.30381 10.4195,2.7386 10.4195,2.7386 11.1637,0.78084 19.4574,-7.05711 17.5593,-15.31846 l 0.016,-0.0433 -0.132,-1.19744 c 3.9715,7.48963 -2.0075,17.21479 -12.9959,19.343307 0,0 -4.8024,0.840047 -10.8224,0.02744 1.4408,1.518419 3.0658,2.879768 4.8593,4.045349 6.2385,-0.753535 10.861,-2.904791 10.861,-2.904791 10.0598,-4.905865 13.3304,-15.846655 7.554,-22.045535 l -0.011,-0.0478 -0.7055,-0.96749 c 7.1807,4.49832 6.8598,15.90353 -1.5864,23.254324 0,0 -4.0285,3.346418 -9.9825,5.679832 1.6433,0.553186 3.3298,0.947019 5.039,1.172391 h 2.4354 c 5.0026,-3.77213 7.9204,-7.917618 7.9204,-7.917618 6.2635,-9.283539 3.6234,-20.392789 -4.4769,-22.874139 l -0.034,-0.034 -1.0948,-0.48493 c 8.469,0.30735 13.8927,10.34666 10.2488,20.93461 0,0 -1.8208,4.953628 -5.8561,9.977846 0.3254,-0.07285 0.6372,-0.138864 0.9582,-0.223093 2.0461,-0.519041 3.9716,-1.277111 5.7628,-2.201367 2.5036,-5.825526 2.9633,-10.972686 2.9633,-10.972686 0.7852,-11.16163 -7.0556,-19.46396 -15.3197,-17.56535 l -0.034,-0.009 -1.1949,0.12745 c 7.4834,-3.97019 17.2042,2.01014 19.3413,13.0033 0,0 1.2336,5.04698 0.3095,11.025071 -0.1775,0.86279 -0.5394,2.114837 -1.2358,3.448883 -0.2117,0.37107 -0.4757,0.810409 -0.7943,1.320344 0.01,-0.0068 0.01,-0.01367 0.01,-0.01367 0,0.01367 -0.016,0.02502 -0.025,0.04098 -0.01,0.01595 -0.01,0.01823 -0.01,0.02958 -0.1252,0.213991 -0.1525,0.48034 -0.046,0.719373 0.1252,0.280009 0.4074,0.459851 0.7192,0.453018 h 3.4049 c 1.7889,-0.0091 3.3275,-0.01819 5.3736,0.05236 0.2436,0.0047 0.4757,-0.100167 0.6327,-0.280009 0,0 26.3377,-31.49751 29.6015,-35.39942 -1.2495,6.45842 -4.791,23.06312 -7.3264,34.723304 -0.01,0.05463 -0.013,0.111544 -0.013,0.166181 0,0.179842 0.059,0.355135 0.1706,0.494 0.1502,0.191223 0.3779,0.295944 0.6236,0.295944 l 5.9882,-0.05236 c 0.2275,0 0.4438,-0.09789 0.5917,-0.273177 0,0 26.5494,-31.064952 29.9474,-35.032862 -1.4156,6.48117 -5.2916,22.86047 -8.0547,34.384062 -0.018,0.06147 -0.027,0.118377 -0.027,0.184396 0,0.170739 0.059,0.343749 0.1707,0.487167 0.1525,0.191228 0.3755,0.302777 0.6213,0.302777 h 7.0829 c 0.3619,0 0.6828,-0.24586 0.7693,-0.605549 l 3.0657,-12.438713 0.4257,-1.74837 c 0.013,0.49856 0.02,0.89465 0.02,0.89465 -0.014,1.32493 0.096,2.67033 0.3437,4.01349 0.8945,5.01279 5.3485,9.69099 10.1304,10.642562 4.1787,0.75807 8.6533,-0.302772 13.0642,-3.025447 -0.089,0.475777 -0.2253,1.195149 -0.2253,1.195149 -0.011,0.06146 -0.018,0.127484 -0.018,0.193502 0,0.243582 0.082,0.482615 0.2367,0.673842 0.2071,0.239028 0.5053,0.371066 0.8148,0.371066 l 5.4145,0.01595 c 0.5144,0 0.9492,-0.359684 1.0402,-0.860512 l 4.8888,-25.983842 1.1721,-7.00247 c 0,-0.25725 -0.075,-0.50311 -0.2458,-0.69888 z"
     id="Fill-2"
     style="fill:#ffffff;fill-opacity:1;fill-rule:evenodd;stroke:none;stroke-width:1"
     inkscape:label="path5" /></g><g
   id="g12"
   inkscape:label="ochsner sport"
   transform="translate(-594.90881,516.44466)"><rect
     style="fill:#000000;fill-opacity:1;fill-rule:evenodd;stroke-width:0.999985"
     id="rect1-3-0-8-3-2"
     width="450.00003"
     height="300"
     x="1514.8168"
     y="-206.44466"
     rx="20"
     ry="20"
     inkscape:label="rect6" /><g
     id="g6"
     transform="matrix(0.87500362,0,0,0.87500362,1564.8161,-106.78265)"
     style="stroke-width:1.14286"
     inkscape:label="ochsner"><path
       d="M 191.69015,52.72573 H 179.08586 V 32.35318 H 157.40037 V 52.72573 H 144.7195 V 1.22541 h 12.68087 v 20.05527 h 21.68549 V 1.22541 h 12.60429 z m 49.7169,-37.74719 C 239.49231,5.6019 231.34113,0.06565 220.12637,0.06565 c -12.07911,0 -20.37256,6.22553 -20.37256,16.22584 0,9.3766 6.45533,13.21699 13.8297,14.90192 l 10.76616,2.30861 c 3.6872,0.77682 4.75943,2.23199 4.75943,4.54059 0,3.15107 -2.84471,5.30649 -7.60413,5.30649 -5.15331,0 -8.84051,-2.3086 -10.15346,-7.61509 l -13.0638,2.53836 c 1.38952,10.06592 10.91931,15.60217 22.52796,15.60217 11.45546,0 21.215,-5.68942 21.215,-16.68534 0,-8.14027 -5.22988,-12.98724 -14.14698,-14.98947 l -10.67863,-2.37425 c -3.2386,-0.6893 -4.15765,-2.232 -4.15765,-4.31084 0,-2.92131 2.69154,-5.21896 6.91485,-5.21896 4.08107,0 8.07461,2.37426 8.99368,7.22122 z M 297.98409,1.22541 H 285.37981 V 31.97024 L 259.3178,1.22541 h -10.53638 v 51.50032 h 12.69179 V 22.89997 l 26.05107,29.82576 h 10.45981 z m 47.84595,40.58099 h -27.44059 v -9.68299 h 24.9788 V 21.81678 h -24.9788 v -9.68297 h 27.21083 V 1.22541 h -39.8917 v 51.50032 h 40.12146 z M 400,52.72573 383.85077,34.43202 c 8.30438,-1.84908 13.52334,-7.92146 13.52334,-16.37902 0,-10.06592 -7.37438,-16.82759 -18.51252,-16.82759 h -26.06198 v 51.50032 h 12.68084 v -17.681 h 3.6872 l 15.52559,17.681 z M 365.48045,24.43176 V 12.05722 h 11.99158 c 4.54062,0 7.46196,2.46176 7.46196,6.14896 0,3.76379 -2.92134,6.22558 -7.46196,6.22558 z m -239.95187,8.17305 c -1.40047,3.88415 -4.23423,6.89299 -7.92143,8.43569 -1.78341,0.74402 -3.75283,1.15979 -5.85353,1.15979 -2.11167,0 -4.08111,-0.41577 -5.8645,-1.15979 -3.6872,-1.5427 -6.520983,-4.55154 -7.92145,-8.43569 -0.623667,-1.71776 -0.973787,-3.61059 -0.973787,-5.63469 0,-2.06792 0.361067,-4.0045 1.006614,-5.76604 1.411426,-3.87319 4.234253,-6.88203 7.899543,-8.43568 1.77247,-0.75495 3.75286,-1.15978 5.85358,-1.15978 2.08976,0 4.07012,0.40483 5.84258,1.15978 3.66532,1.55365 6.48815,4.56249 7.91051,8.43568 l 11.56488,-4.79227 C 134.27063,9.80333 128.87662,4.5953 122.09304,1.93661 118.90915,0.68929 115.42986,0 111.75362,0 108.06642,0 104.5871,0.68929 101.4032,1.93661 94.619656,4.5953 89.236563,9.79238 86.424683,16.41181 c -1.36764,3.22768 -2.122614,6.80545 -2.122614,10.55831 0,3.72 0.744014,7.23213 2.100721,10.42696 2.790026,6.61944 8.18404,11.82746 15.00041,14.47524 3.1839,1.23636 6.66322,1.92565 10.35042,1.92565 3.67624,0 7.15553,-0.68929 10.33942,-1.92565 6.8164,-2.64778 12.21042,-7.8558 15.00042,-14.47524 z M 75.855469,62.4087 c 11.608627,0 18.917374,7.14462 18.917374,17.75761 0,10.8318 -7.538507,17.9874 -19.453507,17.9874 H 63.174602 v 15.7553 H 50.493708 V 62.4087 Z m -1.455187,25.13201 c 4.923547,0 7.921427,-2.8447 7.921427,-7.2212 0,-4.1468 -2.99788,-7.06806 -7.921427,-7.06806 h -11.22568 v 14.28926 z m 81.008778,0.6893 c 0,15.0004 -12.06816,26.8278 -27.44056,26.8278 -15.37242,0 -27.4406,-11.8274 -27.4406,-26.8278 0,-15.05514 12.06818,-26.97013 27.4406,-26.97013 15.3724,0 27.44056,11.91499 27.44056,26.97013 m -12.68087,0 c 0,-8.8296 -6.37872,-15.37244 -14.75969,-15.37244 -8.38099,0 -14.75971,6.54284 -14.75971,15.37244 0,8.7639 6.37872,15.2301 14.75971,15.2301 8.38097,0 14.75969,-6.4662 14.75969,-15.2301 M 211.81103,62.4087 v 11.07251 h 16.67444 v 40.4278 h 12.6152 v -40.4278 h 16.67445 V 62.4087 Z M 43.119335,76.17271 C 41.204641,66.7852 33.053414,61.25988 21.827734,61.25988 c -12.068187,0 -20.3725606,6.22556 -20.3725606,16.21493 0,9.3766 6.4662535,13.217 13.8406536,14.9128 l 10.766161,2.3086 c 3.687173,0.7659 4.759413,2.2211 4.759413,4.5297 0,3.1511 -2.844707,5.3065 -7.604147,5.3065 -5.153293,0 -8.840494,-2.3086 -10.15344,-7.6151 L 0,99.45571 c 1.3786,10.0768 10.919347,15.6021 22.517027,15.6021 11.455441,0 21.215014,-5.6894 21.215014,-16.6744 0,-8.1512 -5.229906,-12.9872 -14.136067,-14.9894 l -10.689547,-2.3852 c -3.22768,-0.6893 -4.146733,-2.232 -4.146733,-4.2999 0,-2.92134 2.691547,-5.22994 6.914853,-5.22994 4.070121,0 8.074614,2.38519 8.993694,7.22124 z m 150.562125,37.7363 -15.5256,-17.681 h -3.69815 v 17.681 H 161.77685 V 62.4087 h 26.062 c 11.13814,0 18.52348,6.76167 18.52348,16.83851 0,8.4576 -5.22992,14.53 -13.52336,16.3681 l 16.13829,18.2937 z m -7.23217,-28.283 c 4.54062,0 7.46193,-2.4618 7.46193,-6.2256 0,-3.6981 -2.92131,-6.14896 -7.46193,-6.14896 H 174.45771 V 85.62601 Z M 69.761216,7.63696 61.205175,16.18205 c 2.5274,2.72437 4.048241,6.48816 4.048241,10.78807 0,8.76389 -6.378721,15.23017 -14.759708,15.23017 -8.380973,0 -14.759693,-6.46628 -14.759693,-15.23017 0,-8.82959 6.37872,-15.3615 14.759693,-15.3615 0,-1.45517 0,-9.48604 0,-11.60862 -15.3724,0 -27.440561,11.915 -27.440561,26.97012 0,15.00038 12.068161,26.82785 27.440561,26.82785 15.372414,0 27.440601,-11.82747 27.440601,-26.82785 0,-7.637 -3.10732,-14.46432 -8.173093,-19.33316"
       fill="#e90523"
       id="path1-8"
       style="fill:#ffffff;fill-opacity:1;stroke-width:1.14286"
       inkscape:label="path6-1" /><path
       d="m 50.493708,11.60862 c 4.28896,0 8.063694,1.71778 10.711467,4.57343 L 69.761216,7.63696 C 64.837669,2.88848 58.065055,0 50.493708,0 Z"
       id="path2-6"
       style="fill:#e40622;fill-opacity:1;stroke-width:1.14286"
       inkscape:label="path6-2" /></g></g><g
   id="g857"
   style="display:inline;stroke-width:0.478088"
   inkscape:label="rega"
   transform="matrix(2.7888881,0,0,-2.7888881,-1165.3612,2875.9871)"><rect
     style="display:inline;fill:#ffffff;fill-opacity:1;fill-rule:evenodd;stroke-width:0.35856"
     id="rect1-3-0-8-3-2-5"
     width="161.35464"
     height="107.56976"
     x="417.8587"
     y="-808.91992"
     rx="7.1713166"
     ry="7.1713166"
     inkscape:label="rect7"
     transform="scale(1,-1)" /><g
     id="g116"
     transform="translate(484.5114,758.1003)"
     style="stroke-width:0.478088"
     inkscape:label="rega"><path
       id="path102"
       style="display:inline;fill:#c6c6c7;fill-opacity:1;fill-rule:nonzero;stroke:none;stroke-width:0.478088"
       d="m 0,0 h -14.924 l 4.586,12.577 h 7.509 l 4.601,12.572 h -7.527 l 4.59,12.584 H 13.754 L 9.16,25.154 H 21.763 L 17.175,12.572 H 4.565 Z"
       transform="translate(43.5495,-24.479198)"
       inkscape:label="path7-3" /><path
       id="path106"
       style="display:inline;fill:#e3000b;fill-opacity:1;fill-rule:nonzero;stroke:none;stroke-width:0.478088"
       d="m 0,0 h -12.602 l 4.593,12.58 h -14.919 l -4.591,-12.585 h 12.614 l -4.601,-12.569 h -12.595 l -4.585,-12.581 h 14.923 l 4.565,12.576 h 12.61 z"
       transform="translate(61.940801,5.9686994)"
       inkscape:label="path7-2" /><path
       id="path118"
       style="fill:#181716;fill-opacity:1;fill-rule:nonzero;stroke:none;stroke-width:0.478088"
       d="m -24.76176,5.1215744 c -0.466312,-0.00253 -0.943336,-0.041319 -0.943336,-0.041319 -1.619999,-0.1439999 -2.81435,-0.6491589 -3.780349,-2.0701575 h -0.04832 l 0.589673,1.7900279 h -4.575216 L -37.26324,-5.458919 h 4.657854 l 1.429361,3.9281167 c 0.641,1.96299806 1.761643,3.2193987 4.195641,3.2403987 0.16,0 0.924336,-0.062967 1.158336,-0.144967 l 1.504996,3.5450396 c -0.135,0.01 -0.289269,0.012749 -0.444706,0.011906 z M -2.1728125,5.1082684 C -5.8758088,5.1112684 -8.1771924,3.1747929 -9.2621914,0.19479592 -10.25719,-2.5442013 -9.160135,-5.098858 -5.9041382,-5.110858 c 1.5679984,-0.006 3.4069208,0.3338866 4.5829196,1.4818854 h 0.049023 l -0.4166927,-1.0098671 c -0.5489994,-1.5099984 -1.3269671,-2.6514263 -3.3839651,-2.6514263 -0.4919995,0 -0.8328247,0.052309 -1.1338244,0.2353089 -0.5389994,0.3799996 -0.2990383,1.0869027 -0.2990383,1.0869027 l -4.4722689,-0.123257 c 0,0 -0.270733,-0.7516741 0.144267,-1.6716732 0.332999,-0.7359993 1.3756944,-1.7802234 4.9526908,-1.7802234 1.9249981,0 4.2016933,0.3409583 5.81969168,1.4209572 C 1.7576623,-6.9022522 2.47907,-5.7850547 3.1930693,-4.0260564 L 6.4040544,4.8001257 H 1.8687568 L 1.2237584,3.3476539 H 1.1740354 C 0.72503589,4.5226528 -0.45781421,5.1062682 -2.1728125,5.1082684 Z M -16.39429,5.1075679 c -3.881996,0 -7.205018,-1.6107557 -8.469017,-5.08575218 -1.474998,-4.05499592 0.691617,-5.78607612 4.784613,-5.78607612 1.446999,0 2.986378,0.2290702 4.273376,0.7990696 1.246999,0.5129995 2.392811,1.3095484 3.04781,2.4805473 0.031,0.054 0.06034,0.1015729 0.09034,0.1575728 l -4.179533,0.2037943 c -0.458,-0.947999 -1.287767,-1.4670711 -2.734765,-1.4510711 -1.732998,0.02 -1.727602,1.3551445 -1.302603,2.4721434 h 8.732339 c 1.460999,3.5299964 0.408433,6.209772 -4.242562,6.209772 z m 32.418694,0 c -1.371999,0 -2.960746,-0.057947 -4.419744,-0.5329465 C 9.1436621,3.7826222 8.6485925,1.8853776 8.6485925,1.8853776 l 4.2250545,-0.096645 c 0.205999,0.7309993 0.889738,1.4797029 2.026737,1.5197029 1.885998,0.061 1.120186,-1.3856922 0.836187,-2.1436915 H 14.26589 c -4.019995,0 -6.8750808,-0.66227755 -7.9570797,-3.189275 -0.4429996,-1.029999 -0.3102543,-1.9875799 0.3137451,-2.7655791 0.4679995,-0.5819994 1.4503522,-0.9958606 2.9203507,-0.9958606 2.3049979,0 3.4636869,0.9854946 4.2936859,1.7164939 h 0.05042 l -0.408289,-1.390143 h 4.23696 l 2.48685,6.8316597 c 0.887999,2.3139977 -1.327135,3.7355277 -4.178132,3.7355277 z m -32.8641,-1.9391969 c 0.573384,-0.029435 0.935719,-0.2776782 1.121219,-0.6548028 0.210999,-0.4299996 0.205902,-0.9799086 0.0049,-1.53090809 h -4.314696 c 0.521,1.30699869 1.290157,2.12301069 2.930155,2.18501059 0.09062,0.005 0.176508,0.00491 0.25842,7.003e-4 z M -1.2890037,2.8623295 c 1.91299806,0 1.74929582,-1.5932251 1.289296281,-2.8622238222 C -0.46070696,-1.2668931 -1.4590686,-2.8579162 -3.3710667,-2.8579162 c -1.9129981,0 -1.9066246,1.5766452 -1.3516251,2.9056439 0.5199995,1.2439988 1.52269,2.8146018 3.4336881,2.8146018 z M 14.540417,-0.55945312 c 0.180149,-5.6445e-4 0.368212,-0.004468 0.564462,-0.0119055 -0.5,-1.50499848 -1.18318,-2.93995978 -3.194178,-2.93995978 -0.882999,0 -1.43827,0.6067301 -1.23327,1.3607294 0.233437,0.8559366 1.160759,1.59960268 3.862986,1.59113588 z"
       inkscape:label="path7-1" /></g></g><g
   id="g13"
   inkscape:label="lehner versand"
   transform="translate(-577.08813,477.76132)"><rect
     style="fill:#f0dbec;fill-opacity:1;fill-rule:evenodd;stroke-width:0.999985"
     id="rect1-3-0-8-3-2-5-9"
     width="450.00003"
     height="300"
     x="1037.5024"
     y="142.23868"
     rx="20"
     ry="20"
     inkscape:label="rect8" /><g
     style="display:inline;fill:none;stroke-width:0.462911"
     id="g5"
     transform="matrix(2.1602432,0,0,2.1602432,1111.2857,232.23906)"
     inkscape:label="lehner"><path
       d="m 140,3.24382 c 0,1.78778 -1.456,3.2438 -3.243,3.2438 -1.788,0 -3.244,-1.45602 -3.244,-3.2438 C 133.513,1.45603 134.969,0 136.757,0 138.544,0 140,1.45603 140,3.24382 Z"
       fill="#e30613"
       id="path14"
       style="stroke-width:0.462911"
       inkscape:label="path8-4" /><path
       d="m 139.134,2.52511 h -1.622 -0.018 V 0.884766 h -1.456 V 2.52511 h -1.641 v 1.45602 h 1.641 v 1.64034 h 1.456 V 3.99957 3.98113 h 1.64 z"
       fill="#ffffff"
       id="path15"
       style="stroke-width:0.462911"
       inkscape:label="path8-3" /><path
       id="path1-7"
       style="display:inline;fill:#e8a9d8;fill-opacity:1;stroke-width:0.462911"
       d="m 65.557688,31.810294 c -0.589799,0 -1.216638,0.03709 -1.806437,0.12929 -1.769398,0.257999 -2.782989,0.88421 -3.593888,1.603009 -0.1659,0.1291 -0.497112,0.424068 -0.792012,0.848067 -0.442399,0.5897 -0.95837,1.677105 -0.95837,3.114703 0,1.953698 0.847749,3.170291 1.677148,4.054991 0.2212,0.202799 0.423899,0.423877 0.810998,0.718777 0.258,0.1843 0.516099,0.350623 0.810998,0.553323 0.2949,0.2028 0.626502,0.386789 0.921301,0.589488 l 1.382404,0.792012 c 0.4792,0.2949 0.976756,0.589967 1.437555,0.848067 1.234899,0.755599 1.640402,1.032148 2.193402,1.677148 0.921499,1.050599 0.921301,2.101315 0.921301,2.525214 0,1.419099 -0.553181,2.19326 -1.17988,2.819959 -0.847799,0.847799 -2.008437,1.437555 -3.998935,1.437555 -1.898398,0 -3.317317,-0.589756 -5.178815,-1.437555 l -0.295648,2.285623 c 1.640298,0.626599 2.285571,0.866459 3.96277,1.087659 0.589799,0.0553 1.179399,0.09132 1.732299,0.09132 2.008998,0 3.539153,-0.644208 4.331652,-1.141907 0.921499,-0.5897 1.861892,-1.566647 2.322691,-2.488146 0.4608,-0.884699 0.662722,-2.101788 0.662722,-3.023387 0,-0.386999 10e-7,-1.640311 -0.810998,-2.87511 -0.2396,-0.3502 -0.57137,-0.718642 -0.95837,-1.105742 -0.755699,-0.718799 -1.068778,-0.8845 -2.451077,-1.732299 -0.792499,-0.4792 -1.566357,-0.939956 -2.358856,-1.437555 -0.3686,-0.2027 -0.718791,-0.423858 -1.050591,-0.626557 -0.571299,-0.3502 -2.064394,-1.272327 -2.432994,-2.746725 -0.0922,-0.4055 -0.09222,-0.792302 -0.09222,-0.921301 0,-1.050599 0.369016,-1.603482 0.792915,-2.101182 0.810999,-0.958399 1.879289,-1.547858 4.054087,-1.547858 2.174797,0 3.484142,0.682012 4.460941,1.142811 h 0.01808 l 0.386964,-2.156332 c -0.866299,-0.2949 -2.654142,-0.977357 -4.92114,-0.977357 z m -25.433877,0.223318 v 23.148255 h 2.230471 V 44.474341 h 2.027043 c 0.903099,0 1.180135,0.07352 1.696135,0.202524 0.221199,0.0369 0.589176,0.07339 1.178976,0.589488 0.552899,0.460699 0.84808,1.013648 1.17988,1.677147 0.497599,1.013699 0.847566,1.97245 1.308265,2.949249 0.3686,0.884699 0.792881,1.769001 1.179881,2.6536 0.387099,0.884699 0.774211,1.806874 1.142811,2.691573 l 2.488146,0.03617 v -0.01808 l -2.064113,-4.626396 c -0.423899,-0.995199 -0.84847,-2.008514 -1.309169,-2.985413 -0.3318,-0.7556 -0.699656,-1.493024 -1.086756,-2.285623 -0.737199,-1.345398 -1.640651,-1.566378 -2.13825,-1.640078 -0.129,-0.0184 -0.295034,-0.05515 -0.424034,-0.05515 0.3318,-0.0737 1.769035,-0.23986 3.077634,-1.08766 0.3686,-0.257999 0.75586,-0.607852 1.08766,-0.976452 1.216398,-1.511399 1.142811,-2.949652 1.142811,-3.410351 0,-2.266998 -0.977179,-3.741359 -1.990878,-4.552258 -0.1659,-0.1659 -0.588995,-0.423419 -0.810094,-0.552419 -1.142699,-0.645099 -2.359985,-0.940726 -4.645383,-1.014426 -1.732498,-0.0369 -3.501637,-0.03617 -5.271036,-0.03617 z m 42.076969,0.03707 -9.43633,23.148255 h 2.230471 l 2.580367,-6.247488 h 11.721951 l 2.56138,6.229405 2.322691,0.03707 -9.326026,-23.149158 v -0.01808 z m 14.154945,0 v 23.148255 h 2.156333 c 0,-4.220596 0.03707,-8.440908 0.03707,-12.698404 0,-1.769298 -3.38e-4,-3.538806 -0.07414,-5.308105 -0.0368,-0.976799 -0.128724,-1.972449 -0.202524,-2.949248 l 0.681709,1.474624 c 0.386999,0.755699 0.811232,1.511672 1.235037,2.230471 0.369,0.681999 0.75588,1.382213 1.17988,2.064112 0.35,0.5898 0.7549,1.216638 1.1419,1.806437 0.498,0.8294 0.97663,1.603426 1.47463,2.395926 0.792,1.271698 1.56676,2.524712 2.35976,3.796411 1.474,2.432898 2.94897,4.810765 4.42297,7.206762 H 113.478 V 32.088764 h -2.15724 c 0.037,4.810495 0,9.694615 0,14.54191 0,0.939999 7e-5,1.825057 0.0371,2.709656 0.037,1.290198 0.11136,2.561046 0.16636,3.869645 -0.295,-0.645099 -0.5903,-1.326475 -0.9213,-1.989974 l -0.79291,-1.474624 c -0.534,-0.958399 -1.08708,-1.89846 -1.64008,-2.819959 -0.922,-1.511299 -1.82473,-2.985639 -2.74673,-4.460038 -2.119,-3.428196 -4.27635,-6.91162 -6.413845,-10.376616 l 0.03707,-0.01808 z m -96.3198118,0.01356 8.736538,23.149159 H 11.131307 L 19.812694,32.120408 H 17.619292 L 9.9523314,52.781421 2.3947694,32.084243 Z m 23.2043098,0 v 23.149159 h 11.703869 l 0.01808,-1.917645 H 25.470691 V 44.21124 h 8.643413 l 0.03707,-1.934822 h -8.644318 v -8.220284 h 9.142489 v -1.971892 z m 98.245597,0.03707 c -0.95825,-0.0069 -1.91666,0.0027 -2.88415,0.0027 v 23.07502 c 1.51099,0.0369 3.04125,0.07387 4.55225,0.03707 3.668,-0.0553 8.68128,-0.128961 11.46428,-5.363256 1.456,-2.709297 1.51079,-5.363693 1.51079,-6.248392 0,-3.280697 -1.14211,-5.676485 -2.06411,-6.948183 -0.295,-0.3686 -0.55329,-0.663491 -0.94029,-1.050591 -0.59,-0.589699 -1.08625,-0.995304 -1.67624,-1.382404 -1.677,-1.050499 -3.53939,-1.824343 -7.07838,-2.027043 -0.9675,-0.06455 -1.9259,-0.08802 -2.88415,-0.09493 z m -77.283511,1.860685 c 1.650148,-8.77e-4 2.787495,0.07887 3.644519,0.35532 1.124299,0.3318 2.13748,1.179088 2.56138,2.321787 0.184299,0.5529 0.22151,1.124135 0.22151,1.345335 0,1.290099 -0.626691,2.230139 -1.050591,2.727738 -0.2765,0.3318 -0.663916,0.645078 -0.792916,0.718778 -1.197998,0.884699 -2.653733,1.050859 -3.888632,1.087659 -0.847799,0.0369 -1.677146,0 -2.488145,0 v -0.01808 l -0.03707,-8.515028 c 0.672724,-0.01383 1.279895,-0.02322 1.829944,-0.02351 z m 78.401001,0.0877 c 1.51635,0.01674 3.70484,0.162573 5.48984,0.819135 1.54899,0.552899 2.48841,1.40052 2.98541,1.82452 0.516,0.534399 0.88549,0.958045 1.05149,1.216045 1.64,2.322297 1.69523,5.142169 1.69523,5.695069 0,1.935198 -0.58947,4.810192 -2.23047,6.708591 -2.17399,2.617097 -5.10439,2.893948 -7.38939,2.949248 -1.106,0.0369 -2.23129,0.03707 -3.37328,0.03707 V 34.095916 c 0.1935,0 0.86136,-0.03627 1.77117,-0.02622 z m -39.148512,0.120248 5.061279,12.845776 H 78.404368 c 0.4976,-1.271699 1.014094,-2.506044 1.511693,-3.759342 0.5898,-1.400699 1.1794,-2.765082 1.7323,-4.18428 0.626599,-1.621899 1.216637,-3.261856 1.806437,-4.902154 z"
       inkscape:label="path8-2" /><path
       id="path8-5"
       style="display:inline;fill:#cb409b;fill-opacity:1;stroke-width:0.462911"
       d="m 35.258727,2.3964689 c -0.3686,0.01844 -0.903197,0.037069 -1.621996,0.037069 -0.7188,0.01843 -1.529578,0.037069 -2.451077,0.037069 h -2.931166 -3.059551 -1.916741 -1.640078 c -0.2212,0 -0.349896,0.1466597 -0.349896,0.4231294 0,0.2211598 0.147217,0.3507996 0.442116,0.3507996 h 0.479185 c 0.4424,0 0.737319,0.1287257 0.903219,0.3498955 0.1659,0.2395998 0.239593,0.7001168 0.239593,1.4004861 V 23.554749 c 0,0.7004 -0.07369,1.180291 -0.239593,1.40139 -0.1659,0.2396 -0.460819,0.349896 -0.903219,0.349896 h -0.516254 c -0.276399,0 -0.424033,0.147634 -0.424033,0.424034 0,0.221199 0.147634,0.349895 0.424033,0.349895 h 1.235032 2.432994 3.225006 c 1.161099,0.0184 2.267632,0.03675 3.318131,0.05515 1.068998,0.0184 2.008959,0.03707 2.819958,0.03707 h 1.677148 c 0.1475,0 0.221193,-0.05549 0.239593,-0.12929 0.147499,-0.4792 0.294885,-0.995445 0.479185,-1.566845 0.165899,-0.552899 0.34955,-1.123613 0.51535,-1.713312 0.165899,-0.5714 0.332271,-1.142648 0.498171,-1.677148 l 0.05515,-0.07414 c 0.1659,-0.534399 0.295033,-1.013556 0.424033,-1.437555 0.1106,-0.4239 0.05516,-0.663578 -0.184441,-0.718778 -0.2581,-0.0553 -0.460757,0.09233 -0.626557,0.424034 -0.552999,1.068999 -1.051063,1.97187 -1.548762,2.690669 -0.4976,0.718799 -1.013359,1.290317 -1.547858,1.714217 -0.5345,0.423899 -1.124269,0.718919 -1.769368,0.903218 -0.645,0.1843 -1.363685,0.276662 -2.211485,0.276662 h -1.455637 c -0.4239,0 -0.79276,-0.01867 -1.08766,-0.03707 -0.2765,-0.0184 -0.479892,-0.129431 -0.590392,-0.313731 -0.1106,-0.184299 -0.165455,-0.423291 -0.165455,-0.699791 v -9.10542 h 1.142812 c 0.608299,0 1.105876,0.110614 1.529775,0.331813 0.4239,0.2212 0.755205,0.516119 1.031604,0.903219 0.2765,0.387 0.461393,0.829335 0.590392,1.345335 0.1106,0.534499 0.202793,1.087517 0.239593,1.714216 0.0185,0.2764 0.07367,0.461223 0.147372,0.553323 0.0737,0.0922 0.202713,0.128386 0.331813,0.128386 0.129,0 0.239027,-0.05469 0.312827,-0.128386 0.0737,-0.0921 0.111207,-0.258254 0.111207,-0.516254 V 18.413003 17.343426 15.94294 14.395082 12.643796 11.095938 9.9350443 9.3998036 c 0,-0.3870496 -0.147634,-0.5714055 -0.424034,-0.5714055 -0.3134,0 -0.479185,0.166631 -0.479185,0.5352406 0,0.4607696 -0.05544,0.9399553 -0.184441,1.4375553 -0.129,0.497599 -0.313088,0.958504 -0.589488,1.382404 -0.2765,0.423899 -0.626691,0.755204 -1.050591,1.031604 -0.423899,0.276499 -0.940145,0.405951 -1.566844,0.405951 h -1.14281 V 3.834024 c 0,-0.1474498 0.09204,-0.2211625 0.294744,-0.2395925 0.2212,-0.03687 0.460778,-0.037069 0.718778,-0.037069 h 1.069577 c 0.810999,0 1.492982,0.092352 2.101182,0.2766615 0.608199,0.1658699 1.141892,0.442041 1.621092,0.8290806 0.479199,0.3870496 0.922339,0.8667523 1.346238,1.4565417 0.4055,0.5897794 0.847466,1.3088711 1.308266,2.1382503 0.0922,0.1843098 0.184562,0.3309795 0.276662,0.4231295 0.0922,0.09215 0.202495,0.1290804 0.349895,0.09222 0.1659,-0.03686 0.257675,-0.1103736 0.257675,-0.2025235 0,-0.09215 -0.01825,-0.2210947 -0.05515,-0.3869646 C 36.640665,7.8151389 36.548303,7.3908574 36.437703,6.9116579 36.327103,6.4508883 36.21639,5.9720797 36.10589,5.4560202 35.99529,4.9399608 35.884677,4.4419565 35.774077,3.944327 35.663477,3.4466975 35.572019,2.9861805 35.498319,2.5438409 c -0.0368,-0.09215 -0.110592,-0.147372 -0.239592,-0.147372 z m 72.321683,0 c -0.369,0.01844 -0.903,0.037069 -1.622,0.037069 -0.719,0.01843 -1.53007,0.037069 -2.45107,0.037069 h -2.93117 -3.059551 -1.91674 -1.640079 c -0.2212,0 -0.3508,0.1466597 -0.3508,0.4231294 0,0.2211598 0.148121,0.3507996 0.44302,0.3507996 h 0.479185 c 0.4423,0 0.736415,0.1287257 0.902315,0.3498955 0.1659,0.2395998 0.239592,0.7001168 0.239592,1.4004861 V 23.554749 c 0,0.7004 -0.07369,1.180291 -0.239592,1.40139 -0.1659,0.2396 -0.460015,0.349896 -0.902315,0.349896 h -0.516254 c -0.276499,0 -0.424033,0.147634 -0.424033,0.424034 0,0.221199 0.147534,0.349895 0.424033,0.349895 h 1.235032 2.43209 3.225907 c 1.161,0.0184 2.26723,0.03675 3.31723,0.05515 1.069,0.0184 2.00896,0.03707 2.81996,0.03707 h 1.67805 c 0.147,0 0.22069,-0.05549 0.23869,-0.12929 0.148,-0.4792 0.29518,-0.995445 0.47918,-1.566845 0.166,-0.552899 0.35026,-1.123613 0.51626,-1.713312 0.166,-0.5714 0.33127,-1.142648 0.49727,-1.677148 l 0.0371,-0.07414 c 0.166,-0.534399 0.31304,-1.013556 0.42404,-1.437555 0.11,-0.4239 0.0555,-0.663578 -0.18354,-0.718778 -0.259,-0.0553 -0.46146,0.09233 -0.62746,0.424034 -0.553,1.068999 -1.05086,1.97187 -1.54786,2.690669 -0.498,0.718799 -1.01376,1.290317 -1.54876,1.714217 -0.534,0.423899 -1.12437,0.718919 -1.76937,0.903218 -0.645,0.1843 -1.36348,0.276662 -2.21148,0.276662 h -1.45654 c -0.424,0 -0.79176,-0.01867 -1.08676,-0.03707 -0.276,-0.0184 -0.47869,-0.129431 -0.589488,-0.313731 -0.1106,-0.184299 -0.166359,-0.423291 -0.166359,-0.699791 v -9.10542 h 1.142807 c 0.608,0 1.10578,0.110614 1.52978,0.331813 0.424,0.2212 0.75551,0.516119 1.03251,0.903219 0.276,0.387 0.46049,0.829335 0.58949,1.345335 0.11,0.534499 0.20259,1.087517 0.23959,1.714216 0.019,0.2764 0.0734,0.461223 0.14737,0.553323 0.073,0.0922 0.20272,0.128386 0.33272,0.128386 0.129,0 0.23882,-0.05469 0.31282,-0.128386 0.074,-0.0921 0.1094,-0.258254 0.1094,-0.516254 V 18.413003 17.343426 15.94294 14.395082 12.643796 11.095938 9.9350443 9.3998036 c 0,-0.3870496 -0.14622,-0.5714055 -0.42222,-0.5714055 -0.314,0 -0.48009,0.166631 -0.48009,0.5352406 0,0.4607696 -0.0554,0.9399553 -0.18444,1.4375553 -0.129,0.497599 -0.31249,0.958504 -0.58949,1.382404 -0.276,0.423899 -0.62659,0.755204 -1.05059,1.031604 -0.424,0.276499 -0.93985,0.405951 -1.56685,0.405951 H 99.728103 V 3.834024 c 0,-0.1474498 0.09224,-0.2211625 0.294747,-0.2395925 0.221,-0.03687 0.46077,-0.037069 0.71877,-0.037069 h 1.08766 c 0.811,0 1.49309,0.092352 2.10209,0.2766615 0.608,0.1658699 1.14119,0.442041 1.62019,0.8290806 0.48,0.3870496 0.92224,0.8667523 1.34624,1.4565417 0.405,0.5897794 0.84817,1.3088711 1.30917,2.1382503 0.092,0.1843098 0.18375,0.3309795 0.27575,0.4231295 0.092,0.09215 0.2029,0.1290804 0.3499,0.09222 0.166,-0.03686 0.25858,-0.1103736 0.25858,-0.2025235 0,-0.09215 -0.0182,-0.2210947 -0.0551,-0.3869646 -0.074,-0.3686196 -0.16567,-0.7929011 -0.27667,-1.2721006 -0.10999,-0.4607696 -0.22181,-0.9395782 -0.33181,-1.4556377 -0.111,-0.5160594 -0.22081,-1.0140637 -0.33181,-1.5116932 -0.111,-0.4976295 -0.20266,-0.9581465 -0.27666,-1.4004861 -0.036,-0.09215 -0.10969,-0.147372 -0.23869,-0.147372 z m -25.452864,0.07233 c -0.2764,0 -0.424034,0.1289348 -0.424034,0.3869645 0,0.2580298 0.14812,0.3869646 0.44302,0.3869646 0.829399,0 1.400748,0.2584262 1.677148,0.7929156 0.2765,0.5344895 0.424033,1.3635294 0.424033,2.5062283 V 17.766555 C 84.008114,17.379456 83.639402,16.7891 83.104902,15.978201 82.588903,15.167201 81.980047,14.246079 81.316547,13.23238 80.634648,12.218681 79.934483,11.149655 79.197284,10.025457 78.460085,8.9011477 77.759284,7.8508612 77.114185,6.8556022 76.469086,5.8787732 75.898472,4.9938262 75.400872,4.2381669 74.903273,3.4825077 74.570747,2.9481295 74.386447,2.6532397 c -0.0368,-0.05529 -0.0918,-0.092429 -0.110303,-0.1292895 -0.0184,-0.03686 -0.09234,-0.037069 -0.184441,-0.037069 h -0.275758 -0.608474 -0.848067 -0.99544 -1.732299 -0.903218 c -0.2765,0 -0.424034,0.1475738 -0.424034,0.4240335 0,0.2395998 0.147534,0.3688821 0.424034,0.3688821 0.423899,0 0.737001,0.073861 0.921301,0.184441 0.184299,0.1105899 0.387861,0.3499489 0.627461,0.6817086 0.1659,0.2395998 0.349719,0.5160984 0.552419,0.8109981 0.2027,0.3133197 0.405775,0.6083289 0.608474,0.9032186 V 22.11629 c 0,1.142699 -0.147802,1.953477 -0.461102,2.451077 -0.2949,0.497599 -0.682112,0.755846 -1.142811,0.755846 h -0.51535 c -0.2765,0 -0.424034,0.147534 -0.424034,0.424034 0,0.2212 0.147216,0.349895 0.442116,0.349895 h 1.142811 1.621997 1.769368 1.234127 c 0.2765,0 0.424034,-0.128864 0.424034,-0.386964 0,-0.258 -0.147534,-0.386965 -0.424034,-0.386965 h -0.51535 c -0.571299,0 -1.013952,-0.240164 -1.327252,-0.737764 -0.3134,-0.497699 -0.479185,-1.326729 -0.479185,-2.506228 V 7.8320548 c 1.161199,1.7877782 2.230273,3.4097212 3.151772,4.8289192 0.939999,1.437599 1.843039,2.819578 2.727738,4.183376 0.884599,1.363899 1.806091,2.783116 2.78289,4.257514 0.958399,1.474499 2.082914,3.170701 3.336213,5.087499 0.1474,0.2396 0.33105,0.331644 0.51535,0.294744 0.1843,-0.0553 0.276661,-0.221354 0.276661,-0.516254 V 6.5789407 c 0,-1.1427089 0.147703,-1.9726429 0.461103,-2.5071324 0.3133,-0.5344894 0.921103,-0.7920115 1.842602,-0.7920115 l 0.03707,-0.037069 c 0.2765,0 0.424034,-0.1289348 0.424034,-0.3869646 0,-0.2580297 -0.147534,-0.3869645 -0.424034,-0.3869645 h -1.197962 -1.714217 -1.69523 z M 0.42378186,2.4877853 c -0.27646073,0 -0.42403356777,0.1289348 -0.42403356777,0.3869645 0,0.2580298 0.14757283777,0.3878687 0.42403356777,0.3878687 h 0.51625408 c 0.44233356,0 0.73734876,0.1106432 0.90321866,0.331813 0.1658798,0.2211698 0.2395925,0.6811303 0.2395925,1.3814996 V 23.591818 c 0,0.7003 -0.07406,1.1603 -0.2215101,1.3815 -0.1474398,0.2211 -0.4424541,0.331813 -0.9032186,0.331813 H 0.44276843 c -0.27646072,0 -0.42403356,0.128865 -0.42403356,0.386964 0,0.258 0.14757284,0.386965 0.42403356,0.386965 H 2.2853706 4.1288768 c 1.5666085,0.0184 3.1515122,0.03766 4.7918506,0.05606 1.6218786,0.0184 3.3908196,0.03675 5.2891176,0.05515 0.1659,0 0.258262,-0.05517 0.276662,-0.147372 0.0369,-0.129 0.129262,-0.497543 0.276662,-1.105742 0.147499,-0.608199 0.312967,-1.25341 0.497267,-1.953809 0.1843,-0.7003 0.350354,-1.363862 0.516254,-2.008961 l -0.01808,0.01808 c 0.165799,-0.645099 0.276513,-1.087652 0.331813,-1.327252 0.1106,-0.423899 0.05516,-0.663477 -0.184441,-0.718777 -0.258,-0.0737 -0.460658,0.05543 -0.626557,0.424033 -0.5344,1.068999 -1.032325,1.972774 -1.474625,2.691574 -0.442299,0.718799 -0.921555,1.289413 -1.437555,1.713312 -0.516099,0.4239 -1.068948,0.718919 -1.677147,0.903219 -0.6082,0.1843 -1.3459406,0.276661 -2.1753197,0.276661 H 7.2797446 c -0.4791995,0 -0.7738512,-0.09236 -0.9213011,-0.276661 C 6.2294236,24.494274 6.15592,24.107062 6.15592,23.535763 V 4.9759311 c 0,-0.7003693 0.055074,-1.1603298 0.2025235,-1.3814996 0.1290199,-0.2211698 0.4421016,-0.331813 0.9213011,-0.331813 h 0.4800892 c 0.2764597,0 0.4231294,-0.1298389 0.4231294,-0.3878687 0,-0.2580297 -0.1466697,-0.3869645 -0.4231294,-0.3869645 H 6.3403611 4.1098903 1.861337 Z M 44.050416,2.5058677 c -0.294899,0 -0.424033,0.1289348 -0.424033,0.3869646 0,0.2580297 0.147534,0.3869645 0.424033,0.3869645 h 0.51535 c 0.4423,0 0.737319,0.1106433 0.903219,0.3318131 0.1658,0.2211697 0.239593,0.6820343 0.239593,1.3824036 V 23.608997 c 0,0.700299 -0.07379,1.161203 -0.239593,1.382403 -0.1659,0.2211 -0.460919,0.331813 -0.903219,0.331813 h -0.51535 c -0.294899,0 -0.424033,0.128965 -0.424033,0.386965 0,0.258 0.147534,0.386964 0.424033,0.386964 h 1.436651 2.249458 2.247649 1.438459 c 0.2764,0 0.42313,-0.128964 0.42313,-0.386964 0,-0.258 -0.14673,-0.386965 -0.42313,-0.386965 h -0.516254 c -0.442299,0 -0.737419,-0.110713 -0.903218,-0.331813 -0.1659,-0.2212 -0.239593,-0.682104 -0.239593,-1.382403 V 14.54155 h 7.058486 v 9.067447 c 0,0.700299 -0.07369,1.161203 -0.239592,1.382403 -0.1658,0.2211 -0.460015,0.331813 -0.902315,0.331813 h -0.516254 c -0.2764,0 -0.424033,0.128965 -0.424033,0.386965 0,0.258 0.147633,0.386964 0.424033,0.386964 h 1.437555 2.248554 2.248553 1.437555 c 0.2765,0 0.424034,-0.128964 0.424034,-0.386964 0,-0.258 -0.147534,-0.386965 -0.424034,-0.386965 h -0.516254 c -0.4423,0 -0.737319,-0.110713 -0.903219,-0.331813 -0.1658,-0.2212 -0.239592,-0.682104 -0.239592,-1.382403 V 4.9940135 c 0,-0.7003693 0.07379,-1.1612339 0.239592,-1.3824036 0.1659,-0.2211698 0.460919,-0.3318131 0.903219,-0.3318131 h 0.516254 c 0.2765,0 0.424034,-0.1289348 0.424034,-0.3869645 0,-0.2580298 -0.147534,-0.3869646 -0.424034,-0.3869646 h -1.437555 -2.248553 -2.230471 -1.419473 c -0.2949,0 -0.442116,0.1289348 -0.442116,0.3869646 0,0.2580297 0.147216,0.3869645 0.442116,0.3869645 h 0.480089 c 0.4423,0 0.736515,0.1106433 0.902315,0.3318131 0.1659,0.2211697 0.239592,0.6820343 0.239592,1.3824036 V 13.342683 H 49.763568 V 4.9940135 c 0,-0.7003693 0.07369,-1.1612339 0.239593,-1.3824036 0.165799,-0.2211698 0.460919,-0.3318131 0.903218,-0.3318131 h 0.516254 c 0.2764,0 0.42313,-0.1289348 0.42313,-0.3869645 0,-0.2580298 -0.14673,-0.3869646 -0.42313,-0.3869646 h -1.438459 -2.247649 -2.249458 z m 72.284614,0 c -0.276,0 -0.42403,0.1289348 -0.42403,0.3869646 0,0.2580297 0.14803,0.3869645 0.42403,0.3869645 h 0.51625 c 0.442,0 0.73632,0.1287257 0.90232,0.3498955 0.166,0.2395998 0.24049,0.701021 0.24049,1.4013903 V 23.590914 c 0,0.700399 -0.0745,1.161304 -0.24049,1.382404 -0.166,0.2212 -0.46032,0.331813 -0.90232,0.331813 h -0.51625 c -0.276,0 -0.42403,0.14663 -0.42403,0.423129 0,0.258 0.14803,0.386965 0.42403,0.386965 h 1.43755 2.24856 2.24855 1.43756 c 0.277,0 0.42403,-0.128965 0.42403,-0.386965 0,-0.276499 -0.14703,-0.423129 -0.42403,-0.423129 h -0.51626 c -0.442,0 -0.73722,-0.110613 -0.90322,-0.331813 -0.166,-0.2211 -0.23959,-0.682005 -0.23959,-1.382404 v -8.589166 c 0,-0.2212 0.11081,-0.331813 0.33181,-0.331813 0.461,0 0.82966,0.1112 1.08766,0.3508 0.258,0.239599 0.49769,0.571222 0.71969,1.013521 0.60799,1.179599 1.21554,2.321731 1.78654,3.42753 0.572,1.105898 1.10593,2.120287 1.58493,3.023386 0.48,0.903099 0.88495,1.676688 1.21695,2.321787 0.332,0.645 0.55361,1.069084 0.68261,1.290183 h 1.21605 1.41856 1.67806 0.95837 c 0.221,0 0.40414,-0.110303 0.40414,-0.110303 l -0.0172,-0.01899 c 0.055,-0.0737 0.0732,-0.165575 0.0732,-0.257675 0,-0.0922 -0.0363,-0.184462 -0.11031,-0.276662 -0.074,-0.0921 -0.18388,-0.128385 -0.36888,-0.128385 -0.276,0 -0.57123,-0.09295 -0.88423,-0.295648 -0.295,-0.2027 -0.55285,-0.478564 -0.75585,-0.847163 -0.258,-0.4423 -0.47961,-0.84835 -0.68261,-1.216949 -0.184,-0.3686 -0.40457,-0.755812 -0.60757,-1.142812 -0.203,-0.387099 -0.42453,-0.791828 -0.66453,-1.234127 -0.239,-0.4239 -0.53326,-0.940563 -0.84626,-1.548762 -0.332,-0.6082 -0.70172,-1.308682 -1.14372,-2.101182 -0.442,-0.792499 -0.93977,-1.732242 -1.52977,-2.838041 0.461,-0.2212 0.92232,-0.479516 1.36432,-0.792916 0.461,-0.313299 0.84795,-0.681525 1.21695,-1.123824 0.35,-0.4424 0.64515,-0.958376 0.86615,-1.529776 0.221,-0.571299 0.33091,-1.2538579 0.33091,-2.0279471 0,-0.995259 -0.16526,-1.8798586 -0.51626,-2.6355178 -0.35,-0.7556593 -0.82858,-1.4006807 -1.39958,-1.9167402 -0.59,-0.5160595 -1.25396,-0.9028639 -2.00896,-1.1608936 -0.756,-0.2580298 -1.54876,-0.3869646 -2.35976,-0.3869646 h -0.75585 -1.19796 -1.49271 -1.62199 -2.30371 z m 7.15071,0.8109981 c 1.106,0 1.9352,0.4425731 2.5442,1.3272522 h 0.0181 c 0.608,0.8846691 0.90322,2.1562821 0.90322,3.8334804 0,1.8983786 -0.33244,3.2623426 -0.99544,4.1101416 -0.682,0.8478 -1.5476,1.271197 -2.6536,1.271197 -0.277,0 -0.53486,-0.0366 -0.73686,-0.110303 -0.222,-0.0737 -0.36917,-0.184144 -0.49817,-0.294744 V 4.5518975 c 0,-0.4607695 0.0918,-0.7740603 0.27576,-0.9583701 0.18499,-0.1842998 0.57181,-0.2766616 1.14281,-0.2766616 z"
       inkscape:label="path8-1" /></g></g><g
   id="g19"
   inkscape:label="tcs"
   transform="translate(-617.69171,451.13785)"><rect
     style="fill:#ffe700;fill-opacity:1;fill-rule:evenodd;stroke-width:0.999985"
     id="rect1-3-0-8-3-2-5-9-2"
     width="450.00003"
     height="300"
     x="1537.6227"
     y="168.86215"
     rx="20"
     ry="20"
     inkscape:label="rect9" /><g
     transform="matrix(0.28023773,0,0,0.28090647,1684.7936,402.44242)"
     id="g2679"
     style="stroke-width:3.56415"
     inkscape:label="tcs"><path
       style="color:#000000;fill:#003f8a;fill-opacity:1;stroke-width:3.56415;-inkscape-stroke:none"
       d="m -969.57069,519.78837 c -12.46986,0 -22.17771,8.03827 -25.6914,15.2168 -3.5137,7.17853 -3.20508,13.95117 -3.20508,13.95117 l 0.002,0.0527 1.55469,57.01563 c -112.58752,51.95128 -190.98632,165.91476 -190.98632,297.89063 0,180.9231 146.9132,327.8555 327.82031,327.8555 180.90718,0 327.82031,-146.9324 327.82031,-327.8555 0,-131.97713 -78.41438,-245.93937 -190.98633,-297.89063 l 1.55664,-57.01563 v -0.0527 c 0,0 0.30912,-6.77725 -3.20898,-13.95703 -3.5181,-7.17978 -13.22877,-15.21094 -25.70313,-15.21094 h -109.47851 z"
       id="path17"
       transform="translate(1137.8019,-1173.3173)"
       sodipodi:nodetypes="sscccssscccsscs"
       inkscape:label="path9-3" /><path
       id="path11872"
       style="fill:#ffffff;fill-opacity:1;fill-rule:nonzero;stroke:none;stroke-width:3.56415"
       d="m 168.22824,-641.12698 c -16.80782,0 -16.48991,16.53408 -16.48991,16.53408 l 1.77026,65.03778 c -112.313259,48.2834 -191.202056,160.16188 -191.202056,290.15301 0,174.220462 141.216956,315.454756 315.419976,315.454756 174.20309,0 315.41998,-141.234294 315.41998,-315.454756 0,-129.99113 -78.91317,-241.86961 -191.20903,-290.15301 l 1.77723,-65.03778 c 0,0 0.31444,-16.53408 -16.51082,-16.53408 H 277.72651 Z m 230.94231,124.61749 2.03511,1.02208 c 93.76551,47.34383 152.01936,141.02216 152.01936,244.47917 0,41.3584 -8.97371,81.17383 -26.68632,118.33899 l -0.0558,0.0834 -0.0488,0.0904 c -4.07153,6.1594 -9.36317,5.3585 -11.59032,4.05356 -0.0174,0 -184.17678,-110.38483 -184.17678,-110.38483 0,0 -0.72483,-0.43458 -0.72483,-0.41718 l 0.0488,-0.84825 0.0558,-0.88998 c 0.0349,-0.5568 0.0697,-1.05973 0.0697,-1.63394 0,-19.29594 -10.35223,-36.90425 -27.02086,-45.95196 l -0.68302,-0.38241 -0.0488,-0.78569 -3.28962,-63.20915 -0.0558,-0.9595 0.87119,-0.40327 c 97.83699,-44.69914 99.28094,-138.13309 99.28094,-139.07265 v -0.84826 z m -242.93687,0.007 v 2.27361 0.84131 c 0,0.93958 1.44411,94.38749 99.28094,139.08655 l 0.87119,0.38241 -0.0557,0.95951 -3.12932,63.34821 -0.0349,0.78568 -0.67604,0.36851 c -16.77306,9.25647 -27.19511,26.81271 -27.19511,45.84766 0,0.9744 0.0175,1.98068 0.0697,2.88547 l 0.0488,0.85521 -0.73181,0.41718 c 0,0 -184.103566,109.99892 -184.121013,110.01632 -2.227102,1.28757 -7.515405,2.10585 -11.569419,-4.05356 l -0.0697,-0.0904 -0.03485,-0.0834 C 11.173887,-189.84487 2.17921,-229.66029 2.17921,-271.00128 c 0,-103.45692 58.253954,-197.15278 152.01937,-244.47918 z m 285.95281,124.76351 c -21.08814,0 -39.05084,6.80125 -51.90905,19.67681 -13.41491,13.39755 -20.49042,32.46878 -20.49042,55.15765 0,22.25388 7.35417,41.88527 20.73435,55.24803 12.80599,12.82336 30.68138,19.58643 51.66512,19.58643 41.54983,0 64.274,-29.49096 65.00479,-57.73024 h -41.46869 c -2.22711,10.73544 -7.37728,24.2588 -24.77668,24.2588 -7.37741,0 -13.53454,-2.42192 -18.30198,-7.18934 -9.41309,-9.41312 -10.82368,-25.43917 -10.82368,-34.17368 0,-25.89034 10.89103,-41.35607 29.12566,-41.35607 18.51296,0 23.38795,15.09903 24.62335,21.41504 h 40.85538 c -4.34985,-35.72102 -26.53358,-54.68467 -64.23815,-54.89343 z m -375.413685,3.46256 v 34.50742 h 40.764775 v 108.23638 h 42.0402 V -353.769 h 40.76478 v -34.50742 z m 239.500895,169.65861 0.71786,0.34765 191.52963,96.89613 -0.15333,-0.0695 c 0.33061,0.12182 3.25253,1.27009 4.1399,3.60162 0.43501,1.11356 0.35109,2.30028 -0.25787,3.44866 l -0.0349,0.0695 -0.0558,0.0695 C 451.57915,-40.202298 367.68159,4.7925784 277.69166,6.1149757 187.73656,4.7925784 103.83213,-40.202238 53.251919,-114.25427 l -0.04879,-0.0695 -0.03485,-0.0695 c -0.591579,-1.14838 -0.682411,-2.3351 -0.264843,-3.44866 0.854563,-2.24533 3.489272,-3.34148 4.00051,-3.53209 l 192.198694,-96.66668 0.69696,-0.34765 0.6621,0.41718 c 8.38653,5.08063 17.79597,7.77338 27.24389,7.77338 9.91769,0 19.57163,-2.76557 27.906,-8.00283 z m -26.47027,48.24643 c -18.72175,0 -35.23462,5.77494 -45.30891,15.86661 -7.96893,7.95154 -12.0085,18.32261 -12.0085,30.85018 0,27.230134 23.31328,33.805868 45.84557,40.139304 l 2.47418,0.695294 c 24.89863,7.081546 32.39437,9.224837 32.39437,18.06373 0,3.740923 -1.21609,6.87055 -3.65203,9.289124 -4.81967,4.836992 -12.9993,5.360715 -16.28779,5.360715 -12.23183,0 -19.86366,-3.861814 -22.69976,-11.500158 -0.99177,-2.557684 -1.53346,-5.534915 -1.67269,-8.684218 h -42.0402 c 1.42672,47.152495 52.27191,49.588347 62.53759,49.588347 15.45071,0 65.87599,-3.511996 65.87599,-48.733136 0,-26.064338 -20.20091,-35.166062 -39.94934,-40.646872 -4.36723,-1.21799 -8.7353,-2.26221 -12.96333,-3.28874 -15.85094,-3.8105 -29.53095,-7.10021 -30.26169,-16.40893 0,-10.37001 13.4012,-11.18727 17.50745,-11.18727 5.48086,0 10.61242,1.44377 14.0227,3.9145 4.19328,2.78394 6.24791,6.70153 6.05652,11.38196 h 39.37087 c -2.20973,-38.81813 -37.94407,-44.70044 -59.241,-44.70044 z"
       inkscape:label="path9-2" /><path
       id="path11880"
       style="fill:#e2001a;fill-opacity:1;fill-rule:nonzero;stroke:none;stroke-width:3.56415"
       d="m 173.17645,-617.74035 3.12932,106.24088 c 0,0 0.0722,90.62991 101.40665,124.08907 101.31705,-33.45916 101.39967,-124.08907 101.39967,-124.08907 l 3.13629,-106.24088 H 277.71242 Z m 84.02464,35.15405 h 40.61145 v 49.37976 h 49.76243 v 40.59125 h -49.76243 v 49.3589 h -40.61145 v -49.3589 h -49.76244 v -40.59125 h 49.76244 z"
       inkscape:label="path9-1" /></g></g></svg>
