<?xml version="1.0" encoding="UTF-8" standalone="no"?>
<!-- Generator: Adobe Illustrator 26.0.3, SVG Export Plug-In . SVG Version: 6.00 Build 0)  -->

<svg
   version="1.0"
   id="katman_1"
   x="0px"
   y="0px"
   viewBox="0 0 450 300"
   xml:space="preserve"
   width="450"
   height="300"
   xmlns="http://www.w3.org/2000/svg"
   xmlns:svg="http://www.w3.org/2000/svg"><defs
   id="defs9"><style
     id="style1">.cls-1{fill:#003d8d;}.cls-2{fill:#fff;}.cls-3{fill:#f60;}</style></defs>
<style
   type="text/css"
   id="style2">
	.st0{fill:#010202;}
</style>

<g
   id="g8"
   transform="translate(-1006.91,565.51953)"><rect
     style="fill:#0c4b7a;fill-opacity:1;fill-rule:evenodd;stroke-width:0.999985"
     id="rect1-3"
     width="450.00003"
     height="300"
     x="1006.91"
     y="-565.51953"
     rx="20"
     ry="20" /><path
     id="path1"
     style="fill:#ffffff;stroke-width:1"
     d="m 1058.0117,-436.32031 c -8.6646,0 -20.666,2.85257 -20.666,13.42773 0,7.10393 5.3277,9.90152 11.4629,11.0586 l 5.5703,1.05078 c 3.848,0.69963 6.8359,1.5055 6.8359,3.90039 0,3.6596 -6.1361,4.00976 -9.123,4.00976 -5.8392,0 -8.3416,-1.91005 -9.1758,-5.4082 l -11.0058,2.74414 c 0.8341,8.31483 10.8994,10.81836 20.0214,10.81836 11.5977,0 21.0684,-4.17089 21.0684,-13.77734 0,-6.94248 -4.6815,-9.76872 -12.8887,-11.41016 l -6.4316,-1.29102 c -4.144,-0.80726 -4.7891,-2.04496 -4.7891,-3.25585 0,-1.91053 2.2326,-3.71289 7.5606,-3.71289 5.902,0 8.1132,1.44404 9.6465,4.97265 l 10.8046,-2.84765 c -2.2603,-7.96502 -10.8179,-10.2793 -18.8906,-10.2793 z m 8.086,13.12695 -0.014,0.004 0.027,0.0273 c 0,-0.0108 -0.01,-0.0204 -0.014,-0.0312 z m 210.5488,-13.12695 c -14.2617,0 -25.5625,8.85338 -25.5625,24.43359 0,11.03262 7.8558,17.14063 18.2695,17.14063 11.0595,0 18.8372,-3.12228 23.8691,-12.37891 l -11.3554,-2.44727 c -2.3411,4.06323 -6.1347,5.75782 -10.3594,5.75782 -5.6239,0 -8.9609,-3.20245 -8.9609,-8.96094 0,-7.96501 5.5165,-14.47656 12.9433,-14.47656 6.3211,0 7.9641,3.30786 8.5567,6.45507 l 11.3281,-1.85351 c -1.0494,-9.36427 -7.8574,-13.66992 -18.7285,-13.66992 z m 7.4004,15.52343 -0.028,0.004 h 0.028 c -2e-4,-10e-4 2e-4,-0.003 0,-0.004 z m -199.2598,-14.63476 -5.0859,20.42383 c -0.2422,1.04944 -0.4035,1.93579 -0.5918,2.79687 -2.5295,12.37806 5.7313,17.49219 17.1406,17.49219 11.4093,0 19.1314,-4.41272 22.0645,-16.17187 h 0.027 l 6.1348,-24.54102 h -10.8711 l -5.8653,23.4375 c -1.3992,5.65085 -5.7317,8.20703 -11.0058,8.20703 -3.7673,0 -8.3153,-1.56033 -6.916,-8.07226 0.1883,-0.83418 0.485,-1.99265 0.6464,-2.7461 l 5.2188,-20.82617 z m 47.8965,0 -9.9551,39.82422 h 10.8711 l 2.6367,-10.52149 h 7.4805 l 0.027,0.0273 c 10.8174,0 21.8223,-4.49304 21.8223,-16.87109 0,-9.149 -5.6236,-12.45899 -15.4453,-12.45899 z m 40.875,0 -9.957,39.82422 h 34.6601 l 2.3399,-9.41797 h -23.7598 l 1.6406,-6.56641 h 19.7246 l 2.0996,-8.36718 h -19.7246 l 1.5332,-6.05469 h 22.8731 l 2.3945,-9.41797 z m 40.793,0 -9.9551,39.82422 h 10.8984 l 3.1485,-12.78125 h 7.0234 l 5.5156,12.78125 h 12.0547 l -6.916,-14.12696 c 7.1577,-1.96434 12.3516,-6.91518 12.3516,-14.47656 0,-7.56138 -4.7361,-11.2207 -14.9883,-11.2207 z m 102.6582,0 -26.6934,39.82422 h 11.4629 l 4.3867,-6.75391 h 19.3203 l 1.291,6.75391 h 10.8184 l -8.0742,-39.82422 z m 34.8476,0 -9.957,39.82422 h 10.8711 l 3.1484,-12.78125 h 7.0235 l 5.5156,12.78125 h 12.0547 l -6.9141,-14.12696 h 0.024 c 7.1309,-1.96434 12.3516,-6.91518 12.3516,-14.47656 0,-7.56138 -4.736,-11.2207 -14.9883,-11.2207 z m 43.9961,0 -9.957,39.82422 h 18.1894 0.027 c 16.6835,0 27.7969,-8.77178 27.7969,-23.89453 0,-10.81735 -6.3776,-15.92969 -18.379,-15.92969 z m -74.1074,8.66406 1.9902,14.98828 h -11.5156 z m -89.4453,0.26953 c 3.229,0 4.9238,1.23663 4.9238,3.79297 0,3.74033 -3.3893,5.35547 -8.0176,5.35547 h -8.4765 l 2.2871,-9.12305 h 9.3105 z m 137.5312,0 c 3.2291,0 4.9239,1.23663 4.9239,3.79297 0,3.74033 -3.3913,5.35547 -8.0196,5.35547 h -8.5019 l 2.2871,-9.12305 h 9.3105 z m -228.4824,0.0527 h 7.2637 c 3.9018,0 5.7871,1.69629 5.7871,4.89844 0,4.54759 -3.3919,6.51172 -8.4238,6.51172 h -7.4805 z m 263.0606,0.43164 h 7.83 c 5.92,0 8.5567,2.5553 8.5567,7.91016 0,8.5301 -7.0504,13.07812 -14.8809,13.07812 h -6.7812 z" /><g
     transform="matrix(0.22930476,0,0,0.22930476,1286.6533,-648.17078)"
     id="g2001"
     style="stroke-width:4.36101"><path
       d="m 280.8451,550.9571 c -20.03138,0 -36.18283,-16.14756 -36.18283,-36.03259 0.004,-19.83969 16.14791,-35.98725 36.18283,-35.98725 19.88823,0 36.02232,16.14756 36.02232,35.98725 0,19.88503 -16.13764,36.03259 -36.02232,36.03259 m 60.96543,-84.99543 c -16.8626,-11.6713 -39.78708,-16.56248 -60.96543,-16.56248 -39.735,-0.004 -86.28555,17.00894 -86.28555,65.09303 0,6.33437 1.00772,12.25028 2.01862,17.29134 -8.49933,9.50669 -22.43338,18.87732 -39.72437,18.87732 -22.77496,0 -38.91224,-14.54775 -38.91224,-36.89362 0,-20.69716 15.9874,-35.98405 36.84472,-35.98405 10.51796,-0.004 18.30225,3.60141 22.62863,6.49134 l 16.7159,-26.51563 c -8.36327,-4.17969 -24.59799,-10.09595 -46.2189,-10.09595 -40.92732,0 -81.377001,22.05354 -81.377001,66.40051 0.0035,44.23536 36.416341,67.01386 80.086891,67.01386 27.62078,-0.004 49.80649,-13.83626 62.35299,-27.67287 16.28397,17.67118 43.76834,26.03444 71.87031,26.03444 20.56465,0 43.80661,-4.61232 60.96189,-16.38141 l 0.004,-97.09583 z"
       style="fill:#ff5404;fill-opacity:1;fill-rule:evenodd;stroke-width:4.36101"
       id="_46823448" /><path
       d="m 549.05183,553.10825 h -0.43229 c -20.18126,-0.28241 -36.60094,-15.98741 -36.60094,-38.46615 0,-21.572 16.85905,-37.42688 36.5974,-37.57358 h 0.43583 c 20.75633,0 36.26291,16.52776 36.26291,37.27736 0.003,20.03138 -15.07784,38.76237 -36.26646,38.76237 m -146.04094,-2.72977 c -19.88858,0 -36.02232,-16.14756 -36.02232,-36.0326 0,-20.03492 16.13374,-36.11976 36.02232,-36.11976 19.84996,0 35.9837,16.08484 35.9837,36.11976 0,19.88504 -16.13728,36.0326 -35.9837,36.0326 m 155.26523,-98.38559 c -3.30838,0 -6.4807,0.2824 -9.65657,0.57863 -14.84043,1.71885 -26.51563,7.05968 -35.59004,13.3937 v -11.80737 h -39.88134 v 19.15973 c -16.86224,-17.00894 -46.68626,-23.91839 -70.03984,-23.91839 l -0.0974,-0.004 c -21.17834,0 -44.28815,4.84937 -61.19929,16.66736 l 0.004,96.75035 c 16.81016,11.73118 39.76973,16.62555 61.19575,16.62555 h 0.0974 c 26.81185,0 52.16988,-8.44689 69.17528,-22.86212 l 0.004,60.4846 h 40.74236 V 563.3399 c 6.33437,5.9159 18.44894,13.27181 35.59004,15.4226 3.45827,0.44291 7.05933,0.67641 10.81063,0.67641 32.08996,0 74.03846,-19.25752 74.03846,-64.66429 0,-42.17173 -33.87118,-62.78173 -75.19252,-62.78173 z"
       style="fill:#ff8605;fill-opacity:1;fill-rule:evenodd;stroke-width:4.36101"
       id="_47521032" /><path
       d="m 341.90833,562.91116 c -14.65937,-10.08532 -25.04091,-25.79032 -25.04091,-48.41894 0,-22.42984 10.09559,-38.14866 25.03736,-48.527 14.84717,10.37834 25.07918,26.09716 25.07918,48.527 0,22.62862 -10.23201,38.18728 -25.07563,48.41894 z"
       style="fill:#dc3002;fill-opacity:1;fill-rule:evenodd;stroke-width:4.36101"
       id="_92386648" /></g></g></svg>
