<?xml version="1.0" encoding="UTF-8" standalone="no"?>
<!-- Generator: Adobe Illustrator 26.0.3, SVG Export Plug-In . SVG Version: 6.00 Build 0)  -->

<svg
   version="1.0"
   id="katman_1"
   x="0px"
   y="0px"
   viewBox="0 0 450 300"
   xml:space="preserve"
   width="450"
   height="300"
   xmlns="http://www.w3.org/2000/svg"
   xmlns:svg="http://www.w3.org/2000/svg"><defs
   id="defs9"><style
     id="style1">.cls-1{fill:#003d8d;}.cls-2{fill:#fff;}.cls-3{fill:#f60;}</style></defs>
<style
   type="text/css"
   id="style2">
	.st0{fill:#010202;}
</style>

<g
   id="g11"
   transform="translate(-1008.6384,201.92314)"><rect
     style="fill:#b20000;fill-opacity:1;fill-rule:evenodd;stroke-width:0.999985"
     id="rect1-3-0-8-3"
     width="450.00003"
     height="300"
     x="1008.6384"
     y="-201.92314"
     rx="20"
     ry="20" /><path
     d="m 1383.1117,-59.0803 0.1206,-0.76037 c 0.059,-0.30503 -0.027,-0.62372 -0.223,-0.86507 -0.2026,-0.23675 -0.4962,-0.37786 -0.8057,-0.37786 h -5.4624 c -0.5053,-0.007 -0.9468,0.35056 -1.0424,0.85139 l -0.1525,0.82638 -5.8356,31.900414 c -0.052,0.307325 0.041,0.628311 0.2458,0.867344 0.2071,0.236753 0.5212,0.377898 0.8353,0.371065 l 2.6947,-0.04098 h 2.5332 c 0.5053,0 0.9263,-0.352856 1.0265,-0.837744 l 4.0034,-19.798619 c 1.3224,-5.01739 4.6453,-6.51074 7.5859,-6.94558 0.1571,-0.0205 0.7511,-0.0112 0.8763,-0.0933 -2.0143,12.00391 -4.3995,26.216015 -4.4405,26.452769 -0.052,0.300497 0.036,0.612376 0.2344,0.851409 0.198,0.234479 0.4962,0.371065 0.7966,0.371065 h 5.8835 c 0.4574,0 0.8671,-0.293665 0.9991,-0.737581 0.1889,-0.578228 1.5955,-8.734872 2.4399,-13.633892 2.1781,3.30321 9.1335,13.888859 9.1335,13.888859 0.1958,0.295944 0.5258,0.471233 0.8786,0.471233 l 7.0305,0.0114 c 0.1274,0 0.2435,-0.02958 0.3618,-0.06829 0.1502,0.06829 0.3164,0.113823 0.4802,0.10927 l 5.9358,-0.04098 c 0.5121,-0.0023 0.9423,-0.371065 1.0265,-0.865065 0,0 4.2993,-24.836477 4.5816,-26.466427 1.3815,-0.005 6.8143,-0.009 6.8143,-0.009 0.5098,0 0.9468,-0.36883 1.0356,-0.8719 l 0.9172,-5.34065 c 0.011,-0.0592 0.018,-0.11387 0.018,-0.17759 0,-0.2413 -0.089,-0.4826 -0.2435,-0.67158 -0.2003,-0.23674 -0.4939,-0.37335 -0.8103,-0.37335 h -6.7118 c 0.3277,-1.8872 1.5226,-8.85097 1.5226,-8.85097 0.01,-0.0614 0.014,-0.12066 0.014,-0.17754 0,-0.25269 -0.084,-0.49172 -0.2458,-0.67842 -0.1958,-0.2413 -0.4962,-0.37335 -0.8012,-0.37335 h -5.8994 c -0.5098,0 -0.9468,0.3688 -1.0355,0.86963 0,0 -1.3133,7.7833 -1.5568,9.21065 -0.5326,0.0158 -1.0833,0.0275 -1.0833,0.0275 l -0.9195,0.007 -0.9765,-0.0181 c -0.3755,-0.009 -0.7101,0.18442 -0.9058,0.48721 -0.1889,-0.28911 -0.5076,-0.47581 -0.8649,-0.47581 l -5.4009,-0.0112 h -1.5818 c -0.2936,0 -0.569,0.12521 -0.7738,0.33694 0,0 -5.4328,6.22846 -8.3188,9.35409 0.8444,-4.95135 3.1728,-18.54428 3.1728,-18.54428 0.01,-0.0637 0.014,-0.11837 0.014,-0.18214 0,-0.24358 -0.089,-0.48488 -0.2504,-0.67153 -0.198,-0.24131 -0.4916,-0.37563 -0.8012,-0.37563 l -5.8765,-0.0135 c -0.5167,-0.005 -0.9583,0.36423 -1.0424,0.86735 -0.1366,0.81042 -0.7466,4.42776 -1.5637,9.24707 -0.01,-0.0158 -0.016,-0.0274 -0.027,-0.0409 -0.2071,-0.24359 -0.5076,-0.37107 -0.8262,-0.35967 -2.5036,0.0728 -4.7636,1.09953 -6.7323,2.36981 z m 29.4376,29.865255 c -2.4194,-3.888232 -9.4886,-15.238835 -10.1099,-16.240465 0.817,-0.96526 9.4226,-11.45302 11.1705,-13.50642 l -0.7738,4.06581 c -0.059,0.30959 0.027,0.62833 0.2276,0.86508 0.2003,0.23902 0.4938,0.38241 0.8102,0.38241 h 2.6811 c -0.3049,1.85307 -3.109,18.942701 -4.0057,24.433585 z M 1210.7672,-42.79202 c -1.2268,4.28432 -5.2826,8.361534 -9.2405,9.322185 -3.0271,0.400698 -5.2484,0.116139 -6.7961,-0.885535 -1.6296,-1.12005 -2.4467,-3.06414 -3.0794,-4.8193 -0.1092,-0.62833 -0.1662,-1.26121 -0.1662,-1.87814 0,-3.90191 2.0871,-7.66265 5.9267,-10.54242 2.2077,-1.54572 5.2052,-2.12851 7.8362,-1.52521 1.484,0.34144 3.5141,1.22474 4.7819,3.51944 0.7101,1.24521 1.0879,2.82284 1.0879,4.36172 0,0.85144 -0.1184,1.68689 -0.3505,2.44726 z m -29.9224,-27.53642 -1.27,6.89777 c -0.059,0.3073 0.025,0.62832 0.2253,0.87646 0.2003,0.23674 0.4962,0.37786 0.8171,0.37786 h 6.1383 c 0.5053,0 0.9445,-0.35967 1.0356,-0.86507 l 1.1539,-6.83628 c 0.05,-0.30502 -0.032,-0.62604 -0.2276,-0.86507 -0.2002,-0.23902 -0.4962,-0.38018 -0.8011,-0.38246 l -6.0336,-0.05 c -0.5053,-0.005 -0.94,0.35512 -1.0379,0.84684 z m -13.2599,27.53642 v 0 c 0.2299,-0.76037 0.3414,-1.59582 0.3414,-2.44726 0,-1.53888 -0.3733,-3.11651 -1.0811,-4.36172 -1.2746,-2.2947 -3.3025,-3.178 -4.7887,-3.51944 -2.6242,-0.6033 -5.6285,-0.0205 -7.8362,1.52521 -3.8327,2.87977 -5.9267,6.64051 -5.9267,10.54242 0,0.61693 0.059,1.24981 0.1685,1.87814 0.6327,1.75516 1.4498,3.69925 3.0816,4.8193 1.5477,1.001674 3.7714,1.286233 6.7939,0.885535 3.9602,-0.960651 8.0114,-5.037865 9.2473,-9.322185 z m -50.3539,-4.92177 v 0 c 2.5127,-0.0228 14.5458,-0.1366 16.2778,-0.15256 -0.1251,-1.16553 -0.7396,-2.25823 -2.0256,-3.54674 -1.4202,-1.21563 -3.3662,-1.78707 -6.1292,-1.80298 -2.9929,0.41889 -6.4889,2.38805 -8.123,5.50228 z m 246.6873,4.92177 c -1.2245,4.28432 -5.278,8.361534 -9.2405,9.322185 -3.0293,0.400698 -5.2507,0.116139 -6.7893,-0.885535 -1.6341,-1.12005 -2.4535,-3.06414 -3.0862,-4.8193 -0.1047,-0.62833 -0.1684,-1.26121 -0.1684,-1.87814 0,-3.90191 2.0893,-7.66265 5.9335,-10.54242 2.2008,-1.54572 5.2051,-2.12851 7.8339,-1.52521 1.4817,0.34144 3.5164,1.22474 4.7818,3.51944 0.7033,1.24521 1.0834,2.82284 1.0834,4.36172 0,0.85144 -0.1161,1.68689 -0.3482,2.44726 z m -330.2797,15.94451 v -0.653353 c 0.032,-0.06829 0.073,-0.134312 0.1251,-0.191224 l 43.7376,-50.419663 c 0.1526,-0.16846 0.3665,-0.26864 0.5986,-0.26864 h 7.0624 c 0.2322,0 0.4552,0.10702 0.6077,0.28911 0.1138,0.14116 0.1798,0.32554 0.1798,0.49628 0,0.0501 -0.011,0.1093 -0.021,0.16163 0,0 -5.4782,27.06065 -6.4956,31.95507 3.4481,-3.89735 28.9073,-32.63345 28.9073,-32.63345 0.1456,-0.17529 0.3641,-0.26864 0.5849,-0.26864 h 6.6459 c 0.2436,0 0.4734,0.1093 0.6237,0.30051 0.1479,0.19121 0.2025,0.4439 0.1411,0.67614 l -6.976,28.3286 c 0.057,-0.10474 0.107,-0.20716 0.1593,-0.30735 3.3207,-6.45837 9.6297,-10.99767 16.4577,-11.83316 0.02,-0.005 0.048,-0.005 0.075,-0.005 6.1747,-0.31414 10.9407,2.02381 13.7993,6.74521 0.016,0.0251 0.027,0.0478 0.046,0.0752 1.0264,2.06247 1.7912,4.83298 1.9277,7.6854 1.1653,-3.40107 3.2365,-6.54717 6.1156,-9.20154 4.8797,-4.53935 10.8292,-6.32637 16.7604,-5.02423 0.061,0.0135 0.1343,0.0386 0.1957,0.0638 l 0.5508,0.23674 c 1.3155,0.56684 2.7471,1.19516 3.958,2.28102 0.6418,-3.0186 2.5218,-11.96977 2.5218,-11.96977 0.1047,-0.48488 0.5348,-0.83548 1.0333,-0.83548 h 5.4532 c 0.3164,0 0.6122,0.14116 0.8126,0.37563 0.2002,0.2413 0.2844,0.56004 0.2298,0.86734 l -7.9546,42.900433 c -0.096,0.500828 -0.5303,0.860512 -1.0401,0.860512 l -5.41,-0.01595 c -0.3164,0 -0.6168,-0.132038 -0.8171,-0.371066 -0.1593,-0.191227 -0.2436,-0.43026 -0.2436,-0.673842 0,-0.06602 0.01,-0.132037 0.02,-0.193502 0,0 0.1366,-0.719372 0.2231,-1.195134 -4.4109,2.72266 -8.8764,3.783502 -13.0596,3.025432 -4.7842,-0.951572 -9.2383,-5.629758 -10.135,-10.642603 -0.2458,-1.34311 -0.3551,-2.68851 -0.3414,-4.01344 -0.1889,0.17075 -0.4393,0.27316 -0.7078,0.27316 0,0 -23.9297,0.009 -25.1201,0.0112 -0.027,0.10246 -0.043,0.19581 -0.043,0.30507 0,0.38474 0.132,0.88325 0.305,1.45242 0,0 0.073,0.25948 0.1069,0.37107 1.1927,2.929813 4.0535,4.76693 7.2991,4.689534 3.2274,-0.07284 6.218,-1.618558 8.874,-4.589394 0.1958,-0.22535 0.4848,-0.35284 0.7807,-0.35284 h 5.6012 c 0.3619,0 0.7011,0.18665 0.89,0.494 0.1957,0.30502 0.2207,0.68977 0.068,1.0153 -3.1796,6.686051 -10.3103,11.177558 -17.7937,11.177558 -5.2052,-0.202605 -9.5751,-2.73634 -12.0081,-6.972903 -1.2109,-2.258279 -1.7844,-5.060605 -1.7503,-7.928975 l -3.2865,13.347036 c -0.089,0.359688 -0.4097,0.605548 -0.7715,0.605548 h -7.0852 c -0.239,0 -0.4689,-0.111548 -0.6145,-0.302776 -0.116,-0.143419 -0.1753,-0.316428 -0.1753,-0.487168 0,-0.06602 0.01,-0.12293 0.021,-0.184395 2.7676,-11.523595 6.6482,-27.902905 8.057,-34.384065 -3.389,3.96791 -29.9452,35.032865 -29.9452,35.032865 -0.1457,0.175289 -0.3618,0.273177 -0.5917,0.273177 l -5.9859,0.05236 c -0.2412,0 -0.4643,-0.10472 -0.6168,-0.295944 -0.1137,-0.138865 -0.1775,-0.314158 -0.1775,-0.494 0,-0.05464 0,-0.111549 0.016,-0.166181 2.5332,-11.660187 6.0769,-28.264877 7.3241,-34.723297 -3.266,3.9019 -29.6037,35.399413 -29.6037,35.399413 -0.1525,0.179842 -0.3869,0.284558 -0.6305,0.280009 -2.0438,-0.07057 -3.5846,-0.06146 -5.3736,-0.05236 h -3.4093 c -0.305,0.0069 -0.585,-0.172912 -0.7124,-0.452921 z m 340.0164,-33.85823 c -0.1958,-0.23675 -0.4916,-0.37786 -0.8057,-0.37786 h -5.4579 c -0.4961,0 -0.9308,0.34828 -1.031,0.83544 l -0.4211,2.06479 c -1.213,-1.08591 -2.4216,-1.78251 -4.1536,-2.45633 l -0.544,-0.23674 c -0.066,-0.0251 -0.132,-0.0501 -0.2002,-0.0638 -5.9267,-1.30214 -11.8807,0.48489 -16.7582,5.02423 -2.433,2.24005 -4.2788,4.83754 -5.5033,7.63535 l 7.1717,-29.12311 c 0.059,-0.23224 0.01,-0.48493 -0.1434,-0.67614 -0.148,-0.19121 -0.3756,-0.30051 -0.6191,-0.30051 h -6.6436 c -0.2321,0 -0.4415,0.0933 -0.5917,0.26864 0,0 -25.457,28.7361 -28.9051,32.63345 1.0151,-4.89442 6.6937,-31.95507 6.6937,-31.95507 0,-0.0523 0.014,-0.11154 0.014,-0.16163 0,-0.1753 -0.055,-0.35512 -0.1752,-0.49628 -0.1503,-0.18209 -0.3756,-0.28911 -0.61,-0.28911 h -7.3401 c -0.2322,0 -0.4483,0.10018 -0.5963,0.26864 l -36.6616,42.34494 c -0.6145,-6.1647 -3.5482,-12.8781 -3.5482,-12.8781 -4.9139,-10.06888 -15.8455,-13.33111 -22.0453,-7.55562 l -0.043,0.009 -0.9719,0.70567 c 4.4974,-7.17776 15.9069,-6.85902 23.2538,1.59358 0,0 3.2638,3.92466 5.5807,9.76387 0.6168,-2.06252 0.9946,-4.19787 1.1084,-6.38103 -3.8236,-5.17674 -8.1344,-8.21586 -8.1344,-8.21586 -9.2792,-6.26032 -20.3882,-3.61502 -22.8714,4.4847 l -0.032,0.034 -0.4802,1.09498 c 0.3027,-8.47079 10.3398,-13.89568 20.9231,-10.25103 0,0 4.9821,1.82805 10.0121,5.88247 -0.068,-0.32325 -0.1365,-0.64651 -0.2253,-0.96977 -0.544,-2.1399 -1.3315,-4.17055 -2.3488,-6.06004 -5.8675,-2.54056 -11.0659,-3.01405 -11.0659,-3.01405 -11.1705,-0.77628 -19.4619,7.05712 -17.5638,15.31847 l -0.014,0.0433 0.1252,1.19289 c -3.967,-7.48963 2.0097,-17.19889 12.9959,-19.34331 0,0 5.1005,-0.88558 11.3731,0.0501 -1.5909,-1.68004 -3.4072,-3.15297 -5.4214,-4.3959 -6.2886,0.73758 -10.9793,2.91391 -10.9793,2.91391 -10.0553,4.90809 -13.3237,15.8466 -7.5495,22.05232 l 0.01,0.0363 0.7101,0.97889 c -7.1807,-4.50289 -6.8553,-15.91266 1.5886,-23.25661 0,0 3.9466,-3.29181 9.8163,-5.62065 -2.4216,-0.72619 -4.932,-1.09498 -7.4652,-1.11321 -4.907,3.73572 -7.7725,7.7947 -7.7725,7.7947 -6.2566,9.28581 -3.6165,20.38823 4.4815,22.87646 l 0.03,0.0274 1.1016,0.48945 c -8.4667,-0.30507 -13.8904,-10.34438 -10.2465,-20.93233 0,0 1.6774,-4.56437 5.3782,-9.36321 -2.119,0.54865 -4.1241,1.34995 -6.0041,2.35847 -2.3898,5.7026 -2.8359,10.66534 -2.8359,10.66534 -0.7806,11.17526 7.0579,19.46852 15.3174,17.57219 l 0.036,0.0112 1.2017,-0.13427 c -7.4902,3.97702 -17.2065,-2.00559 -19.339,-12.99875 0,0 -0.8558,-4.91042 0,-11.02963 -1.7844,1.69144 -3.3457,3.6333 -4.6385,5.80051 0.8012,6.03042 2.8473,10.46047 2.8473,10.46047 4.9092,10.06437 15.8408,13.32884 22.0429,7.55112 l 0.046,-0.009 0.9696,-0.70344 c -4.4928,7.17777 -15.9069,6.85907 -23.247,-1.59353 0,0 -3.7645,-4.70549 -5.7309,-10.18275 0,-0.25726 -0.075,-0.50311 -0.2344,-0.69888 -0.2026,-0.23675 -0.4985,-0.37791 -0.8171,-0.37791 h -5.451 c -0.5007,0 -0.9309,0.34833 -1.0356,0.83549 0,0 -0.4188,0.63516 -0.6122,1.88949 -1.2108,-1.08591 -2.6448,-1.71419 -3.9557,-2.28102 l -0.5531,-0.2368 c -0.064,-0.0251 -0.1342,-0.05 -0.198,-0.0637 -5.9244,-1.30214 -11.8761,0.48489 -16.7558,5.02419 -2.8814,2.65442 -4.9525,5.80051 -6.127,9.20158 0,0 -0.036,0.0865 -0.1001,0.22312 l 2.3192,-13.36303 c 0.05,-0.30274 -0.034,-0.61916 -0.2344,-0.85595 -0.2048,-0.23674 -0.5007,-0.37563 -0.8102,-0.37335 l -5.8174,0.007 c -0.5099,0.005 -0.9446,0.36651 -1.0379,0.8719 l -6.0108,32.790551 c -0.052,0.307325 0.032,0.623758 0.2321,0.867344 0.198,0.236753 0.4961,0.371065 0.8079,0.371065 l 6.1316,0.01595 c 0.5189,0 0.9582,-0.371066 1.0424,-0.878726 l 2.3169,-13.340224 c 0.025,0.0842 0.046,0.13888 0.046,0.13888 -0.02,1.32493 0.089,2.67033 0.3369,4.01345 0.9012,5.012829 5.3462,9.691001 10.1372,10.642573 4.1787,0.75807 8.6488,-0.302772 13.0596,-3.025465 -0.087,0.475795 -0.2253,1.195167 -0.2253,1.195167 -0.011,0.06146 -0.016,0.127484 -0.016,0.193502 0,0.243582 0.084,0.482615 0.2413,0.673842 0.198,0.239028 0.4961,0.371066 0.8171,0.371066 l 5.41,0.01595 c 0.5098,0 0.9491,-0.359684 1.0379,-0.860512 l 4.7636,-25.808553 c 3.5642,4.23428 8.2277,7.84935 8.2277,7.84935 9.2769,6.26488 20.3792,3.61962 22.8623,-4.47787 l 0.036,-0.034 0.4825,-1.09953 c -0.3028,8.47079 -10.3421,13.89795 -20.9278,10.24874 0,0 -4.5633,-1.67777 -9.3725,-5.37935 0.041,0.1753 0.075,0.3574 0.1207,0.53498 0.5712,2.2173 1.3974,4.31851 2.4671,6.27172 5.5944,2.30381 10.4195,2.7386 10.4195,2.7386 11.1637,0.78084 19.4574,-7.05711 17.5593,-15.31846 l 0.016,-0.0433 -0.132,-1.19744 c 3.9715,7.48963 -2.0075,17.21479 -12.9959,19.343307 0,0 -4.8024,0.840047 -10.8224,0.02744 1.4408,1.518419 3.0658,2.879768 4.8593,4.045349 6.2385,-0.753535 10.861,-2.904791 10.861,-2.904791 10.0598,-4.905865 13.3304,-15.846655 7.554,-22.045535 l -0.011,-0.0478 -0.7055,-0.96749 c 7.1807,4.49832 6.8598,15.90353 -1.5864,23.254324 0,0 -4.0285,3.346418 -9.9825,5.679832 1.6433,0.553186 3.3298,0.947019 5.039,1.172391 h 2.4354 c 5.0026,-3.77213 7.9204,-7.917618 7.9204,-7.917618 6.2635,-9.283539 3.6234,-20.392789 -4.4769,-22.874139 l -0.034,-0.034 -1.0948,-0.48493 c 8.469,0.30735 13.8927,10.34666 10.2488,20.93461 0,0 -1.8208,4.953628 -5.8561,9.977846 0.3254,-0.07285 0.6372,-0.138864 0.9582,-0.223093 2.0461,-0.519041 3.9716,-1.277111 5.7628,-2.201367 2.5036,-5.825526 2.9633,-10.972686 2.9633,-10.972686 0.7852,-11.16163 -7.0556,-19.46396 -15.3197,-17.56535 l -0.034,-0.009 -1.1949,0.12745 c 7.4834,-3.97019 17.2042,2.01014 19.3413,13.0033 0,0 1.2336,5.04698 0.3095,11.025071 -0.1775,0.86279 -0.5394,2.114837 -1.2358,3.448883 -0.2117,0.37107 -0.4757,0.810409 -0.7943,1.320344 0.01,-0.0068 0.01,-0.01367 0.01,-0.01367 0,0.01367 -0.016,0.02502 -0.025,0.04098 -0.01,0.01595 -0.01,0.01823 -0.01,0.02958 -0.1252,0.213991 -0.1525,0.48034 -0.046,0.719373 0.1252,0.280009 0.4074,0.459851 0.7192,0.453018 h 3.4049 c 1.7889,-0.0091 3.3275,-0.01819 5.3736,0.05236 0.2436,0.0047 0.4757,-0.100167 0.6327,-0.280009 0,0 26.3377,-31.49751 29.6015,-35.39942 -1.2495,6.45842 -4.791,23.06312 -7.3264,34.723304 -0.01,0.05463 -0.013,0.111544 -0.013,0.166181 0,0.179842 0.059,0.355135 0.1706,0.494 0.1502,0.191223 0.3779,0.295944 0.6236,0.295944 l 5.9882,-0.05236 c 0.2275,0 0.4438,-0.09789 0.5917,-0.273177 0,0 26.5494,-31.064952 29.9474,-35.032862 -1.4156,6.48117 -5.2916,22.86047 -8.0547,34.384062 -0.018,0.06147 -0.027,0.118377 -0.027,0.184396 0,0.170739 0.059,0.343749 0.1707,0.487167 0.1525,0.191228 0.3755,0.302777 0.6213,0.302777 h 7.0829 c 0.3619,0 0.6828,-0.24586 0.7693,-0.605549 l 3.0657,-12.438713 0.4257,-1.74837 c 0.013,0.49856 0.02,0.89465 0.02,0.89465 -0.014,1.32493 0.096,2.67033 0.3437,4.01349 0.8945,5.01279 5.3485,9.69099 10.1304,10.642562 4.1787,0.75807 8.6533,-0.302772 13.0642,-3.025447 -0.089,0.475777 -0.2253,1.195149 -0.2253,1.195149 -0.011,0.06146 -0.018,0.127484 -0.018,0.193502 0,0.243582 0.082,0.482615 0.2367,0.673842 0.2071,0.239028 0.5053,0.371066 0.8148,0.371066 l 5.4145,0.01595 c 0.5144,0 0.9492,-0.359684 1.0402,-0.860512 l 4.8888,-25.983842 1.1721,-7.00247 c 0,-0.25725 -0.075,-0.50311 -0.2458,-0.69888 z"
     id="Fill-2"
     style="fill:#ffffff;fill-opacity:1;fill-rule:evenodd;stroke:none;stroke-width:1" /></g></svg>
