<?xml version="1.0" encoding="UTF-8" standalone="no"?>
<!-- Generator: Adobe Illustrator 26.0.3, SVG Export Plug-In . SVG Version: 6.00 Build 0)  -->

<svg
   version="1.0"
   id="katman_1"
   x="0px"
   y="0px"
   viewBox="0 0 450 300"
   xml:space="preserve"
   width="450"
   height="300"
   xmlns="http://www.w3.org/2000/svg"
   xmlns:svg="http://www.w3.org/2000/svg"><defs
   id="defs9"><style
     id="style1">.cls-1{fill:#003d8d;}.cls-2{fill:#fff;}.cls-3{fill:#f60;}</style></defs>
<style
   type="text/css"
   id="style2">
	.st0{fill:#010202;}
</style>

<g
   id="g12"
   transform="translate(-1514.8168,206.44466)"><rect
     style="fill:#000000;fill-opacity:1;fill-rule:evenodd;stroke-width:0.999985"
     id="rect1-3-0-8-3-2"
     width="450.00003"
     height="300"
     x="1514.8168"
     y="-206.44466"
     rx="20"
     ry="20" /><g
     id="g6"
     transform="matrix(0.87500362,0,0,0.87500362,1564.8161,-106.78265)"
     style="stroke-width:1.14286"><path
       d="M 191.69015,52.72573 H 179.08586 V 32.35318 H 157.40037 V 52.72573 H 144.7195 V 1.22541 h 12.68087 v 20.05527 h 21.68549 V 1.22541 h 12.60429 z m 49.7169,-37.74719 C 239.49231,5.6019 231.34113,0.06565 220.12637,0.06565 c -12.07911,0 -20.37256,6.22553 -20.37256,16.22584 0,9.3766 6.45533,13.21699 13.8297,14.90192 l 10.76616,2.30861 c 3.6872,0.77682 4.75943,2.23199 4.75943,4.54059 0,3.15107 -2.84471,5.30649 -7.60413,5.30649 -5.15331,0 -8.84051,-2.3086 -10.15346,-7.61509 l -13.0638,2.53836 c 1.38952,10.06592 10.91931,15.60217 22.52796,15.60217 11.45546,0 21.215,-5.68942 21.215,-16.68534 0,-8.14027 -5.22988,-12.98724 -14.14698,-14.98947 l -10.67863,-2.37425 c -3.2386,-0.6893 -4.15765,-2.232 -4.15765,-4.31084 0,-2.92131 2.69154,-5.21896 6.91485,-5.21896 4.08107,0 8.07461,2.37426 8.99368,7.22122 z M 297.98409,1.22541 H 285.37981 V 31.97024 L 259.3178,1.22541 h -10.53638 v 51.50032 h 12.69179 V 22.89997 l 26.05107,29.82576 h 10.45981 z m 47.84595,40.58099 h -27.44059 v -9.68299 h 24.9788 V 21.81678 h -24.9788 v -9.68297 h 27.21083 V 1.22541 h -39.8917 v 51.50032 h 40.12146 z M 400,52.72573 383.85077,34.43202 c 8.30438,-1.84908 13.52334,-7.92146 13.52334,-16.37902 0,-10.06592 -7.37438,-16.82759 -18.51252,-16.82759 h -26.06198 v 51.50032 h 12.68084 v -17.681 h 3.6872 l 15.52559,17.681 z M 365.48045,24.43176 V 12.05722 h 11.99158 c 4.54062,0 7.46196,2.46176 7.46196,6.14896 0,3.76379 -2.92134,6.22558 -7.46196,6.22558 z m -239.95187,8.17305 c -1.40047,3.88415 -4.23423,6.89299 -7.92143,8.43569 -1.78341,0.74402 -3.75283,1.15979 -5.85353,1.15979 -2.11167,0 -4.08111,-0.41577 -5.8645,-1.15979 -3.6872,-1.5427 -6.520983,-4.55154 -7.92145,-8.43569 -0.623667,-1.71776 -0.973787,-3.61059 -0.973787,-5.63469 0,-2.06792 0.361067,-4.0045 1.006614,-5.76604 1.411426,-3.87319 4.234253,-6.88203 7.899543,-8.43568 1.77247,-0.75495 3.75286,-1.15978 5.85358,-1.15978 2.08976,0 4.07012,0.40483 5.84258,1.15978 3.66532,1.55365 6.48815,4.56249 7.91051,8.43568 l 11.56488,-4.79227 C 134.27063,9.80333 128.87662,4.5953 122.09304,1.93661 118.90915,0.68929 115.42986,0 111.75362,0 108.06642,0 104.5871,0.68929 101.4032,1.93661 94.619656,4.5953 89.236563,9.79238 86.424683,16.41181 c -1.36764,3.22768 -2.122614,6.80545 -2.122614,10.55831 0,3.72 0.744014,7.23213 2.100721,10.42696 2.790026,6.61944 8.18404,11.82746 15.00041,14.47524 3.1839,1.23636 6.66322,1.92565 10.35042,1.92565 3.67624,0 7.15553,-0.68929 10.33942,-1.92565 6.8164,-2.64778 12.21042,-7.8558 15.00042,-14.47524 z M 75.855469,62.4087 c 11.608627,0 18.917374,7.14462 18.917374,17.75761 0,10.8318 -7.538507,17.9874 -19.453507,17.9874 H 63.174602 v 15.7553 H 50.493708 V 62.4087 Z m -1.455187,25.13201 c 4.923547,0 7.921427,-2.8447 7.921427,-7.2212 0,-4.1468 -2.99788,-7.06806 -7.921427,-7.06806 h -11.22568 v 14.28926 z m 81.008778,0.6893 c 0,15.0004 -12.06816,26.8278 -27.44056,26.8278 -15.37242,0 -27.4406,-11.8274 -27.4406,-26.8278 0,-15.05514 12.06818,-26.97013 27.4406,-26.97013 15.3724,0 27.44056,11.91499 27.44056,26.97013 m -12.68087,0 c 0,-8.8296 -6.37872,-15.37244 -14.75969,-15.37244 -8.38099,0 -14.75971,6.54284 -14.75971,15.37244 0,8.7639 6.37872,15.2301 14.75971,15.2301 8.38097,0 14.75969,-6.4662 14.75969,-15.2301 M 211.81103,62.4087 v 11.07251 h 16.67444 v 40.4278 h 12.6152 v -40.4278 h 16.67445 V 62.4087 Z M 43.119335,76.17271 C 41.204641,66.7852 33.053414,61.25988 21.827734,61.25988 c -12.068187,0 -20.3725606,6.22556 -20.3725606,16.21493 0,9.3766 6.4662535,13.217 13.8406536,14.9128 l 10.766161,2.3086 c 3.687173,0.7659 4.759413,2.2211 4.759413,4.5297 0,3.1511 -2.844707,5.3065 -7.604147,5.3065 -5.153293,0 -8.840494,-2.3086 -10.15344,-7.6151 L 0,99.45571 c 1.3786,10.0768 10.919347,15.6021 22.517027,15.6021 11.455441,0 21.215014,-5.6894 21.215014,-16.6744 0,-8.1512 -5.229906,-12.9872 -14.136067,-14.9894 l -10.689547,-2.3852 c -3.22768,-0.6893 -4.146733,-2.232 -4.146733,-4.2999 0,-2.92134 2.691547,-5.22994 6.914853,-5.22994 4.070121,0 8.074614,2.38519 8.993694,7.22124 z m 150.562125,37.7363 -15.5256,-17.681 h -3.69815 v 17.681 H 161.77685 V 62.4087 h 26.062 c 11.13814,0 18.52348,6.76167 18.52348,16.83851 0,8.4576 -5.22992,14.53 -13.52336,16.3681 l 16.13829,18.2937 z m -7.23217,-28.283 c 4.54062,0 7.46193,-2.4618 7.46193,-6.2256 0,-3.6981 -2.92131,-6.14896 -7.46193,-6.14896 H 174.45771 V 85.62601 Z M 69.761216,7.63696 61.205175,16.18205 c 2.5274,2.72437 4.048241,6.48816 4.048241,10.78807 0,8.76389 -6.378721,15.23017 -14.759708,15.23017 -8.380973,0 -14.759693,-6.46628 -14.759693,-15.23017 0,-8.82959 6.37872,-15.3615 14.759693,-15.3615 0,-1.45517 0,-9.48604 0,-11.60862 -15.3724,0 -27.440561,11.915 -27.440561,26.97012 0,15.00038 12.068161,26.82785 27.440561,26.82785 15.372414,0 27.440601,-11.82747 27.440601,-26.82785 0,-7.637 -3.10732,-14.46432 -8.173093,-19.33316"
       fill="#e90523"
       id="path1-8"
       style="fill:#ffffff;fill-opacity:1;stroke-width:1.14286" /><path
       d="m 50.493708,11.60862 c 4.28896,0 8.063694,1.71778 10.711467,4.57343 L 69.761216,7.63696 C 64.837669,2.88848 58.065055,0 50.493708,0 Z"
       id="path2-6"
       style="fill:#e40622;fill-opacity:1;stroke-width:1.14286" /></g></g></svg>
