<?xml version="1.0" encoding="UTF-8" standalone="no"?>
<!-- Created with Inkscape (http://www.inkscape.org/) -->

<svg
   width="80mm"
   height="93mm"
   viewBox="0 0 80 93"
   version="1.1"
   id="svg1"
   xml:space="preserve"
   xmlns="http://www.w3.org/2000/svg"
   xmlns:svg="http://www.w3.org/2000/svg"><defs
     id="defs1" /><g
     id="layer1"><rect
       style="fill:#ffffff;fill-opacity:1;fill-rule:evenodd;stroke-width:0.264583"
       id="rect119"
       width="80"
       height="93"
       x="0"
       y="-1.4210855e-14" /><path
       id="path1"
       d="M 9.8110361,9.9152055 V 24.397967 H 24.293786 V 9.9152055 Z m 18.6206699,0 v 4.1379325 h -2.06896 v 12.413796 h 4.13794 v -2.068966 h -2.06898 V 22.329 h 2.06898 v -4.137931 h -2.06898 v -2.068967 h 2.06898 v -4.137929 h 6.2069 V 9.9152055 Z M 30.500686,22.329 v 2.068967 h 2.06896 V 22.329 Z m 2.06896,2.068967 v 2.068966 h -2.06896 v 2.068964 h 2.06896 v 6.206896 h 4.13794 v -4.137931 h -2.06898 v -4.137929 h 4.13794 v -2.068966 h -2.06896 v -2.068968 h -2.06898 v 2.068968 z M 36.707586,22.329 h 2.06896 v 2.068967 h 2.06896 V 22.329 h 2.06898 v 2.068967 h 2.06896 V 22.329 h 2.06896 v 2.068967 h 2.06897 v -4.137932 h -6.20689 v -4.137932 h -2.06898 v 4.137932 h -2.06896 V 18.19107 h -4.13794 v 2.068965 h 2.06898 z m -2.06898,-4.137931 v -2.068967 h -2.06896 v 2.068967 z m 14.48277,6.206898 v 2.068966 h 4.13792 V 22.329 h -2.06896 v 2.068967 z m -10.34483,2.068966 v 2.068964 h 4.13794 v -2.068964 z m -8.27586,2.068964 h -6.2069 v 2.068965 h 2.06896 v 2.068966 h 4.13794 z m -4.13794,4.137931 h -2.06896 v 2.068965 h 2.06896 z m 0,2.068965 v 2.068965 h -2.06896 v 2.068967 h 2.06896 v 2.068965 h 2.06896 v -6.206897 z m 0,6.206897 h -2.06896 v 2.068965 h 2.06896 z m 0,2.068965 v 4.137931 h 2.06896 v 2.068965 h -2.06896 v -2.068965 h -6.2069 v 2.068965 h 4.13794 v 2.068967 h 4.13792 v 2.068964 h -2.06896 v 2.068961 h 2.06896 v 2.068971 h -2.06896 v 8.275863 h 2.06896 V 63.70831 h 2.06898 v -2.068966 h 4.13792 v 4.137933 h -2.06896 v 2.068966 h 4.13794 v -2.068966 h 2.06896 v -4.137933 h -2.06896 V 59.57038 h 2.06896 v -2.068965 h 4.13794 v -2.068971 h 2.06896 v -2.068961 h -2.06896 v -2.068964 h -2.06898 v 2.068964 h -4.13792 v 2.068961 h -2.06898 v 4.137936 h -4.13792 v -2.068965 h 2.06896 v -2.068971 h -2.06896 v -4.137925 h 4.13792 v 2.068964 h 2.06898 v -8.275861 h -2.06898 v 4.13793 h -4.13792 v -4.13793 h -2.06898 v -2.068966 z m 8.27586,10.344827 h -2.06896 v 2.068961 h 2.06896 z m 6.2069,-2.068964 v -2.068967 h -2.06896 v 2.068967 z m 0,-2.068967 h 2.06898 v -2.068965 h -2.06898 z m 2.06898,0 v 2.068967 h 2.06896 v -2.068967 z m 2.06896,0 h 4.13793 v -2.068965 h -4.13793 z m 4.13793,0 v 2.068967 h 2.06896 v 10.344826 h 6.2069 v 2.068967 h 2.06896 v -2.068967 h 4.13794 V 59.57038 h -2.06896 v -4.137937 h 2.06896 v -2.068961 h -2.06896 v -2.068964 h -2.06898 v -2.068967 h -2.06896 v 2.068967 h -2.06896 v -8.275863 h 2.06896 V 40.94969 h 2.06896 v 8.275861 h 2.06898 v -2.068965 h 2.06896 v -4.137931 h -2.06896 v -4.13793 h -6.2069 v -2.068967 h -2.06898 v 2.068967 h -2.06896 v 2.068965 h 2.06896 v 4.137931 h -2.06896 v 2.068965 h 2.06896 v 2.068965 z m 4.13792,-12.413793 v -2.068965 h 2.06898 v -4.137931 h 2.06896 v 2.068966 h 6.2069 v -2.068966 h -4.13794 v -2.068965 h 4.13794 v 2.068965 h 6.2069 v -2.068965 h -4.13794 v -2.068964 h -10.34482 v 2.068964 h -8.27587 v 2.068965 h 6.20689 v 2.068966 h -6.20689 v 2.068965 h -2.06896 v -2.068965 h -2.06896 v 2.068965 h -2.06898 v 2.068965 h 2.06898 v 2.068967 h -2.06898 v -2.068967 h -4.13792 v 2.068967 h -2.06898 v 2.068965 h 2.06898 v 2.068965 h 2.06896 V 40.94969 h 10.34483 v -6.206897 h 2.06896 v 2.068965 z m -14.48275,6.206897 v 2.068966 h 4.13794 v -2.068966 z m -4.13794,-4.13793 v -2.068967 h -2.06896 v 2.068967 z m -2.06896,0 h -2.06896 v 4.13793 h 2.06896 z m 8.27586,-4.137932 v -2.068965 h -2.06896 v 2.068965 z m 0,-2.068965 h 2.06898 v -2.068966 h -2.06898 z m 4.13794,0 h 2.06896 v -2.068966 h -2.06896 z m 18.62069,10.344828 h 2.06896 v -2.068965 h -2.06896 z m 2.06896,0 v 4.137931 h 4.13794 v -2.068965 h -2.06896 v -2.068966 z m 0,4.137931 h -2.06896 v 4.137932 h 2.06896 z m -8.27586,16.551724 h -2.06896 v 2.068966 h 2.06896 z m 0,2.068966 v 4.137933 h 4.13794 v -4.137933 z m 4.13794,0 h 2.06896 v -2.068966 h -2.06896 z m -10.34484,-4.137933 h -4.13793 v 2.068967 h -2.06896 v -2.068967 h -2.06896 v 2.068967 h -2.06898 v 2.068966 h 8.27587 v -2.068966 h 2.06896 z m 0,2.068967 v 2.068966 h 2.06896 v -2.068966 z m -8.27585,-2.068967 V 59.57038 h -4.13794 v 2.068964 z m 0,-2.068964 h 2.06896 v -2.068965 h -2.06896 z m 2.06896,-2.068965 h 2.06896 v 2.068965 h 2.06897 v -4.137937 h -4.13793 z m 4.13793,-6.206896 h -2.06897 v 2.068964 h 2.06897 z m -12.41379,16.551723 v 2.068967 h 2.06896 v -2.068967 z m -4.13794,-2.068965 V 63.70831 h -2.06896 v 2.068967 z m -2.06896,0 h -2.06898 v 2.068965 h -2.06896 v 2.068967 h 4.13794 z m -6.2069,-14.482759 h -4.13794 v 2.068964 h 4.13794 z m -4.13794,0 v -2.068967 h -2.06896 v 2.068967 z m -2.06896,0 h -2.06896 v -2.068967 h -2.06897 v 4.137931 h 4.13793 z m 2.06896,-4.137932 v -2.068965 h -2.06896 v -2.068966 h -2.06896 v 4.137931 z m 0,-2.068965 h 4.13794 v -2.068966 h -2.06896 V 40.94969 h 2.06896 v -2.068965 h -4.13794 v -2.068967 h -2.06896 v -2.068965 h -2.06896 v 2.068965 h -2.06897 v 2.068967 h 2.06897 v 2.068965 h 4.13792 z m -6.20689,-6.206896 h -2.06896 v 2.068965 h 2.06896 z m 0,-2.068967 V 34.742793 H 9.8110361 v 2.068965 z m 4.13793,-2.068965 h 2.06896 v 2.068965 h 4.13794 v -2.068965 h -2.06896 v -2.068965 h -4.13794 z m 0,-2.068965 v -2.068966 h 2.06896 v -2.068965 h 4.13794 v -2.068964 h -10.34483 v 2.068964 h 2.06897 v 2.068965 h -4.13793 v 2.068966 z m 4.13794,0 h 2.06896 v -2.068966 h -2.06896 z M 38.776546,9.9152055 v 2.0689675 h 2.06896 V 9.9152055 Z m 2.06896,2.0689675 v 2.068964 h 8.27587 v 2.068965 h 2.06896 v -2.068965 h 2.06896 v -2.068964 z m 10.34483,4.137929 v 4.137932 h 2.06896 v -4.137932 z m -2.06896,0 h -2.06897 v 2.068967 h 2.06897 z m 6.2069,-6.2068965 V 24.397967 h 14.48276 V 9.9152055 Z m -43.44828,2.0689675 h 10.34483 v 10.344826 h -10.34483 z m 45.51724,0 h 10.34484 v 10.344826 h -10.34484 z m -43.44828,2.068964 v 6.206897 h 6.20689 v -6.206897 z m 45.51724,0 v 6.206897 h 6.2069 V 14.053137 Z M 9.8110361,26.466933 v 2.068964 h 2.0689599 v -2.068964 z m 55.8620599,6.206895 v 2.068965 h 4.13794 v -2.068965 z m 0,2.068965 h -2.06896 v 2.068965 h 2.06896 z m -8.27586,0 v 2.068965 h 4.13794 v -2.068965 z m -12.41379,2.068965 h 2.06896 v 2.068967 h -2.06896 z m 22.75863,0 v 2.068967 h 2.06896 V 36.811758 Z M 9.8110361,43.018655 v 10.344827 h 2.0689599 v -6.206896 h 2.06896 v -4.137931 z m 35.1724099,0 v 2.068966 h 4.13793 v -2.068966 z m 22.75863,8.275863 v 2.068964 h -2.06898 v 2.068961 h 4.13794 v -4.137925 z m -14.48278,2.068964 h 6.2069 v 6.206897 h -6.2069 z M 9.8110361,55.432443 V 69.915209 H 24.293786 V 55.432444 Z m 45.5172399,0 v 2.068971 h 2.06896 v -2.068971 z m -43.44828,2.068971 h 10.34483 v 10.344828 h -10.34483 z m 53.7931,0 v 2.068965 h 2.06898 v -2.068964 z m -51.72414,2.068965 v 6.206898 h 6.20689 v -6.206898 z m 51.72414,2.068965 v 6.206898 h 2.06898 v -6.206898 z m 0,6.206898 h -2.06896 v 2.068967 h 2.06896 z m -24.82759,0 v 2.068967 h 6.2069 v -2.068967 z m 12.41379,0 v 2.068967 h 2.06898 v -2.068967 z"
       style="clip-rule:evenodd;fill:#000000;fill-opacity:0.979546;fill-rule:evenodd;stroke-width:0.264583;image-rendering:optimizeQuality;shape-rendering:geometricPrecision;text-rendering:geometricPrecision" /><text
       style="font-style:normal;font-variant:normal;font-weight:normal;font-stretch:normal;font-size:5.29167px;line-height:normal;font-family:monospace;fill:#000000;stroke-width:0.264583"
       text-anchor="middle"
       x="39.810753"
       y="82.922928"
       id="text50">3 328 703 990</text></g></svg>
