<?xml version="1.0" encoding="UTF-8" standalone="no"?>
<svg
   id="barcode"
   width="362"
   height="142"
   x="0px"
   y="0px"
   viewBox="0 0 362 142"
   version="1.1"
   xmlns="http://www.w3.org/2000/svg"
   xmlns:svg="http://www.w3.org/2000/svg">
  <defs
     id="defs50" />
  <rect
     x="0"
     y="0"
     width="362"
     height="142"
     style="fill:#ffffff"
     id="rect1" />
  <g
     transform="translate(10,10)"
     style="fill:#000000"
     id="g50">
    <rect
       x="0"
       y="0"
       width="2"
       height="100"
       id="rect2" />
    <rect
       x="4"
       y="0"
       width="2"
       height="100"
       id="rect3" />
    <rect
       x="8"
       y="0"
       width="2"
       height="100"
       id="rect4" />
    <rect
       x="12"
       y="0"
       width="2"
       height="100"
       id="rect5" />
    <rect
       x="16"
       y="0"
       width="2"
       height="100"
       id="rect6" />
    <rect
       x="24"
       y="0"
       width="6"
       height="100"
       id="rect7" />
    <rect
       x="36"
       y="0"
       width="6"
       height="100"
       id="rect8" />
    <rect
       x="44"
       y="0"
       width="6"
       height="100"
       id="rect9" />
    <rect
       x="52"
       y="0"
       width="2"
       height="100"
       id="rect10" />
    <rect
       x="60"
       y="0"
       width="2"
       height="100"
       id="rect11" />
    <rect
       x="64"
       y="0"
       width="2"
       height="100"
       id="rect12" />
    <rect
       x="68"
       y="0"
       width="6"
       height="100"
       id="rect13" />
    <rect
       x="80"
       y="0"
       width="2"
       height="100"
       id="rect14" />
    <rect
       x="84"
       y="0"
       width="6"
       height="100"
       id="rect15" />
    <rect
       x="92"
       y="0"
       width="2"
       height="100"
       id="rect16" />
    <rect
       x="100"
       y="0"
       width="2"
       height="100"
       id="rect17" />
    <rect
       x="108"
       y="0"
       width="6"
       height="100"
       id="rect18" />
    <rect
       x="116"
       y="0"
       width="2"
       height="100"
       id="rect19" />
    <rect
       x="120"
       y="0"
       width="2"
       height="100"
       id="rect20" />
    <rect
       x="124"
       y="0"
       width="6"
       height="100"
       id="rect21" />
    <rect
       x="136"
       y="0"
       width="6"
       height="100"
       id="rect22" />
    <rect
       x="148"
       y="0"
       width="2"
       height="100"
       id="rect23" />
    <rect
       x="152"
       y="0"
       width="6"
       height="100"
       id="rect24" />
    <rect
       x="164"
       y="0"
       width="2"
       height="100"
       id="rect25" />
    <rect
       x="172"
       y="0"
       width="6"
       height="100"
       id="rect26" />
    <rect
       x="180"
       y="0"
       width="2"
       height="100"
       id="rect27" />
    <rect
       x="184"
       y="0"
       width="2"
       height="100"
       id="rect28" />
    <rect
       x="188"
       y="0"
       width="6"
       height="100"
       id="rect29" />
    <rect
       x="200"
       y="0"
       width="6"
       height="100"
       id="rect30" />
    <rect
       x="212"
       y="0"
       width="2"
       height="100"
       id="rect31" />
    <rect
       x="216"
       y="0"
       width="2"
       height="100"
       id="rect32" />
    <rect
       x="220"
       y="0"
       width="2"
       height="100"
       id="rect33" />
    <rect
       x="224"
       y="0"
       width="6"
       height="100"
       id="rect34" />
    <rect
       x="236"
       y="0"
       width="6"
       height="100"
       id="rect35" />
    <rect
       x="244"
       y="0"
       width="2"
       height="100"
       id="rect36" />
    <rect
       x="248"
       y="0"
       width="2"
       height="100"
       id="rect37" />
    <rect
       x="256"
       y="0"
       width="2"
       height="100"
       id="rect38" />
    <rect
       x="260"
       y="0"
       width="2"
       height="100"
       id="rect39" />
    <rect
       x="268"
       y="0"
       width="6"
       height="100"
       id="rect40" />
    <rect
       x="276"
       y="0"
       width="2"
       height="100"
       id="rect41" />
    <rect
       x="280"
       y="0"
       width="6"
       height="100"
       id="rect42" />
    <rect
       x="292"
       y="0"
       width="2"
       height="100"
       id="rect43" />
    <rect
       x="296"
       y="0"
       width="2"
       height="100"
       id="rect44" />
    <rect
       x="304"
       y="0"
       width="2"
       height="100"
       id="rect45" />
    <rect
       x="308"
       y="0"
       width="2"
       height="100"
       id="rect46" />
    <rect
       x="312"
       y="0"
       width="6"
       height="100"
       id="rect47" />
    <rect
       x="320"
       y="0"
       width="6"
       height="100"
       id="rect48" />
    <rect
       x="332"
       y="0"
       width="6"
       height="100"
       id="rect49" />
    <rect
       x="340"
       y="0"
       width="2"
       height="100"
       id="rect50" />
    <text
       style="font-style:normal;font-variant:normal;font-weight:normal;font-stretch:normal;font-size:20px;line-height:normal;font-family:monospace"
       text-anchor="middle"
       x="171"
       y="122"
       id="text50">701 220 005 333 389 871</text>
  </g>
</svg>
