<?xml version="1.0" encoding="UTF-8" standalone="no"?>
<!-- Created with Inkscape (http://www.inkscape.org/) -->

<svg
   width="80mm"
   height="93mm"
   viewBox="0 0 80 93"
   version="1.1"
   id="svg1"
   xml:space="preserve"
   xmlns="http://www.w3.org/2000/svg"
   xmlns:svg="http://www.w3.org/2000/svg"><defs
     id="defs1" /><g
     id="layer1"><rect
       style="fill:#ffffff;fill-opacity:1;fill-rule:evenodd;stroke-width:0.264583"
       id="rect119"
       width="80"
       height="93"
       x="0"
       y="-1.4210855e-14" /><path
       id="path5-2-99-1466"
       style="clip-rule:evenodd;fill:#000000;fill-opacity:1;fill-rule:evenodd;stroke-width:0.264583;image-rendering:optimizeQuality;shape-rendering:geometricPrecision;text-rendering:geometricPrecision"
       d="m 22.978902,9.9123455 v 1.4634105 h -1.46341 v 1.46342 h 1.46341 v 1.46341 h 1.46342 v -1.46341 -1.46342 h 1.46341 v 1.46342 h 1.46341 v -1.46342 h 1.46342 V 9.9123455 h -1.46342 -1.46341 -1.46341 z m 5.85366,1.4634105 v 1.46342 h 1.46341 v -1.46342 z m 1.46341,1.46342 v 1.46341 h 1.46341 v -1.46341 z m 1.46341,0 h 1.46343 1.46341 1.46341 1.46342 v 1.46341 h 1.46341 v -1.46341 h 1.46341 v -1.46342 h -1.46341 -1.46341 -1.46342 -1.46341 -1.46341 -1.46343 z m 8.78049,-1.46342 h 1.46342 1.46341 1.46341 1.46343 V 9.9123455 h -1.46343 -1.46341 -1.46341 -1.46342 z m 5.85367,0 v 1.46342 h 1.46341 v -1.46342 z m 1.46341,0 h 1.46341 1.46342 v 1.46342 h 1.46341 1.46341 1.46342 v -1.46342 h -1.46342 -1.46341 V 9.9123455 h -1.46341 -1.46342 -1.46341 z m 7.31707,0 h 1.46341 V 9.9123455 h -1.46341 z m 1.46341,0 v 1.46342 h 1.46341 v -1.46342 z m 0,1.46342 h -1.46341 v 1.46341 h 1.46341 z m -1.46341,1.46341 h -1.46342 v 1.46341 1.46343 h -1.46341 -1.46341 v -1.46343 -1.46341 -1.46341 h -1.46342 -1.46341 v 1.46341 h 1.46341 v 1.46341 1.46343 1.463406 h 1.46342 v 1.46341 h 1.46341 v -1.46341 h 1.46341 v 1.46341 h 1.46342 v -1.46341 -1.463406 -1.46343 z m 0,5.853656 v 1.46342 h 1.46341 v -1.46342 z m 1.46341,0 h 1.46341 v -1.46341 -1.463406 h -1.46341 v 1.463406 z m 0,1.46342 v 1.46342 h 1.46341 1.46343 v -1.46342 h -1.46343 z m -1.46341,0 h -1.46342 v 1.46342 1.46341 h -1.46341 -1.46341 v 1.46342 h 1.46341 1.46341 1.46342 v -1.46342 -1.46341 z m 0,4.39025 v 1.46341 h 1.46341 v -1.46341 z m 1.46341,0 h 1.46341 1.46343 v -1.46342 h -1.46343 -1.46341 z m 2.92684,0 v 1.46341 h 1.46341 v -1.46341 z m 1.46341,0 h 1.46341 v 1.46341 1.46342 1.46341 h 1.46342 v -1.46341 -1.46342 -1.46341 h 1.46341 1.46341 1.46343 v -1.46342 -1.46341 -1.46342 h -1.46343 v 1.46342 1.46341 h -1.46341 -1.46341 -1.46342 v -1.46341 -1.46342 h -1.46341 v 1.46342 1.46341 z m 7.31708,0 v 1.46341 h 1.46341 v -1.46341 z m 0,1.46341 h -1.46343 v 1.46342 h 1.46343 z m -4.39025,2.92683 v 1.46342 h 1.46341 1.46341 1.46343 v -1.46342 h -1.46343 -1.46341 z m 4.39025,1.46342 v 1.46341 h 1.46341 v -1.46341 z m 0,1.46341 h -1.46343 v 1.46341 h 1.46343 z m -4.39025,-1.46341 h -1.46342 v 1.46341 h -1.46341 v -1.46341 h -1.46341 v 1.46341 h -1.46343 v 1.46341 h 1.46343 1.46341 1.46341 v 1.46342 h 1.46342 v -1.46342 -1.46341 z m 0,4.39024 v 1.46341 h 1.46341 1.46341 v -1.46341 h -1.46341 z m 0,1.46341 h -1.46342 v 1.46342 1.46341 1.46342 h 1.46342 v -1.46342 -1.46341 z m 0,4.39025 v 1.46341 h 1.46341 1.46341 1.46343 v 1.46342 h 1.46341 v -1.46342 -1.46341 h -1.46341 -1.46343 -1.46341 z m 4.39025,2.92683 h -1.46343 v 1.46341 h 1.46343 z m -4.39025,-1.46342 h -1.46342 v 1.46342 h 1.46342 z m -1.46342,0 v -1.46341 h -1.46341 v 1.46341 z m -1.46341,0 h -1.46341 v 1.46342 h 1.46341 z m -1.46341,1.46342 h -1.46343 -1.46341 v 1.46341 h 1.46341 1.46343 z m 0,1.46341 v 1.46341 h 1.46341 v -1.46341 z m 1.46341,1.46341 v 1.46342 h 1.46341 v -1.46342 z m 1.46341,0 h 1.46342 v -1.46341 h -1.46342 z m 1.46342,0 v 1.46342 h 1.46341 1.46341 1.46343 v 1.46341 h 1.46341 v -1.46341 -1.46342 h -1.46341 -1.46343 -1.46341 z m 4.39025,2.92683 h -1.46343 -1.46341 -1.46341 v -1.46341 h -1.46342 v 1.46341 1.46342 1.46341 h 1.46342 v -1.46341 h 1.46341 1.46341 1.46343 z m -4.39025,2.92683 v 1.46342 h 1.46341 1.46341 v -1.46342 h -1.46341 z m 2.92682,1.46342 v 1.46341 1.46342 h 1.46343 1.46341 v -1.46342 h -1.46341 v -1.46341 z m -2.92682,0 h -1.46342 v 1.46341 h -1.46341 v -1.46341 h -1.46341 v 1.46341 h -1.46343 -1.46341 v 1.46342 1.46341 1.46342 1.46341 1.46342 h -1.46341 v -1.46342 h -1.46342 v 1.46342 1.46341 h -1.46341 -1.46341 v -1.46341 -1.46342 h -1.46342 v 1.46342 1.46341 h -1.46341 -1.46341 v 1.46341 h 1.46341 1.46341 1.46342 1.46341 1.46341 1.46342 v -1.46341 h 1.46341 1.46341 1.46343 v -1.46341 h 1.46341 v 1.46341 h 1.46341 1.46342 v -1.46341 h 1.46341 v -1.46342 h 1.46341 v -1.46341 h -1.46341 v -1.46342 h -1.46341 v -1.46341 -1.46342 z m 2.92682,7.31707 v 1.46342 1.46341 h 1.46343 v -1.46341 -1.46342 z m 0,2.92683 h -1.46341 -1.46341 v 1.46341 h 1.46341 1.46341 z m -20.48779,1.46341 h -1.46343 -1.46341 -1.46341 -1.46342 v 1.46342 h -1.46341 v 1.46341 h 1.46341 1.46342 v -1.46341 h 1.46341 1.46341 1.46343 z m -7.31708,1.46342 v -1.46342 h -1.46341 v 1.46342 z m -1.46341,-1.46342 v -1.46341 -1.46341 -1.46342 h -1.46342 v 1.46342 1.46341 h -1.46341 -1.46341 v -1.46341 -1.46342 h -1.46343 v 1.46342 1.46341 h -1.46341 -1.46341 v 1.46341 h 1.46341 1.46341 1.46343 1.46341 1.46341 z m -8.78049,0 h -1.46342 -1.46341 v 1.46342 h 1.46341 v 1.46341 h 1.46342 v -1.46341 z m -2.92683,1.46342 h -1.46341 -1.46342 v -1.46342 -1.46341 -1.46341 -1.46342 h -1.46341 v 1.46342 1.46341 1.46341 1.46342 1.46341 h 1.46341 1.46342 1.46341 z m -2.92683,-5.85366 h 1.46342 v 1.46342 1.46341 1.46341 h 1.46341 v -1.46341 -1.46341 -1.46342 h 1.46341 v 1.46342 1.46341 h 1.46342 v -1.46341 -1.46342 -1.46341 h -1.46342 -1.46341 -1.46341 v -1.46342 h -1.46342 v -1.46341 h -1.46341 v 1.46341 1.46342 h 1.46341 z m 5.85366,-1.46341 h 1.46341 v -1.46342 h -1.46341 z m 1.46341,0 v 1.46341 h 1.46341 v -1.46341 z m 7.31708,1.46341 h 1.46341 v -1.46341 -1.46342 h -1.46341 v -1.46341 -1.46342 h -1.46342 v 1.46342 1.46341 h -1.46341 v 1.46342 h 1.46341 1.46342 z m -2.92683,-2.92683 v -1.46341 -1.46342 h -1.46341 -1.46343 v -1.46341 h -1.46341 v 1.46341 h -1.46341 v -1.46341 h -1.46342 -1.46341 -1.46341 v 1.46341 1.46342 h 1.46341 v -1.46342 h 1.46341 v 1.46342 h 1.46342 1.46341 1.46341 v 1.46341 h 1.46343 z m -7.31708,-1.46341 h -1.46341 v 1.46341 h 1.46341 z m 1.46342,-2.92683 h 1.46341 v -1.46342 h -1.46341 z m 0,-1.46342 v -1.46341 -1.46342 -1.46341 h -1.46342 -1.46341 -1.46341 v -1.46342 -1.46341 h -1.46342 v 1.46341 1.46342 h -1.46341 v -1.46342 h -1.46341 -1.46343 -1.46341 -1.46341 v 1.46342 h 1.46341 1.46341 1.46343 v 1.46341 h 1.46341 1.46341 1.46342 1.46341 1.46341 v 1.46342 1.46341 z m -8.78048,-2.92683 h -1.46343 -1.46341 -1.46341 v 1.46342 h -1.463416 v -1.46342 -1.46341 -1.46342 h 1.463416 v -1.46341 -1.46341 h 1.46341 1.46341 v -1.46342 h 1.46343 v 1.46342 h 1.46341 v -1.46342 h 1.46341 1.46342 v -1.46341 h -1.46342 v -1.46342 h 1.46342 v 1.46342 h 1.46341 v -1.46342 -1.46341 h -1.46341 v -1.46342 -1.46341 h -1.46342 -1.46341 -1.46341 -1.46343 v 1.46341 h 1.46343 1.46341 v 1.46342 h -1.46341 -1.46343 v -1.46342 h -1.46341 v -1.46341 h -1.46341 v -1.46342 -1.46341 h -1.463416 v 1.46341 h -1.46341 -1.46341 v 1.46342 1.46341 1.46342 h 1.46341 v 1.46341 h 1.46341 v 1.46342 1.46341 h -1.46341 v -1.46341 h -1.46341 -1.4634299 v 1.46341 1.46342 1.46341 h 1.4634299 1.46341 v -1.46341 h 1.46341 v 1.46341 h -1.46341 v 1.46341 h -1.46341 v 1.46342 1.46341 h 1.46341 v 1.46342 h -1.46341 -1.4634299 v 1.46341 1.46342 1.46341 1.46342 h 1.4634299 v -1.46342 -1.46341 -1.46342 h 1.46341 v 1.46342 h 1.46341 v -1.46342 h 1.463416 v 1.46342 h 1.46341 v -1.46342 -1.46341 h 1.46341 1.46343 z m 0,1.46342 v 1.46341 h -1.46343 v 1.46342 h 1.46343 1.46341 v -1.46342 -1.46341 z m -1.46343,2.92683 h -1.46341 v 1.46341 h 1.46341 z m 0,1.46341 v 1.46342 h 1.46343 v -1.46342 z m -1.46341,0 h -1.46341 -1.463416 v 1.46342 h 1.463416 1.46341 z m -5.853646,-21.95122 v -1.46341 H 9.8081661 v 1.46341 z m 0,-1.46341 h 1.46341 1.46341 v -1.46341 h -1.46341 -1.46341 z m 0,-1.46341 v -1.46342 -1.46341 h 1.46341 v -1.46342 h -1.46341 v -1.46341 H 9.8081661 v 1.46341 1.46342 1.46341 1.46342 z m 1.46341,-2.92683 v 1.46341 h 1.46341 v -1.46341 z m 4.390236,7.31707 h 1.46341 v -1.46342 h -1.46341 z m 1.46341,-1.46342 h 1.46343 1.46341 v -1.46341 h -1.46341 -1.46343 z m 0,-1.46341 v -1.46341 h 1.46343 v -1.46342 h -1.46343 -1.46341 v 1.46342 1.46341 z m 1.46343,-2.92683 h 1.46341 v 1.46342 1.46341 h 1.46341 v -1.46341 h 1.46342 v -1.46342 h 1.46341 v -1.46341 h -1.46341 v -1.46342 h -1.46342 v 1.46342 h -1.46341 -1.46341 z m 0,-1.46341 v -1.46342 h -1.46343 -1.46341 -1.46341 v 1.46342 h 1.46341 1.46341 z m -4.39025,-1.46342 v -1.46341 -1.46342 h 1.46341 v 1.46342 h 1.46341 1.46343 v -1.46342 h -1.46343 v -1.46341 h -1.46341 v -1.46342 h -1.46341 -1.463416 -1.46341 -1.46341 -1.4634299 v 1.46342 1.46341 h 1.4634299 v -1.46341 h 1.46341 v 1.46341 1.46342 h 1.46341 v 1.46341 z m 2.92682,-4.39024 h 1.46343 1.46341 v 1.46341 1.46342 h 1.46341 v -1.46342 -1.46341 -1.46342 h -1.46341 -1.46341 -1.46343 z m 4.39025,-1.46342 h 1.46342 1.46341 v 1.46342 h 1.46341 1.46342 v -1.46342 h 1.46341 1.46341 v -1.46342 -1.46341 h -1.46341 v 1.46341 h -1.46341 v -1.46341 h -1.46342 v 1.46341 h -1.46341 v -1.46341 h 1.46341 v -1.463406 h -1.46341 v -1.46343 h 1.46341 v -1.46341 h -1.46341 -1.46341 v 1.46341 1.46343 h -1.46342 -1.46341 v 1.463406 1.46341 h 1.46341 v -1.46341 h 1.46342 v 1.46341 h -1.46342 z m 4.39024,-7.317076 h 1.46342 v -1.46341 h -1.46342 z m 0,1.46341 v 1.46343 h 1.46342 v -1.46343 z m 1.46342,1.46343 v 1.463406 h 1.46341 v -1.463406 z m 2.92682,1.463406 h 1.46343 v 1.46341 h 1.46341 v -1.46341 h 1.46341 v 1.46341 h -1.46341 v 1.46342 h 1.46341 1.46342 1.46341 v -1.46342 h -1.46341 v -1.46341 -1.463406 -1.46343 -1.46341 h -1.46342 v 1.46341 1.46343 h -1.46341 -1.46341 v -1.46343 -1.46341 h -1.46343 v 1.46341 1.46343 z m 7.31708,1.46341 h 1.46341 v -1.46341 -1.463406 h -1.46341 v 1.463406 z m 1.46341,-2.926816 h 1.46342 v -1.46343 -1.46341 h 1.46341 1.46341 v 1.46341 1.46343 h 1.46343 v -1.46343 -1.46341 -1.46341 h -1.46343 -1.46341 -1.46341 -1.46342 v 1.46341 1.46341 z m 5.85367,0 v 1.463406 h 1.46341 v -1.463406 z m 1.46341,1.463406 v 1.46341 h -1.46341 v -1.46341 h -1.46343 v 1.46341 h -1.46341 v 1.46342 h 1.46341 v 1.46342 1.46341 h 1.46343 v -1.46341 -1.46342 h 1.46341 1.46341 v -1.46342 -1.46341 z m 1.46341,2.92683 v 1.46342 h -1.46341 v 1.46341 h 1.46341 1.46342 v -1.46341 -1.46342 z m -1.46341,2.92683 h -1.46341 v 1.46342 h 1.46341 z m 0,1.46342 v 1.46341 h 1.46341 v -1.46341 z m 1.46341,1.46341 v 1.46342 1.46341 1.46342 h 1.46342 1.46341 v 1.46341 h 1.46341 v -1.46341 h 1.46342 v -1.46342 -1.46341 -1.46342 h -1.46342 v 1.46342 1.46341 h -1.46341 -1.46341 v -1.46341 -1.46342 z m 5.85366,4.39025 v 1.46341 h 1.46341 v -1.46341 z m 1.46341,0 h 1.46341 1.46343 v -1.46342 -1.46341 -1.46342 h -1.46343 v 1.46342 1.46341 h -1.46341 z m -1.46341,1.46341 h -1.46342 v 1.46341 h 1.46342 z m 0,1.46341 v 1.46342 h 1.46341 v 1.46341 h 1.46341 1.46343 v -1.46341 h -1.46343 v -1.46342 h -1.46341 z m 4.39025,2.92683 v 1.46342 h 1.46341 v -1.46342 z m 1.46341,0 h 1.46341 v -1.46341 h -1.46341 z m -1.46341,1.46342 h -1.46343 v 1.46341 1.46342 h -1.46341 v 1.46341 h 1.46341 1.46343 v -1.46341 -1.46342 z m -2.92684,4.39024 h -1.46341 v 1.46342 h 1.46341 z m -1.46341,1.46342 h -1.46342 -1.46341 v 1.46341 h 1.46341 1.46342 z m 0,-1.46342 v -1.46341 -1.46342 -1.46341 h -1.46342 v 1.46341 1.46342 h -1.46341 -1.46341 v -1.46342 -1.46341 h -1.46342 v 1.46341 1.46342 1.46341 h 1.46342 1.46341 1.46341 z m -5.85366,0 h -1.46341 v 1.46342 1.46341 1.46341 h 1.46341 1.46342 v -1.46341 -1.46341 h -1.46342 z m 1.46342,4.39024 v 1.46342 h 1.46341 1.46341 1.46342 v -1.46342 h -1.46342 -1.46341 z m 4.39024,1.46342 v 1.46341 h 1.46341 v -1.46341 z m 1.46341,0 h 1.46341 1.46343 v -1.46342 h -1.46343 -1.46341 z m 2.92684,0 v 1.46341 h 1.46341 v -1.46341 z m 0,1.46341 h -1.46343 v 1.46342 1.46341 h -1.46341 v 1.46342 h 1.46341 1.46343 v -1.46342 -1.46341 z m -2.92684,4.39025 h -1.46341 v 1.46341 h 1.46341 z m -1.46341,0 v -1.46342 -1.46341 -1.46342 h -1.46342 v 1.46342 1.46341 h -1.46341 -1.46341 v -1.46341 -1.46342 h -1.46342 v 1.46342 1.46341 h -1.46341 -1.46341 v 1.46342 h 1.46341 1.46341 1.46342 1.46341 1.46341 z m -8.78048,0 h -1.46343 -1.46341 -1.46341 -1.46342 v 1.46341 h 1.46342 v 1.46342 h 1.46341 v -1.46342 h 1.46341 v 1.46342 1.46341 h 1.46343 v -1.46341 -1.46342 z m 0,4.39024 v 1.46342 h 1.46341 v -1.46342 z m 1.46341,0 h 1.46341 v 1.46342 h 1.46342 1.46341 1.46341 1.46342 v -1.46342 -1.46341 h -1.46342 v 1.46341 h -1.46341 v -1.46341 h -1.46341 v -1.46342 h -1.46342 v 1.46342 h -1.46341 z m 1.46341,1.46342 h -1.46341 v 1.46341 h 1.46341 z m -2.92682,0 h -1.46343 v -1.46342 h -1.46341 v 1.46342 h -1.46341 -1.46342 v 1.46341 1.46342 1.46341 h 1.46342 v -1.46341 -1.46342 h 1.46341 1.46341 v 1.46342 1.46341 h 1.46343 v -1.46341 -1.46342 z m -5.85367,4.39024 h -1.46341 v 1.46341 h 1.46341 z m 1.46342,-7.31707 h -1.46342 v -1.46342 h -1.46341 v 1.46342 1.46341 h 1.46341 1.46342 z m -2.92683,-1.46342 v -1.46341 h -1.46341 v 1.46341 z m -1.46341,-1.46341 v -1.46342 -1.46341 -1.46342 h -1.46342 v 1.46342 1.46341 h -1.46341 -1.46341 v -1.46341 -1.46342 h -1.46343 v 1.46342 1.46341 1.46342 h 1.46343 1.46341 1.46341 z m -5.85367,-4.39025 v -1.46341 h -1.46341 v 1.46341 z m -1.46341,-1.46341 v -1.46342 h -1.46341 v 1.46342 z m 0,-1.46342 h 1.46341 v 1.46342 h 1.46343 v -1.46342 -1.46341 h 1.46341 1.46341 v 1.46341 h -1.46341 v 1.46342 h 1.46341 1.46342 v -1.46342 -1.46341 -1.46341 h -1.46342 -1.46341 -1.46341 -1.46343 -1.46341 v 1.46341 z m 7.31708,-2.92682 h 1.46341 v -1.46342 h -1.46341 z m 0,-1.46342 v -1.46341 -1.46342 -1.46341 h -1.46342 v 1.46341 1.46342 h -1.46341 -1.46341 v -1.46342 -1.46341 h -1.46343 v 1.46341 1.46342 h -1.46341 -1.46341 v 1.46341 h 1.46341 1.46341 1.46343 1.46341 1.46341 z m -8.78049,0 h -1.46342 -1.46341 v 1.46342 h 1.46341 v 1.46341 h 1.46342 v -1.46341 z m 0,-1.46341 v -1.46342 h -1.46342 v 1.46342 z m 2.92682,-2.92683 v -1.46342 h -1.46341 v 1.46342 z m -1.46341,-1.46342 v -1.46341 h -1.46341 v 1.46341 z m -1.46341,0 h -1.46342 -1.46341 v 1.46342 h 1.46341 1.46342 z m 0,-1.46341 v -1.46342 h -1.46342 v 1.46342 z m 0,-1.46342 h 1.46341 1.46341 1.46343 v -1.46341 h -1.46343 v -1.46341 h -1.46341 v 1.46341 h -1.46341 z m 0,-1.46341 v -1.46341 h 1.46341 v -1.46342 h -1.46341 v -1.46341 -1.46342 -1.46341 h 1.46341 v -1.46342 h -1.46341 -1.46342 -1.46341 -1.46341 v 1.46342 1.46341 h 1.46341 v -1.46341 h 1.46341 v 1.46341 1.46342 1.46341 1.46342 1.46341 z m 1.46341,-8.78049 h 1.46341 v 1.46342 h 1.46343 1.46341 1.46341 1.46342 v -1.46342 h -1.46342 -1.46341 -1.46341 v -1.46341 h 1.46341 v -1.46342 h -1.46341 -1.46343 v 1.46342 h -1.46341 z m 7.31708,0 h 1.46341 v 1.46342 h 1.46341 v -1.46342 h 1.46342 1.46341 v -1.46341 -1.46342 h -1.46341 -1.46342 v 1.46342 h -1.46341 -1.46341 z m 5.85365,0 v 1.46342 h -1.46341 -1.46342 v 1.46341 1.46342 1.46341 h 1.46342 v -1.46341 -1.46342 h 1.46341 1.46341 v 1.46342 1.46341 h 1.46343 v -1.46341 -1.46342 -1.46341 h -1.46343 v -1.46342 z m 2.92684,5.85366 v 1.46342 h 1.46341 v -1.46342 z m 1.46341,1.46342 v 1.46341 1.46341 h 1.46341 v 1.46342 h 1.46342 v -1.46342 h 1.46341 v -1.46341 h -1.46341 -1.46342 v -1.46341 z m 2.92683,4.39024 v 1.46341 h 1.46341 1.46341 1.46342 v -1.46341 h -1.46342 -1.46341 z m 4.39024,1.46341 v 1.46342 h 1.46341 v -1.46342 z m -8.78048,-5.85365 h -1.46343 -1.46341 v 1.46341 h 1.46341 1.46343 z m -2.92684,0 v -1.46342 h -1.46341 v 1.46342 z m -1.46341,0 h -1.46342 v 1.46341 h 1.46342 z m -1.46342,0 v -1.46342 h -1.46341 v 1.46342 z m -1.46341,0 h -1.46341 -1.46342 v 1.46341 1.46341 h 1.46342 v -1.46341 h 1.46341 z m -1.46341,2.92682 v 1.46342 h 1.46341 v 1.46341 h 1.46341 v -1.46341 h 1.46342 1.46341 1.46341 v 1.46341 h 1.46343 1.46341 v -1.46341 h -1.46341 v -1.46342 h -1.46343 -1.46341 -1.46341 -1.46342 -1.46341 z m 10.2439,2.92683 v 1.46342 h 1.46341 v -1.46342 z m -2.92684,0 h -1.46341 -1.46341 -1.46342 v 1.46342 1.46341 1.46342 h 1.46342 v -1.46342 -1.46341 h 1.46341 1.46341 z m 0,1.46342 v 1.46341 1.46342 h 1.46343 v -1.46342 -1.46341 z m 1.46343,2.92683 v 1.46341 h 1.46341 v -1.46341 z m 0,1.46341 h -1.46343 -1.46341 v 1.46342 h 1.46341 1.46343 z m -2.92684,0 v -1.46341 h -1.46341 v 1.46341 z m -1.46341,0 h -1.46342 v 1.46342 h 1.46342 z m -1.46342,0 v -1.46341 h -1.46341 v 1.46341 z m -1.46341,-5.85366 h -1.46341 v 1.46342 h 1.46341 z m -1.46341,0 v -1.46341 h -1.46342 -1.46341 v 1.46341 h 1.46341 z m -2.92683,0 h -1.46341 v 1.46342 h 1.46341 z m -1.46341,0 v -1.46341 h -1.46343 v 1.46341 z m 0,-1.46341 h 1.46341 v -1.46342 h -1.46341 z m 2.92682,-4.39024 v -1.46342 h -1.46341 -1.46341 v -1.46341 -1.46342 h -1.46343 v 1.46342 1.46341 1.46342 h 1.46343 1.46341 z m -4.39025,-4.39025 v -1.46341 h -1.46341 v 1.46341 z m 4.39025,2.92683 h 1.46342 v -1.46341 -1.46342 h -1.46342 v 1.46342 z m 1.46342,-2.92683 h 1.46341 v -1.46341 h -1.46341 z m 0,21.95122 v 1.46341 h 1.46341 v -1.46341 z m 1.46341,0 h 1.46341 v -1.46342 h 1.46342 v -1.46341 h -1.46342 -1.46341 v 1.46341 z m 1.46341,0 v 1.46341 1.46342 1.46341 h 1.46342 v -1.46341 -1.46342 h 1.46341 1.46341 v 1.46342 1.46341 h 1.46343 v -1.46341 -1.46342 -1.46341 h -1.46343 -1.46341 -1.46341 z m 5.85367,0 h 1.46341 v -1.46342 h -1.46341 z m 1.46341,0 v 1.46341 h 1.46341 v -1.46341 z m -7.31708,4.39024 h -1.46341 v 1.46342 h 1.46341 z m -5.85365,-4.39024 h -1.46341 v 1.46341 h 1.46341 z m 8.78048,-29.2683 v -1.46341 h -1.46341 v 1.46341 z m -19.02438,16.09757 h 1.46341 v -1.46342 h -1.46341 z m -4.39024,8.78049 h -1.46343 v 1.46341 h 1.46343 z m 40.9756,10.2439 h 1.46341 v -1.46342 h -1.46341 z m 0,-23.41463 h 1.46341 v -1.46342 h -1.46341 z M 22.978902,14.302586 h -1.46341 v 1.46341 h 1.46341 z M 9.8110361,9.9152055 v 1.4634105 8.777626 h 1.4634099 8.777636 v -1.46341 -8.7776265 h -1.46343 z m 49.7532359,0 v 1.4634105 8.777626 h 1.46341 8.77762 v -1.46341 -8.7776265 h -1.46341 z M 11.274446,11.378616 h 7.314206 v 7.314216 h -7.314206 z m 49.753236,0 h 7.31421 v 7.314216 h -7.31421 z m -48.291256,1.46341 v 4.38882 h 4.388816 v -4.38882 z m 49.753236,0 v 4.38882 h 4.38882 v -4.38882 z m 1.46485,8.777636 v 1.46342 h 1.46341 v -1.46342 z m -49.756096,16.09756 h 1.463416 v 1.46342 h 1.46341 v 1.46341 h -1.46341 v -1.46341 h -1.463416 z m 54.146346,0 v 1.46342 h 1.46341 v -1.46342 z m 0,1.46342 h -1.46343 v 1.46341 h 1.46343 z m -49.75611,1.46341 h 1.46343 v 1.46342 h -1.46343 z m 39.51219,17.56098 h 1.46343 1.46341 1.46341 v 1.46341 1.46342 1.46341 h -1.46341 -1.46341 -1.46343 v -1.46341 -1.46342 z m -48.2898059,1.46341 v 1.46342 8.77762 h 1.4634099 8.777636 v -1.46341 -8.77763 h -1.46343 z m 49.7532359,0 v 1.46342 h 1.46341 v -1.46342 z m 8.78049,0 v 1.46342 h 1.46341 v -1.46342 z m -57.070316,1.46342 h 7.314206 v 7.31421 h -7.314206 z m 1.46198,1.46341 v 4.38882 h 4.388816 v -4.38882 z m 45.364416,4.39024 v 1.46342 h 1.46343 v -1.46342 z m 1.46343,1.46342 v 1.46341 h 1.46341 v -1.46341 z m 1.46341,0 h 1.46341 v -1.46342 h -1.46341 z m 1.46341,0 v 1.46341 h 1.46342 v -1.46341 z m -32.19512,0 v 1.46341 h 1.46341 1.46343 v -1.46341 h -1.46343 z m 17.56098,0 v 1.46341 h 1.46341 1.46342 1.46341 v -1.46341 h -1.46341 -1.46342 z" /><text
       style="font-style:normal;font-variant:normal;font-weight:normal;font-stretch:normal;font-size:5.29167px;line-height:normal;font-family:monospace;fill:#000000;stroke-width:0.264583"
       text-anchor="middle"
       x="39.810753"
       y="82.922928"
       id="text50">101 613 093 454 898</text></g></svg>
