<?xml version="1.0" encoding="UTF-8" standalone="no"?>
<svg
   id="barcode"
   width="178"
   height="142"
   x="0px"
   y="0px"
   viewBox="0 0 178 142"
   version="1.1"
   xmlns="http://www.w3.org/2000/svg"
   xmlns:svg="http://www.w3.org/2000/svg">
  <defs
     id="defs23" />
  <rect
     x="0"
     y="0"
     width="178"
     height="142"
     style="fill:#ffffff"
     id="rect1" />
  <g
     transform="translate(10,10)"
     style="fill:#000000"
     id="g23">
    <rect
       x="0"
       y="0"
       width="4"
       height="100"
       id="rect2" />
    <rect
       x="6"
       y="0"
       width="2"
       height="100"
       id="rect3" />
    <rect
       x="12"
       y="0"
       width="6"
       height="100"
       id="rect4" />
    <rect
       x="22"
       y="0"
       width="6"
       height="100"
       id="rect5" />
    <rect
       x="30"
       y="0"
       width="2"
       height="100"
       id="rect6" />
    <rect
       x="36"
       y="0"
       width="4"
       height="100"
       id="rect7" />
    <rect
       x="44"
       y="0"
       width="4"
       height="100"
       id="rect8" />
    <rect
       x="52"
       y="0"
       width="2"
       height="100"
       id="rect9" />
    <rect
       x="58"
       y="0"
       width="2"
       height="100"
       id="rect10" />
    <rect
       x="66"
       y="0"
       width="2"
       height="100"
       id="rect11" />
    <rect
       x="72"
       y="0"
       width="4"
       height="100"
       id="rect12" />
    <rect
       x="82"
       y="0"
       width="2"
       height="100"
       id="rect13" />
    <rect
       x="88"
       y="0"
       width="2"
       height="100"
       id="rect14" />
    <rect
       x="96"
       y="0"
       width="8"
       height="100"
       id="rect15" />
    <rect
       x="106"
       y="0"
       width="2"
       height="100"
       id="rect16" />
    <rect
       x="110"
       y="0"
       width="2"
       height="100"
       id="rect17" />
    <rect
       x="116"
       y="0"
       width="4"
       height="100"
       id="rect18" />
    <rect
       x="128"
       y="0"
       width="2"
       height="100"
       id="rect19" />
    <rect
       x="132"
       y="0"
       width="4"
       height="100"
       id="rect20" />
    <rect
       x="142"
       y="0"
       width="6"
       height="100"
       id="rect21" />
    <rect
       x="150"
       y="0"
       width="2"
       height="100"
       id="rect22" />
    <rect
       x="154"
       y="0"
       width="4"
       height="100"
       id="rect23" />
    <text
       style="font-style:normal;font-variant:normal;font-weight:normal;font-stretch:normal;font-size:20px;line-height:normal;font-family:monospace"
       text-anchor="middle"
       x="79"
       y="122"
       id="text23">24 090 779</text>
  </g>
</svg>
