<svg id="barcode" width="234px" height="142px" x="0px" y="0px" viewBox="0 0 234 142" xmlns="http://www.w3.org/2000/svg" version="1.1" style="transform: translate(0px, 0px);"><rect x="0" y="0" width="234" height="142" style="fill:#ffffff;"/><g transform="translate(10, 10)" style="fill:#000000;"><text style="font: 20px monospace" text-anchor="start" x="0" y="122">2</text></g><g transform="translate(34, 10)" style="fill:#000000;"><rect x="0" y="0" width="2" height="112"/><rect x="4" y="0" width="2" height="112"/><text style="font: 20px monospace" text-anchor="middle" x="3" y="134"></text></g><g transform="translate(40, 10)" style="fill:#000000;"><rect x="6" y="0" width="4" height="100"/><rect x="12" y="0" width="2" height="100"/><rect x="20" y="0" width="2" height="100"/><rect x="24" y="0" width="4" height="100"/><rect x="32" y="0" width="2" height="100"/><rect x="36" y="0" width="6" height="100"/><rect x="44" y="0" width="2" height="100"/><rect x="54" y="0" width="2" height="100"/><rect x="60" y="0" width="4" height="100"/><rect x="68" y="0" width="2" height="100"/><rect x="72" y="0" width="2" height="100"/><rect x="82" y="0" width="2" height="100"/><text style="font: 20px monospace" text-anchor="middle" x="42" y="122">099313</text></g><g transform="translate(124, 10)" style="fill:#000000;"><rect x="2" y="0" width="2" height="112"/><rect x="6" y="0" width="2" height="112"/><text style="font: 20px monospace" text-anchor="middle" x="5" y="134"></text></g><g transform="translate(134, 10)" style="fill:#000000;"><rect x="0" y="0" width="2" height="100"/><rect x="4" y="0" width="2" height="100"/><rect x="14" y="0" width="2" height="100"/><rect x="22" y="0" width="2" height="100"/><rect x="28" y="0" width="4" height="100"/><rect x="36" y="0" width="4" height="100"/><rect x="42" y="0" width="2" height="100"/><rect x="50" y="0" width="2" height="100"/><rect x="56" y="0" width="2" height="100"/><rect x="64" y="0" width="2" height="100"/><rect x="70" y="0" width="2" height="100"/><rect x="78" y="0" width="2" height="100"/><text style="font: 20px monospace" text-anchor="middle" x="42" y="122">671777</text></g><g transform="translate(218, 10)" style="fill:#000000;"><rect x="0" y="0" width="2" height="112"/><rect x="4" y="0" width="2" height="112"/><text style="font: 20px monospace" text-anchor="middle" x="3" y="134"></text></g></svg>