<?xml version="1.0" encoding="UTF-8" standalone="no"?>
<svg
   id="barcode"
   width="288"
   height="142"
   x="0px"
   y="0px"
   viewBox="0 0 288 142"
   version="1.1"
   xmlns="http://www.w3.org/2000/svg"
   xmlns:svg="http://www.w3.org/2000/svg">
  <defs
     id="defs38" />
  <rect
     x="0"
     y="0"
     width="288"
     height="142"
     style="fill:#ffffff"
     id="rect1" />
  <g
     transform="translate(10,10)"
     style="fill:#000000"
     id="g38">
    <rect
       x="0"
       y="0"
       width="4"
       height="100"
       id="rect2" />
    <rect
       x="6"
       y="0"
       width="2"
       height="100"
       id="rect3" />
    <rect
       x="12"
       y="0"
       width="6"
       height="100"
       id="rect4" />
    <rect
       x="22"
       y="0"
       width="4"
       height="100"
       id="rect5" />
    <rect
       x="32"
       y="0"
       width="2"
       height="100"
       id="rect6" />
    <rect
       x="38"
       y="0"
       width="2"
       height="100"
       id="rect7" />
    <rect
       x="44"
       y="0"
       width="4"
       height="100"
       id="rect8" />
    <rect
       x="50"
       y="0"
       width="4"
       height="100"
       id="rect9" />
    <rect
       x="60"
       y="0"
       width="4"
       height="100"
       id="rect10" />
    <rect
       x="66"
       y="0"
       width="4"
       height="100"
       id="rect11" />
    <rect
       x="72"
       y="0"
       width="4"
       height="100"
       id="rect12" />
    <rect
       x="80"
       y="0"
       width="4"
       height="100"
       id="rect13" />
    <rect
       x="88"
       y="0"
       width="4"
       height="100"
       id="rect14" />
    <rect
       x="96"
       y="0"
       width="4"
       height="100"
       id="rect15" />
    <rect
       x="104"
       y="0"
       width="4"
       height="100"
       id="rect16" />
    <rect
       x="110"
       y="0"
       width="4"
       height="100"
       id="rect17" />
    <rect
       x="116"
       y="0"
       width="2"
       height="100"
       id="rect18" />
    <rect
       x="124"
       y="0"
       width="6"
       height="100"
       id="rect19" />
    <rect
       x="132"
       y="0"
       width="2"
       height="100"
       id="rect20" />
    <rect
       x="136"
       y="0"
       width="2"
       height="100"
       id="rect21" />
    <rect
       x="142"
       y="0"
       width="4"
       height="100"
       id="rect22" />
    <rect
       x="154"
       y="0"
       width="2"
       height="100"
       id="rect23" />
    <rect
       x="160"
       y="0"
       width="2"
       height="100"
       id="rect24" />
    <rect
       x="166"
       y="0"
       width="8"
       height="100"
       id="rect25" />
    <rect
       x="176"
       y="0"
       width="6"
       height="100"
       id="rect26" />
    <rect
       x="184"
       y="0"
       width="2"
       height="100"
       id="rect27" />
    <rect
       x="188"
       y="0"
       width="8"
       height="100"
       id="rect28" />
    <rect
       x="198"
       y="0"
       width="6"
       height="100"
       id="rect29" />
    <rect
       x="208"
       y="0"
       width="2"
       height="100"
       id="rect30" />
    <rect
       x="212"
       y="0"
       width="4"
       height="100"
       id="rect31" />
    <rect
       x="220"
       y="0"
       width="2"
       height="100"
       id="rect32" />
    <rect
       x="228"
       y="0"
       width="6"
       height="100"
       id="rect33" />
    <rect
       x="236"
       y="0"
       width="4"
       height="100"
       id="rect34" />
    <rect
       x="242"
       y="0"
       width="4"
       height="100"
       id="rect35" />
    <rect
       x="252"
       y="0"
       width="6"
       height="100"
       id="rect36" />
    <rect
       x="260"
       y="0"
       width="2"
       height="100"
       id="rect37" />
    <rect
       x="264"
       y="0"
       width="4"
       height="100"
       id="rect38" />
    <text
       style="font-style:normal;font-variant:normal;font-weight:normal;font-stretch:normal;font-size:20px;line-height:normal;font-family:monospace"
       text-anchor="middle"
       x="134"
       y="122"
       id="text38">113 100 024 963 829</text>
  </g>
</svg>
