<?xml version="1.0" encoding="UTF-8" standalone="no"?>
<!-- Generator: Adobe Illustrator 26.0.3, SVG Export Plug-In . SVG Version: 6.00 Build 0)  -->

<svg
   version="1.0"
   id="katman_1"
   x="0px"
   y="0px"
   viewBox="0 0 450 300"
   xml:space="preserve"
   width="450"
   height="300"
   xmlns="http://www.w3.org/2000/svg"
   xmlns:svg="http://www.w3.org/2000/svg"><defs
   id="defs9"><style
     id="style1">.cls-1{fill:#003d8d;}.cls-2{fill:#fff;}.cls-3{fill:#f60;}</style></defs>
<style
   type="text/css"
   id="style2">
	.st0{fill:#010202;}
</style>

<g
   id="g7"
   transform="translate(-492.49008,568.28076)"><rect
     style="fill:#dc0330;fill-opacity:1;fill-rule:evenodd;stroke-width:0.999985"
     id="rect1"
     width="450.00003"
     height="300"
     x="492.49008"
     y="-568.28076"
     rx="20"
     ry="20" /><path
     class="st0"
     d="m 713.08378,-410.44438 -7.8628,-10.81794 c -2.26913,1.4248 -3.79947,4.27441 -3.79947,6.91293 0,4.16887 2.42744,6.59631 6.27968,6.59631 2.37467,0 3.85224,-1.10818 5.38259,-2.6913 z m -5.17151,-22.90237 c 0,2.37467 0.84433,3.90501 2.3219,6.12137 2.6913,-1.4248 4.01056,-3.43008 4.01056,-6.17414 0,-1.84697 -0.94987,-3.7467 -2.95515,-3.7467 -2.11081,0 -3.37731,1.74143 -3.37731,3.79947 z m 8.44328,26.54353 c -3.11346,2.48022 -6.86016,3.06069 -9.76254,3.06069 -7.07124,0 -12.77045,-3.79947 -12.92876,-10.18469 -0.10554,-5.59367 5.11873,-9.49869 9.39314,-10.76518 -1.31926,-1.74142 -2.48021,-3.7467 -2.48021,-6.43799 0,-6.22691 5.27705,-9.23483 10.92348,-9.23483 5.5409,0 9.55146,3.06068 9.55146,7.91556 0,4.22164 -4.22164,6.86017 -8.12665,8.54882 l 5.32981,7.91557 c 1.95251,-2.74407 3.21899,-5.43536 3.90502,-8.17942 0.0528,-0.21108 0.21108,-0.58048 0.94986,-0.58048 h 8.54882 c 0.47493,0 1.0554,-0.0528 0.68601,0.94987 l -1.00264,2.3219 c -0.21108,0.47493 -0.5277,0.68601 -1.00264,0.68601 h -1.16095 c -0.94986,0 -1.26649,0.52771 -1.84696,1.37204 0,0 -1.21372,2.00528 -2.11082,3.27177 -1.37203,1.9525 -1.74142,2.58575 -3.90501,4.74934 0,0 1.68865,2.8496 5.1715,2.8496 h 1.53035 c 0.26384,0 1.10817,-0.10554 0.68601,0.84433 l -1.05541,2.48021 c -0.15831,0.36939 -0.31662,0.68602 -1.00264,0.68602 h -3.43008 c 0,0 -4.32717,0.31662 -6.86015,-2.26914 z m 54.40633,2.26914 -11.55673,-38.31135 -15.3562,38.31135 z m 42.74406,28.54881 v 5.48812 c 0,0.8971 -0.58047,1.42481 -1.47757,1.47757 h -40.58048 c -0.89709,0 -1.4248,-0.58047 -1.4248,-1.4248 v -5.48812 c 0,-0.8971 0.58047,-1.4248 1.4248,-1.4248 l 3.37731,-0.10554 c 2.63853,-0.0528 3.27177,-1.31926 3.32454,-2.53298 0,-0.52771 -0.10554,-1.05542 -0.21108,-1.47758 -0.26385,-1.10818 -1.10818,-3.69393 -1.10818,-3.69393 0,0 -2.37468,-7.65172 -3.85224,-11.82058 h -32.13721 l -5.38259,13.24538 c -0.58047,1.37203 -0.79155,2.42744 -0.79155,3.27177 0,2.79683 2.63852,2.95514 5.1715,2.95514 l 3.06069,0.0528 c 0.84433,0 1.4248,0.52771 1.4248,1.4248 v 5.48812 c 0,0.89711 -0.5277,1.42481 -1.4248,1.47758 h -27.44063 c -0.84433,0 -1.4248,-0.5277 -1.4248,-1.4248 v -5.48813 c 0,-0.8971 0.5277,-1.4248 1.4248,-1.4248 l 0.94986,-0.0528 c 0,0 2.95515,0.10554 4.59103,-0.73879 1.68866,-0.84433 2.3219,-1.89973 3.06069,-3.58839 l 35.25066,-84.59103 c 0.36939,-0.94986 1.10818,-1.26649 1.89973,-1.26649 h 11.24011 c 0.94987,0 1.53034,0.47493 1.7942,1.26649 3.219,9.18206 29.44591,84.16887 29.44591,84.22164 1.26648,3.53562 2.4802,4.69657 6.64907,4.74934 h 1.74143 c 0.84433,-0.0528 1.4248,0.5277 1.4248,1.4248 z m -115.40897,-19.52507 v 25.01319 c 0,0.8971 -0.58047,1.42481 -1.4248,1.42481 h -5.75198 c -0.58047,0 -1.00264,-0.15832 -1.37203,-0.8971 -0.31662,-0.73879 -0.94987,-1.63588 -2.26913,-1.63588 -3.16623,0 -8.86544,3.32453 -21.53034,3.32453 -28.70713,0 -44.27441,-23.7467 -44.27441,-49.8153 0,-30.81794 18.68074,-50.1847 44.11609,-50.1847 8.07388,0 12.55937,1.63589 15.25067,2.74407 2.16358,1.00263 3.11345,1.63588 4.53825,1.63588 1.9525,0 2.53299,-1.10818 3.219,-2.58575 0.42216,-0.84433 0.68601,-1.16095 1.37203,-1.16095 h 5.69921 c 0.84433,0 1.4248,0.58047 1.4248,1.47757 v 25.01319 c 0,0.8971 -0.52771,1.4248 -1.4248,1.4248 h -5.59367 c -0.79156,0 -1.21372,-0.31661 -1.4248,-1.31926 -2.11082,-11.7678 -6.33245,-18.89181 -19.47229,-18.89181 -16.56993,0 -20.58048,25.64643 -20.58048,38.31134 0,19.26122 2.16358,45.01319 21.26649,45.01319 13.82585,0 17.94195,-7.86279 19.68338,-19.05013 0.21108,-1.10818 0.8971,-1.26649 1.4248,-1.26649 h 5.64644 c 0.84432,-0.0528 1.47757,0.47493 1.47757,1.4248 z"
     id="path4"
     style="fill:#ffffff;fill-opacity:1;stroke-width:1" /></g></svg>
