<?xml version="1.0" encoding="UTF-8" standalone="no"?>
<!-- Generator: Adobe Illustrator 26.0.3, SVG Export Plug-In . SVG Version: 6.00 Build 0)  -->

<svg
   version="1.0"
   id="katman_1"
   x="0px"
   y="0px"
   viewBox="0 0 450 300"
   xml:space="preserve"
   width="450"
   height="300"
   xmlns="http://www.w3.org/2000/svg"
   xmlns:svg="http://www.w3.org/2000/svg"><defs
   id="defs9"><style
     id="style1">.cls-1{fill:#003d8d;}.cls-2{fill:#fff;}.cls-3{fill:#f60;}</style></defs>
<style
   type="text/css"
   id="style2">
	.st0{fill:#010202;}
</style>

<g
   id="layer1-5"
   transform="matrix(0.25668777,0,0,0.25668777,-1020.834,-58.41156)"
   style="fill:#ffffff;fill-opacity:1;stroke-width:3.89578">
	
<rect
   style="fill:#e50010;fill-opacity:1;fill-rule:evenodd;stroke-width:0.999985"
   id="rect1-3-0-8"
   width="450.00003"
   height="300"
   x="485.86807"
   y="-214.31111"
   rx="20"
   ry="20"
   transform="matrix(3.8957836,0,0,3.8957836,2084.1113,1062.4685)" /><path
   id="path45125"
   style="fill:#ffffff;fill-opacity:1;stroke-width:3.89578"
   d="m 4831.8912,578.18339 c -9.9918,-0.238 -33.0685,11.88375 -47.6016,14.40375 -4.919,0.858 -9.6098,6.05851 -11.2688,9.7775 -24.826,57.02995 -47.0807,111.39679 -66.3577,160.92174 -24.654,4.20999 -53.4833,9.7514 -85.7453,16.9984 23.109,-59.27794 46.4451,-117.74215 69.211,-173.97109 11.211,-27.68597 -18.3024,-30.31927 -29.7433,-2.29029 -14.873,36.43796 -42.7314,104.70829 -73.5634,184.28121 -22.652,5.554 -46.6709,11.90535 -71.7829,19.15934 -18.2479,5.268 -18.9954,10.13381 -11.1014,21.0768 4.347,6.093 13.3293,5.47355 17.4473,9.81555 10.64,11.25199 17.1032,24.71608 36.1501,26.75308 -16.9889,45.44595 -33.9722,92.30694 -49.3592,137.43282 -9.667,28.326 17.844,34.1209 28.427,4.1469 17.046,-48.3179 35.0074,-97.21975 53.4833,-145.9777 15.387,-3.57599 52.6228,-11.59382 87.0008,-19.05281 -27.285,74.78492 -45.2468,131.57896 -52.0528,159.22491 -1.258,5.319 0.8571,8.2715 2.0011,10.4395 9.209,13.402 17.9633,13.9485 29.8043,30.5195 3.204,4.519 13.9547,6.9563 17.6147,-4.1697 25.283,-76.36992 51.3115,-148.02139 75.5645,-212.25933 10.067,-2.202 28.2033,-6.57884 39.3002,-23.13882 19.734,-29.39097 25.3977,-23.43349 30.1467,-32.36848 5.949,-11.21699 1.9962,-21.74613 -19.0528,-19.14413 0,0 -7.9509,0.56864 -22.6519,2.24464 23.338,-60.08994 43.7586,-111.0574 58.4596,-149.89636 5.036,-13.15299 5.6691,-22.76127 -2.5109,-24.70627 -0.5434,-0.13225 -1.1524,-0.20479 -1.8186,-0.22066 z m 366.7135,1.09569 c -6.7387,-0.52824 -17.7803,2.51821 -35.0697,10.21883 -11.84,5.26299 -21.0493,-0.28698 -35.4653,29.40099 -45.418,93.1699 -80.659,168.82299 -122.702,277.66589 1.201,-89.38292 17.1621,-160.52518 26.7151,-247.5801 1.774,-16.01698 4.2321,-38.14608 3.8881,-54.79206 -0.287,-12.81399 -13.0428,-14.47575 -38.7828,-1.83376 -14.301,7.03499 -31.517,6.46468 -38.098,23.51166 -27.914,72.35993 -92.4931,273.62975 -122.4661,387.43257 -7.207,27.347 19.9094,31.931 28.0314,3.873 19.735,-67.81191 64.7478,-217.90418 91.5737,-295.21211 -2.687,70.76993 -21.9608,182.62998 -12.9808,241.31793 2.8609,18.45898 20.0774,26.43369 28.9444,42.05463 6.291,11.11995 16.4181,12.23815 21.9671,-2.9598 26.2559,-71.57097 77.3305,-197.80126 126.5825,-298.77316 -9.668,44.44596 -46.7321,233.07295 -57.0291,308.25381 -2.058,15.101 16.4775,15.4576 32.8935,38.1665 3.662,5.102 17.8435,10.635 20.3615,-2.412 8.75,-45.09295 66.013,-337.9459 88.378,-430.95581 3.755,-15.69498 4.4896,-26.49661 -6.7415,-27.37701 z m -404.8039,265.17199 c -6.6242,0.2081 -13.2964,2.91565 -18.1549,8.68942 -9.267,10.94299 -6.9226,21.68758 -4.4056,30.90757 0.7741,2.81458 2.0437,7.05488 3.5001,11.82431 -4.9398,5.06711 -10.837,11.38222 -18.7104,20.52895 -19.62,22.77198 -14.3047,52.32065 6.6883,58.84764 12.7799,3.97576 24.7313,-1.82362 35.0696,-10.98733 0.4889,1.27092 1.0257,2.72741 1.4838,3.87296 5.434,13.73399 22.4275,9.57575 15.9635,-7.00024 -1.1043,-2.83463 -2.549,-6.85229 -4.1012,-11.27646 3.3316,-4.22091 6.388,-8.49551 9.0775,-12.47868 12.527,-18.53899 0.3982,-29.41931 -12.2428,-18.45932 -1.7815,1.54552 -3.6336,3.29697 -5.5241,5.11321 -2.1482,-6.58368 -4.2652,-13.17597 -6.247,-19.49413 5.969,-7.29336 11.6833,-14.48628 16.5723,-22.10401 14.5957,-22.71535 -2.0404,-38.5157 -18.9691,-37.98389 z m -0.6163,18.04844 c 4.3192,-0.0279 8.2602,5.27088 1.4533,12.93521 -1.8969,2.14289 -3.6761,4.03301 -5.4404,5.86651 -0.4107,-1.45916 -0.8945,-3.11558 -1.1946,-4.26102 -2.7347,-10.34436 1.3706,-14.51611 5.1817,-14.5407 z m -10.4395,58.64219 c 1.7607,5.38404 3.5747,10.82366 5.41,16.22229 -2.3765,1.98005 -4.7805,3.78453 -7.1905,5.26539 -7.722,4.696 -13.7819,-0.3515 -3.4849,-14.52549 1.7296,-2.37421 3.4907,-4.68595 5.2654,-6.96219 z" /></g></svg>
