<?xml version="1.0" encoding="UTF-8" standalone="no"?>
<!-- Generator: Adobe Illustrator 26.0.3, SVG Export Plug-In . SVG Version: 6.00 Build 0)  -->

<svg
   version="1.0"
   id="katman_1"
   x="0px"
   y="0px"
   viewBox="0 0 450 300"
   xml:space="preserve"
   width="450"
   height="300"
   xmlns="http://www.w3.org/2000/svg"
   xmlns:svg="http://www.w3.org/2000/svg"><defs
   id="defs9"><style
     id="style1">.cls-1{fill:#003d8d;}.cls-2{fill:#fff;}.cls-3{fill:#f60;}</style></defs>
<style
   type="text/css"
   id="style2">
	.st0{fill:#010202;}
</style>

<g
   id="g13"
   transform="translate(-1037.5024,-142.23868)"><rect
     style="fill:#f0dbec;fill-opacity:1;fill-rule:evenodd;stroke-width:0.999985"
     id="rect1-3-0-8-3-2-5-9"
     width="450.00003"
     height="300"
     x="1037.5024"
     y="142.23868"
     rx="20"
     ry="20" /><g
     style="display:inline;fill:none;stroke-width:0.462911"
     id="g5"
     transform="matrix(2.1602432,0,0,2.1602432,1111.2857,232.23906)"><path
       d="m 140,3.24382 c 0,1.78778 -1.456,3.2438 -3.243,3.2438 -1.788,0 -3.244,-1.45602 -3.244,-3.2438 C 133.513,1.45603 134.969,0 136.757,0 138.544,0 140,1.45603 140,3.24382 Z"
       fill="#e30613"
       id="path14"
       style="stroke-width:0.462911" /><path
       d="m 139.134,2.52511 h -1.622 -0.018 V 0.884766 h -1.456 V 2.52511 h -1.641 v 1.45602 h 1.641 v 1.64034 h 1.456 V 3.99957 3.98113 h 1.64 z"
       fill="#ffffff"
       id="path15"
       style="stroke-width:0.462911" /><path
       id="path1-7"
       style="display:inline;fill:#e8a9d8;fill-opacity:1;stroke-width:0.462911"
       d="m 65.557688,31.810294 c -0.589799,0 -1.216638,0.03709 -1.806437,0.12929 -1.769398,0.257999 -2.782989,0.88421 -3.593888,1.603009 -0.1659,0.1291 -0.497112,0.424068 -0.792012,0.848067 -0.442399,0.5897 -0.95837,1.677105 -0.95837,3.114703 0,1.953698 0.847749,3.170291 1.677148,4.054991 0.2212,0.202799 0.423899,0.423877 0.810998,0.718777 0.258,0.1843 0.516099,0.350623 0.810998,0.553323 0.2949,0.2028 0.626502,0.386789 0.921301,0.589488 l 1.382404,0.792012 c 0.4792,0.2949 0.976756,0.589967 1.437555,0.848067 1.234899,0.755599 1.640402,1.032148 2.193402,1.677148 0.921499,1.050599 0.921301,2.101315 0.921301,2.525214 0,1.419099 -0.553181,2.19326 -1.17988,2.819959 -0.847799,0.847799 -2.008437,1.437555 -3.998935,1.437555 -1.898398,0 -3.317317,-0.589756 -5.178815,-1.437555 l -0.295648,2.285623 c 1.640298,0.626599 2.285571,0.866459 3.96277,1.087659 0.589799,0.0553 1.179399,0.09132 1.732299,0.09132 2.008998,0 3.539153,-0.644208 4.331652,-1.141907 0.921499,-0.5897 1.861892,-1.566647 2.322691,-2.488146 0.4608,-0.884699 0.662722,-2.101788 0.662722,-3.023387 0,-0.386999 10e-7,-1.640311 -0.810998,-2.87511 -0.2396,-0.3502 -0.57137,-0.718642 -0.95837,-1.105742 -0.755699,-0.718799 -1.068778,-0.8845 -2.451077,-1.732299 -0.792499,-0.4792 -1.566357,-0.939956 -2.358856,-1.437555 -0.3686,-0.2027 -0.718791,-0.423858 -1.050591,-0.626557 -0.571299,-0.3502 -2.064394,-1.272327 -2.432994,-2.746725 -0.0922,-0.4055 -0.09222,-0.792302 -0.09222,-0.921301 0,-1.050599 0.369016,-1.603482 0.792915,-2.101182 0.810999,-0.958399 1.879289,-1.547858 4.054087,-1.547858 2.174797,0 3.484142,0.682012 4.460941,1.142811 h 0.01808 l 0.386964,-2.156332 c -0.866299,-0.2949 -2.654142,-0.977357 -4.92114,-0.977357 z m -25.433877,0.223318 v 23.148255 h 2.230471 V 44.474341 h 2.027043 c 0.903099,0 1.180135,0.07352 1.696135,0.202524 0.221199,0.0369 0.589176,0.07339 1.178976,0.589488 0.552899,0.460699 0.84808,1.013648 1.17988,1.677147 0.497599,1.013699 0.847566,1.97245 1.308265,2.949249 0.3686,0.884699 0.792881,1.769001 1.179881,2.6536 0.387099,0.884699 0.774211,1.806874 1.142811,2.691573 l 2.488146,0.03617 v -0.01808 l -2.064113,-4.626396 c -0.423899,-0.995199 -0.84847,-2.008514 -1.309169,-2.985413 -0.3318,-0.7556 -0.699656,-1.493024 -1.086756,-2.285623 -0.737199,-1.345398 -1.640651,-1.566378 -2.13825,-1.640078 -0.129,-0.0184 -0.295034,-0.05515 -0.424034,-0.05515 0.3318,-0.0737 1.769035,-0.23986 3.077634,-1.08766 0.3686,-0.257999 0.75586,-0.607852 1.08766,-0.976452 1.216398,-1.511399 1.142811,-2.949652 1.142811,-3.410351 0,-2.266998 -0.977179,-3.741359 -1.990878,-4.552258 -0.1659,-0.1659 -0.588995,-0.423419 -0.810094,-0.552419 -1.142699,-0.645099 -2.359985,-0.940726 -4.645383,-1.014426 -1.732498,-0.0369 -3.501637,-0.03617 -5.271036,-0.03617 z m 42.076969,0.03707 -9.43633,23.148255 h 2.230471 l 2.580367,-6.247488 h 11.721951 l 2.56138,6.229405 2.322691,0.03707 -9.326026,-23.149158 v -0.01808 z m 14.154945,0 v 23.148255 h 2.156333 c 0,-4.220596 0.03707,-8.440908 0.03707,-12.698404 0,-1.769298 -3.38e-4,-3.538806 -0.07414,-5.308105 -0.0368,-0.976799 -0.128724,-1.972449 -0.202524,-2.949248 l 0.681709,1.474624 c 0.386999,0.755699 0.811232,1.511672 1.235037,2.230471 0.369,0.681999 0.75588,1.382213 1.17988,2.064112 0.35,0.5898 0.7549,1.216638 1.1419,1.806437 0.498,0.8294 0.97663,1.603426 1.47463,2.395926 0.792,1.271698 1.56676,2.524712 2.35976,3.796411 1.474,2.432898 2.94897,4.810765 4.42297,7.206762 H 113.478 V 32.088764 h -2.15724 c 0.037,4.810495 0,9.694615 0,14.54191 0,0.939999 7e-5,1.825057 0.0371,2.709656 0.037,1.290198 0.11136,2.561046 0.16636,3.869645 -0.295,-0.645099 -0.5903,-1.326475 -0.9213,-1.989974 l -0.79291,-1.474624 c -0.534,-0.958399 -1.08708,-1.89846 -1.64008,-2.819959 -0.922,-1.511299 -1.82473,-2.985639 -2.74673,-4.460038 -2.119,-3.428196 -4.27635,-6.91162 -6.413845,-10.376616 l 0.03707,-0.01808 z m -96.3198118,0.01356 8.736538,23.149159 H 11.131307 L 19.812694,32.120408 H 17.619292 L 9.9523314,52.781421 2.3947694,32.084243 Z m 23.2043098,0 v 23.149159 h 11.703869 l 0.01808,-1.917645 H 25.470691 V 44.21124 h 8.643413 l 0.03707,-1.934822 h -8.644318 v -8.220284 h 9.142489 v -1.971892 z m 98.245597,0.03707 c -0.95825,-0.0069 -1.91666,0.0027 -2.88415,0.0027 v 23.07502 c 1.51099,0.0369 3.04125,0.07387 4.55225,0.03707 3.668,-0.0553 8.68128,-0.128961 11.46428,-5.363256 1.456,-2.709297 1.51079,-5.363693 1.51079,-6.248392 0,-3.280697 -1.14211,-5.676485 -2.06411,-6.948183 -0.295,-0.3686 -0.55329,-0.663491 -0.94029,-1.050591 -0.59,-0.589699 -1.08625,-0.995304 -1.67624,-1.382404 -1.677,-1.050499 -3.53939,-1.824343 -7.07838,-2.027043 -0.9675,-0.06455 -1.9259,-0.08802 -2.88415,-0.09493 z m -77.283511,1.860685 c 1.650148,-8.77e-4 2.787495,0.07887 3.644519,0.35532 1.124299,0.3318 2.13748,1.179088 2.56138,2.321787 0.184299,0.5529 0.22151,1.124135 0.22151,1.345335 0,1.290099 -0.626691,2.230139 -1.050591,2.727738 -0.2765,0.3318 -0.663916,0.645078 -0.792916,0.718778 -1.197998,0.884699 -2.653733,1.050859 -3.888632,1.087659 -0.847799,0.0369 -1.677146,0 -2.488145,0 v -0.01808 l -0.03707,-8.515028 c 0.672724,-0.01383 1.279895,-0.02322 1.829944,-0.02351 z m 78.401001,0.0877 c 1.51635,0.01674 3.70484,0.162573 5.48984,0.819135 1.54899,0.552899 2.48841,1.40052 2.98541,1.82452 0.516,0.534399 0.88549,0.958045 1.05149,1.216045 1.64,2.322297 1.69523,5.142169 1.69523,5.695069 0,1.935198 -0.58947,4.810192 -2.23047,6.708591 -2.17399,2.617097 -5.10439,2.893948 -7.38939,2.949248 -1.106,0.0369 -2.23129,0.03707 -3.37328,0.03707 V 34.095916 c 0.1935,0 0.86136,-0.03627 1.77117,-0.02622 z m -39.148512,0.120248 5.061279,12.845776 H 78.404368 c 0.4976,-1.271699 1.014094,-2.506044 1.511693,-3.759342 0.5898,-1.400699 1.1794,-2.765082 1.7323,-4.18428 0.626599,-1.621899 1.216637,-3.261856 1.806437,-4.902154 z" /><path
       id="path8-5"
       style="display:inline;fill:#cb409b;fill-opacity:1;stroke-width:0.462911"
       d="m 35.258727,2.3964689 c -0.3686,0.01844 -0.903197,0.037069 -1.621996,0.037069 -0.7188,0.01843 -1.529578,0.037069 -2.451077,0.037069 h -2.931166 -3.059551 -1.916741 -1.640078 c -0.2212,0 -0.349896,0.1466597 -0.349896,0.4231294 0,0.2211598 0.147217,0.3507996 0.442116,0.3507996 h 0.479185 c 0.4424,0 0.737319,0.1287257 0.903219,0.3498955 0.1659,0.2395998 0.239593,0.7001168 0.239593,1.4004861 V 23.554749 c 0,0.7004 -0.07369,1.180291 -0.239593,1.40139 -0.1659,0.2396 -0.460819,0.349896 -0.903219,0.349896 h -0.516254 c -0.276399,0 -0.424033,0.147634 -0.424033,0.424034 0,0.221199 0.147634,0.349895 0.424033,0.349895 h 1.235032 2.432994 3.225006 c 1.161099,0.0184 2.267632,0.03675 3.318131,0.05515 1.068998,0.0184 2.008959,0.03707 2.819958,0.03707 h 1.677148 c 0.1475,0 0.221193,-0.05549 0.239593,-0.12929 0.147499,-0.4792 0.294885,-0.995445 0.479185,-1.566845 0.165899,-0.552899 0.34955,-1.123613 0.51535,-1.713312 0.165899,-0.5714 0.332271,-1.142648 0.498171,-1.677148 l 0.05515,-0.07414 c 0.1659,-0.534399 0.295033,-1.013556 0.424033,-1.437555 0.1106,-0.4239 0.05516,-0.663578 -0.184441,-0.718778 -0.2581,-0.0553 -0.460757,0.09233 -0.626557,0.424034 -0.552999,1.068999 -1.051063,1.97187 -1.548762,2.690669 -0.4976,0.718799 -1.013359,1.290317 -1.547858,1.714217 -0.5345,0.423899 -1.124269,0.718919 -1.769368,0.903218 -0.645,0.1843 -1.363685,0.276662 -2.211485,0.276662 h -1.455637 c -0.4239,0 -0.79276,-0.01867 -1.08766,-0.03707 -0.2765,-0.0184 -0.479892,-0.129431 -0.590392,-0.313731 -0.1106,-0.184299 -0.165455,-0.423291 -0.165455,-0.699791 v -9.10542 h 1.142812 c 0.608299,0 1.105876,0.110614 1.529775,0.331813 0.4239,0.2212 0.755205,0.516119 1.031604,0.903219 0.2765,0.387 0.461393,0.829335 0.590392,1.345335 0.1106,0.534499 0.202793,1.087517 0.239593,1.714216 0.0185,0.2764 0.07367,0.461223 0.147372,0.553323 0.0737,0.0922 0.202713,0.128386 0.331813,0.128386 0.129,0 0.239027,-0.05469 0.312827,-0.128386 0.0737,-0.0921 0.111207,-0.258254 0.111207,-0.516254 V 18.413003 17.343426 15.94294 14.395082 12.643796 11.095938 9.9350443 9.3998036 c 0,-0.3870496 -0.147634,-0.5714055 -0.424034,-0.5714055 -0.3134,0 -0.479185,0.166631 -0.479185,0.5352406 0,0.4607696 -0.05544,0.9399553 -0.184441,1.4375553 -0.129,0.497599 -0.313088,0.958504 -0.589488,1.382404 -0.2765,0.423899 -0.626691,0.755204 -1.050591,1.031604 -0.423899,0.276499 -0.940145,0.405951 -1.566844,0.405951 h -1.14281 V 3.834024 c 0,-0.1474498 0.09204,-0.2211625 0.294744,-0.2395925 0.2212,-0.03687 0.460778,-0.037069 0.718778,-0.037069 h 1.069577 c 0.810999,0 1.492982,0.092352 2.101182,0.2766615 0.608199,0.1658699 1.141892,0.442041 1.621092,0.8290806 0.479199,0.3870496 0.922339,0.8667523 1.346238,1.4565417 0.4055,0.5897794 0.847466,1.3088711 1.308266,2.1382503 0.0922,0.1843098 0.184562,0.3309795 0.276662,0.4231295 0.0922,0.09215 0.202495,0.1290804 0.349895,0.09222 0.1659,-0.03686 0.257675,-0.1103736 0.257675,-0.2025235 0,-0.09215 -0.01825,-0.2210947 -0.05515,-0.3869646 C 36.640665,7.8151389 36.548303,7.3908574 36.437703,6.9116579 36.327103,6.4508883 36.21639,5.9720797 36.10589,5.4560202 35.99529,4.9399608 35.884677,4.4419565 35.774077,3.944327 35.663477,3.4466975 35.572019,2.9861805 35.498319,2.5438409 c -0.0368,-0.09215 -0.110592,-0.147372 -0.239592,-0.147372 z m 72.321683,0 c -0.369,0.01844 -0.903,0.037069 -1.622,0.037069 -0.719,0.01843 -1.53007,0.037069 -2.45107,0.037069 h -2.93117 -3.059551 -1.91674 -1.640079 c -0.2212,0 -0.3508,0.1466597 -0.3508,0.4231294 0,0.2211598 0.148121,0.3507996 0.44302,0.3507996 h 0.479185 c 0.4423,0 0.736415,0.1287257 0.902315,0.3498955 0.1659,0.2395998 0.239592,0.7001168 0.239592,1.4004861 V 23.554749 c 0,0.7004 -0.07369,1.180291 -0.239592,1.40139 -0.1659,0.2396 -0.460015,0.349896 -0.902315,0.349896 h -0.516254 c -0.276499,0 -0.424033,0.147634 -0.424033,0.424034 0,0.221199 0.147534,0.349895 0.424033,0.349895 h 1.235032 2.43209 3.225907 c 1.161,0.0184 2.26723,0.03675 3.31723,0.05515 1.069,0.0184 2.00896,0.03707 2.81996,0.03707 h 1.67805 c 0.147,0 0.22069,-0.05549 0.23869,-0.12929 0.148,-0.4792 0.29518,-0.995445 0.47918,-1.566845 0.166,-0.552899 0.35026,-1.123613 0.51626,-1.713312 0.166,-0.5714 0.33127,-1.142648 0.49727,-1.677148 l 0.0371,-0.07414 c 0.166,-0.534399 0.31304,-1.013556 0.42404,-1.437555 0.11,-0.4239 0.0555,-0.663578 -0.18354,-0.718778 -0.259,-0.0553 -0.46146,0.09233 -0.62746,0.424034 -0.553,1.068999 -1.05086,1.97187 -1.54786,2.690669 -0.498,0.718799 -1.01376,1.290317 -1.54876,1.714217 -0.534,0.423899 -1.12437,0.718919 -1.76937,0.903218 -0.645,0.1843 -1.36348,0.276662 -2.21148,0.276662 h -1.45654 c -0.424,0 -0.79176,-0.01867 -1.08676,-0.03707 -0.276,-0.0184 -0.47869,-0.129431 -0.589488,-0.313731 -0.1106,-0.184299 -0.166359,-0.423291 -0.166359,-0.699791 v -9.10542 h 1.142807 c 0.608,0 1.10578,0.110614 1.52978,0.331813 0.424,0.2212 0.75551,0.516119 1.03251,0.903219 0.276,0.387 0.46049,0.829335 0.58949,1.345335 0.11,0.534499 0.20259,1.087517 0.23959,1.714216 0.019,0.2764 0.0734,0.461223 0.14737,0.553323 0.073,0.0922 0.20272,0.128386 0.33272,0.128386 0.129,0 0.23882,-0.05469 0.31282,-0.128386 0.074,-0.0921 0.1094,-0.258254 0.1094,-0.516254 V 18.413003 17.343426 15.94294 14.395082 12.643796 11.095938 9.9350443 9.3998036 c 0,-0.3870496 -0.14622,-0.5714055 -0.42222,-0.5714055 -0.314,0 -0.48009,0.166631 -0.48009,0.5352406 0,0.4607696 -0.0554,0.9399553 -0.18444,1.4375553 -0.129,0.497599 -0.31249,0.958504 -0.58949,1.382404 -0.276,0.423899 -0.62659,0.755204 -1.05059,1.031604 -0.424,0.276499 -0.93985,0.405951 -1.56685,0.405951 H 99.728103 V 3.834024 c 0,-0.1474498 0.09224,-0.2211625 0.294747,-0.2395925 0.221,-0.03687 0.46077,-0.037069 0.71877,-0.037069 h 1.08766 c 0.811,0 1.49309,0.092352 2.10209,0.2766615 0.608,0.1658699 1.14119,0.442041 1.62019,0.8290806 0.48,0.3870496 0.92224,0.8667523 1.34624,1.4565417 0.405,0.5897794 0.84817,1.3088711 1.30917,2.1382503 0.092,0.1843098 0.18375,0.3309795 0.27575,0.4231295 0.092,0.09215 0.2029,0.1290804 0.3499,0.09222 0.166,-0.03686 0.25858,-0.1103736 0.25858,-0.2025235 0,-0.09215 -0.0182,-0.2210947 -0.0551,-0.3869646 -0.074,-0.3686196 -0.16567,-0.7929011 -0.27667,-1.2721006 -0.10999,-0.4607696 -0.22181,-0.9395782 -0.33181,-1.4556377 -0.111,-0.5160594 -0.22081,-1.0140637 -0.33181,-1.5116932 -0.111,-0.4976295 -0.20266,-0.9581465 -0.27666,-1.4004861 -0.036,-0.09215 -0.10969,-0.147372 -0.23869,-0.147372 z m -25.452864,0.07233 c -0.2764,0 -0.424034,0.1289348 -0.424034,0.3869645 0,0.2580298 0.14812,0.3869646 0.44302,0.3869646 0.829399,0 1.400748,0.2584262 1.677148,0.7929156 0.2765,0.5344895 0.424033,1.3635294 0.424033,2.5062283 V 17.766555 C 84.008114,17.379456 83.639402,16.7891 83.104902,15.978201 82.588903,15.167201 81.980047,14.246079 81.316547,13.23238 80.634648,12.218681 79.934483,11.149655 79.197284,10.025457 78.460085,8.9011477 77.759284,7.8508612 77.114185,6.8556022 76.469086,5.8787732 75.898472,4.9938262 75.400872,4.2381669 74.903273,3.4825077 74.570747,2.9481295 74.386447,2.6532397 c -0.0368,-0.05529 -0.0918,-0.092429 -0.110303,-0.1292895 -0.0184,-0.03686 -0.09234,-0.037069 -0.184441,-0.037069 h -0.275758 -0.608474 -0.848067 -0.99544 -1.732299 -0.903218 c -0.2765,0 -0.424034,0.1475738 -0.424034,0.4240335 0,0.2395998 0.147534,0.3688821 0.424034,0.3688821 0.423899,0 0.737001,0.073861 0.921301,0.184441 0.184299,0.1105899 0.387861,0.3499489 0.627461,0.6817086 0.1659,0.2395998 0.349719,0.5160984 0.552419,0.8109981 0.2027,0.3133197 0.405775,0.6083289 0.608474,0.9032186 V 22.11629 c 0,1.142699 -0.147802,1.953477 -0.461102,2.451077 -0.2949,0.497599 -0.682112,0.755846 -1.142811,0.755846 h -0.51535 c -0.2765,0 -0.424034,0.147534 -0.424034,0.424034 0,0.2212 0.147216,0.349895 0.442116,0.349895 h 1.142811 1.621997 1.769368 1.234127 c 0.2765,0 0.424034,-0.128864 0.424034,-0.386964 0,-0.258 -0.147534,-0.386965 -0.424034,-0.386965 h -0.51535 c -0.571299,0 -1.013952,-0.240164 -1.327252,-0.737764 -0.3134,-0.497699 -0.479185,-1.326729 -0.479185,-2.506228 V 7.8320548 c 1.161199,1.7877782 2.230273,3.4097212 3.151772,4.8289192 0.939999,1.437599 1.843039,2.819578 2.727738,4.183376 0.884599,1.363899 1.806091,2.783116 2.78289,4.257514 0.958399,1.474499 2.082914,3.170701 3.336213,5.087499 0.1474,0.2396 0.33105,0.331644 0.51535,0.294744 0.1843,-0.0553 0.276661,-0.221354 0.276661,-0.516254 V 6.5789407 c 0,-1.1427089 0.147703,-1.9726429 0.461103,-2.5071324 0.3133,-0.5344894 0.921103,-0.7920115 1.842602,-0.7920115 l 0.03707,-0.037069 c 0.2765,0 0.424034,-0.1289348 0.424034,-0.3869646 0,-0.2580297 -0.147534,-0.3869645 -0.424034,-0.3869645 h -1.197962 -1.714217 -1.69523 z M 0.42378186,2.4877853 c -0.27646073,0 -0.42403356777,0.1289348 -0.42403356777,0.3869645 0,0.2580298 0.14757283777,0.3878687 0.42403356777,0.3878687 h 0.51625408 c 0.44233356,0 0.73734876,0.1106432 0.90321866,0.331813 0.1658798,0.2211698 0.2395925,0.6811303 0.2395925,1.3814996 V 23.591818 c 0,0.7003 -0.07406,1.1603 -0.2215101,1.3815 -0.1474398,0.2211 -0.4424541,0.331813 -0.9032186,0.331813 H 0.44276843 c -0.27646072,0 -0.42403356,0.128865 -0.42403356,0.386964 0,0.258 0.14757284,0.386965 0.42403356,0.386965 H 2.2853706 4.1288768 c 1.5666085,0.0184 3.1515122,0.03766 4.7918506,0.05606 1.6218786,0.0184 3.3908196,0.03675 5.2891176,0.05515 0.1659,0 0.258262,-0.05517 0.276662,-0.147372 0.0369,-0.129 0.129262,-0.497543 0.276662,-1.105742 0.147499,-0.608199 0.312967,-1.25341 0.497267,-1.953809 0.1843,-0.7003 0.350354,-1.363862 0.516254,-2.008961 l -0.01808,0.01808 c 0.165799,-0.645099 0.276513,-1.087652 0.331813,-1.327252 0.1106,-0.423899 0.05516,-0.663477 -0.184441,-0.718777 -0.258,-0.0737 -0.460658,0.05543 -0.626557,0.424033 -0.5344,1.068999 -1.032325,1.972774 -1.474625,2.691574 -0.442299,0.718799 -0.921555,1.289413 -1.437555,1.713312 -0.516099,0.4239 -1.068948,0.718919 -1.677147,0.903219 -0.6082,0.1843 -1.3459406,0.276661 -2.1753197,0.276661 H 7.2797446 c -0.4791995,0 -0.7738512,-0.09236 -0.9213011,-0.276661 C 6.2294236,24.494274 6.15592,24.107062 6.15592,23.535763 V 4.9759311 c 0,-0.7003693 0.055074,-1.1603298 0.2025235,-1.3814996 0.1290199,-0.2211698 0.4421016,-0.331813 0.9213011,-0.331813 h 0.4800892 c 0.2764597,0 0.4231294,-0.1298389 0.4231294,-0.3878687 0,-0.2580297 -0.1466697,-0.3869645 -0.4231294,-0.3869645 H 6.3403611 4.1098903 1.861337 Z M 44.050416,2.5058677 c -0.294899,0 -0.424033,0.1289348 -0.424033,0.3869646 0,0.2580297 0.147534,0.3869645 0.424033,0.3869645 h 0.51535 c 0.4423,0 0.737319,0.1106433 0.903219,0.3318131 0.1658,0.2211697 0.239593,0.6820343 0.239593,1.3824036 V 23.608997 c 0,0.700299 -0.07379,1.161203 -0.239593,1.382403 -0.1659,0.2211 -0.460919,0.331813 -0.903219,0.331813 h -0.51535 c -0.294899,0 -0.424033,0.128965 -0.424033,0.386965 0,0.258 0.147534,0.386964 0.424033,0.386964 h 1.436651 2.249458 2.247649 1.438459 c 0.2764,0 0.42313,-0.128964 0.42313,-0.386964 0,-0.258 -0.14673,-0.386965 -0.42313,-0.386965 h -0.516254 c -0.442299,0 -0.737419,-0.110713 -0.903218,-0.331813 -0.1659,-0.2212 -0.239593,-0.682104 -0.239593,-1.382403 V 14.54155 h 7.058486 v 9.067447 c 0,0.700299 -0.07369,1.161203 -0.239592,1.382403 -0.1658,0.2211 -0.460015,0.331813 -0.902315,0.331813 h -0.516254 c -0.2764,0 -0.424033,0.128965 -0.424033,0.386965 0,0.258 0.147633,0.386964 0.424033,0.386964 h 1.437555 2.248554 2.248553 1.437555 c 0.2765,0 0.424034,-0.128964 0.424034,-0.386964 0,-0.258 -0.147534,-0.386965 -0.424034,-0.386965 h -0.516254 c -0.4423,0 -0.737319,-0.110713 -0.903219,-0.331813 -0.1658,-0.2212 -0.239592,-0.682104 -0.239592,-1.382403 V 4.9940135 c 0,-0.7003693 0.07379,-1.1612339 0.239592,-1.3824036 0.1659,-0.2211698 0.460919,-0.3318131 0.903219,-0.3318131 h 0.516254 c 0.2765,0 0.424034,-0.1289348 0.424034,-0.3869645 0,-0.2580298 -0.147534,-0.3869646 -0.424034,-0.3869646 h -1.437555 -2.248553 -2.230471 -1.419473 c -0.2949,0 -0.442116,0.1289348 -0.442116,0.3869646 0,0.2580297 0.147216,0.3869645 0.442116,0.3869645 h 0.480089 c 0.4423,0 0.736515,0.1106433 0.902315,0.3318131 0.1659,0.2211697 0.239592,0.6820343 0.239592,1.3824036 V 13.342683 H 49.763568 V 4.9940135 c 0,-0.7003693 0.07369,-1.1612339 0.239593,-1.3824036 0.165799,-0.2211698 0.460919,-0.3318131 0.903218,-0.3318131 h 0.516254 c 0.2764,0 0.42313,-0.1289348 0.42313,-0.3869645 0,-0.2580298 -0.14673,-0.3869646 -0.42313,-0.3869646 h -1.438459 -2.247649 -2.249458 z m 72.284614,0 c -0.276,0 -0.42403,0.1289348 -0.42403,0.3869646 0,0.2580297 0.14803,0.3869645 0.42403,0.3869645 h 0.51625 c 0.442,0 0.73632,0.1287257 0.90232,0.3498955 0.166,0.2395998 0.24049,0.701021 0.24049,1.4013903 V 23.590914 c 0,0.700399 -0.0745,1.161304 -0.24049,1.382404 -0.166,0.2212 -0.46032,0.331813 -0.90232,0.331813 h -0.51625 c -0.276,0 -0.42403,0.14663 -0.42403,0.423129 0,0.258 0.14803,0.386965 0.42403,0.386965 h 1.43755 2.24856 2.24855 1.43756 c 0.277,0 0.42403,-0.128965 0.42403,-0.386965 0,-0.276499 -0.14703,-0.423129 -0.42403,-0.423129 h -0.51626 c -0.442,0 -0.73722,-0.110613 -0.90322,-0.331813 -0.166,-0.2211 -0.23959,-0.682005 -0.23959,-1.382404 v -8.589166 c 0,-0.2212 0.11081,-0.331813 0.33181,-0.331813 0.461,0 0.82966,0.1112 1.08766,0.3508 0.258,0.239599 0.49769,0.571222 0.71969,1.013521 0.60799,1.179599 1.21554,2.321731 1.78654,3.42753 0.572,1.105898 1.10593,2.120287 1.58493,3.023386 0.48,0.903099 0.88495,1.676688 1.21695,2.321787 0.332,0.645 0.55361,1.069084 0.68261,1.290183 h 1.21605 1.41856 1.67806 0.95837 c 0.221,0 0.40414,-0.110303 0.40414,-0.110303 l -0.0172,-0.01899 c 0.055,-0.0737 0.0732,-0.165575 0.0732,-0.257675 0,-0.0922 -0.0363,-0.184462 -0.11031,-0.276662 -0.074,-0.0921 -0.18388,-0.128385 -0.36888,-0.128385 -0.276,0 -0.57123,-0.09295 -0.88423,-0.295648 -0.295,-0.2027 -0.55285,-0.478564 -0.75585,-0.847163 -0.258,-0.4423 -0.47961,-0.84835 -0.68261,-1.216949 -0.184,-0.3686 -0.40457,-0.755812 -0.60757,-1.142812 -0.203,-0.387099 -0.42453,-0.791828 -0.66453,-1.234127 -0.239,-0.4239 -0.53326,-0.940563 -0.84626,-1.548762 -0.332,-0.6082 -0.70172,-1.308682 -1.14372,-2.101182 -0.442,-0.792499 -0.93977,-1.732242 -1.52977,-2.838041 0.461,-0.2212 0.92232,-0.479516 1.36432,-0.792916 0.461,-0.313299 0.84795,-0.681525 1.21695,-1.123824 0.35,-0.4424 0.64515,-0.958376 0.86615,-1.529776 0.221,-0.571299 0.33091,-1.2538579 0.33091,-2.0279471 0,-0.995259 -0.16526,-1.8798586 -0.51626,-2.6355178 -0.35,-0.7556593 -0.82858,-1.4006807 -1.39958,-1.9167402 -0.59,-0.5160595 -1.25396,-0.9028639 -2.00896,-1.1608936 -0.756,-0.2580298 -1.54876,-0.3869646 -2.35976,-0.3869646 h -0.75585 -1.19796 -1.49271 -1.62199 -2.30371 z m 7.15071,0.8109981 c 1.106,0 1.9352,0.4425731 2.5442,1.3272522 h 0.0181 c 0.608,0.8846691 0.90322,2.1562821 0.90322,3.8334804 0,1.8983786 -0.33244,3.2623426 -0.99544,4.1101416 -0.682,0.8478 -1.5476,1.271197 -2.6536,1.271197 -0.277,0 -0.53486,-0.0366 -0.73686,-0.110303 -0.222,-0.0737 -0.36917,-0.184144 -0.49817,-0.294744 V 4.5518975 c 0,-0.4607695 0.0918,-0.7740603 0.27576,-0.9583701 0.18499,-0.1842998 0.57181,-0.2766616 1.14281,-0.2766616 z" /></g></g></svg>
