<?xml version="1.0" encoding="UTF-8" standalone="no"?>
<!-- Generator: Adobe Illustrator 26.0.3, SVG Export Plug-In . SVG Version: 6.00 Build 0)  -->

<svg
   version="1.0"
   id="katman_1"
   x="0px"
   y="0px"
   viewBox="0 0 450 300"
   xml:space="preserve"
   width="450"
   height="300"
   xmlns="http://www.w3.org/2000/svg"
   xmlns:svg="http://www.w3.org/2000/svg"><defs
   id="defs9"><style
     id="style1">.cls-1{fill:#003d8d;}.cls-2{fill:#fff;}.cls-3{fill:#f60;}</style></defs>
<style
   type="text/css"
   id="style2">
	.st0{fill:#010202;}
</style>

<g
   id="g9"
   transform="translate(-1519.041,566.35889)"><rect
     style="fill:#004e99;fill-opacity:1;fill-rule:evenodd;stroke-width:0.999985"
     id="rect1-3-0"
     width="450.00003"
     height="300"
     x="1519.041"
     y="-566.35889"
     rx="20"
     ry="20" /><path
     d="m 1834.3695,-522.93064 v -13.26909 l -5.6923,13.26909 h -3.1581 l -5.5981,-13.26909 v 13.26909 h -5.88 v -22.98439 h 7.8719 l 5.4075,12.97756 5.6593,-12.97756 h 7.2689 v 22.98439 z m 10.4049,1e-5 v -22.9844 h 5.0279 c 0.4406,0 0.8808,0.44054 0.8808,0.91983 v 22.06457 z m 22.2232,-13.23668 h 7.474 c 0.5897,0 0.9229,0.48263 0.9229,1.04943 v 11.87297 c -2.1021,0.46995 -5.3874,0.75815 -7.8296,0.75815 -8.5687,0 -13.0877,-4.08509 -13.0877,-11.96674 2e-4,-7.03324 4.519,-11.90539 12.0508,-11.90539 3.3178,0 6.2268,0.8844 8.0994,2.14776 l -2.3162,3.95549 c -1.6205,-0.72573 -3.8002,-1.2311 -5.3426,-1.2311 -4.3306,0 -6.3559,2.87341 -6.3559,7.03324 0,4.44121 2.3452,7.1851 6.6703,7.1851 0.7904,0 1.7755,-0.0291 2.5628,-0.15235 v -4.04934 h -2.8482 z m 21.5112,-5.31943 h -2.8928 v 5.76306 h 2.8928 c 1.7266,0 3.084,-0.91991 3.084,-3.10668 3e-4,-2.21584 -1.3577,-2.65638 -3.084,-2.65638 z m 4.3539,18.55611 -2.7277,-6.32677 c -0.5573,-1.28927 -0.9464,-1.92749 -2.1288,-1.92749 h -2.3902 v 8.25426 h -5.7762 v -22.06456 c 0,-0.4793 0.5249,-0.91984 0.9005,-0.91984 h 8.154 c 4.4312,0 8.2309,0.91984 8.2309,6.64089 0,2.56238 -1.4179,5.18667 -4.0785,5.71797 1.3255,0.4502 2.6606,2.14768 3.3827,3.99099 l 2.6275,6.63455 z m 18.9643,-18.55611 c -3.1,0 -5.3063,2.2126 -5.3063,7.03324 3e-4,4.88832 2.206,7.09458 5.3061,7.09458 2.6597,0 4.8366,-2.20626 4.8366,-7.09458 3e-4,-4.82064 -2.1769,-7.03324 -4.8364,-7.03324 z m 0,18.99998 c -7.5252,0 -11.5071,-5.31594 -11.5071,-11.96674 0,-6.5927 3.9816,-11.90539 11.5069,-11.90539 7.0495,0 11.0375,5.31269 11.0375,11.90539 2e-4,6.65055 -3.9883,11.96674 -11.0373,11.96674 z m 22.3527,0 c -3.8871,0 -7.4964,-1.39287 -9.1061,-2.50087 l 2.6207,-4.64547 c 1.4612,0.8844 4.305,2.24485 6.9257,2.24485 1.4838,0 3.3597,-0.28495 3.3597,-1.93382 0,-1.54855 -2.0959,-2.0215 -4.8435,-2.80881 -3.317,-0.94925 -7.1785,-2.27094 -7.1785,-6.73189 10e-5,-4.80748 4.2726,-7.49612 9.8324,-7.49612 3.6698,0 6.5143,1.29886 7.9657,2.68864 l -3.1912,3.63163 c -1.5774,-0.94275 -3.1905,-1.67481 -4.9984,-1.67481 -2.1768,0 -3.4077,0.82615 -3.4077,2.02784 2e-4,1.19218 1.5774,1.80123 3.5661,2.40044 3.5157,1.08543 8.3164,2.19335 8.3164,6.79681 3e-4,4.74257 -3.7907,8.00158 -9.8613,8.00158 z"
     style="fill:#ff6600;fill-opacity:1;fill-rule:evenodd;stroke-width:1"
     id="polygon3036" /><g
     id="g4"
     transform="matrix(2.0814882,0,0,2.0814882,1405.8028,-749.39429)"
     style="stroke-width:0.480426"><path
       id="path3-7"
       style="fill:#ffffff;stroke-width:0.480426"
       class="cls-2"
       d="m 79.711191,146.11023 c -8.071292,0 -13.298028,6.16087 -13.298028,13.89386 0,7.733 5.226736,13.89293 13.298028,13.89293 6.759793,0 11.804461,-4.03076 12.17766,-10.90716 h -6.946465 a 4.952,4.952 0 0 1 -5.382266,4.92999 c -4.484896,0 -6.200492,-3.95951 -6.200492,-7.91951 0,-3.9557 1.720688,-7.9156 6.205183,-7.9167 2.911097,0 5.003429,1.41614 5.381329,4.10614 h 6.947403 c -0.1912,-6.4219 -6.426758,-10.07955 -12.182352,-10.07955 z m 169.262719,0 c -6.47569,0 -11.44951,3.1206 -11.44951,8.7246 0,5.20099 4.49853,6.73369 8.36053,7.84069 3.20509,0.9107 5.64031,1.46223 5.64031,3.26633 0,1.9205 -2.18267,2.25012 -3.91097,2.25012 a 17.2971,17.2971 0 0 1 -8.07246,-2.6095 l -3.04395,5.40948 a 20.624,20.624 0 0 0 10.60033,2.90601 c 7.07619,0 11.48517,-3.79095 11.48517,-9.31575 0,-5.36399 -5.58246,-6.65326 -9.68076,-7.91576 -2.3148,-0.6982 -4.15493,-1.39974 -4.15493,-2.79153 0,-1.4079 1.43575,-2.35991 3.96445,-2.35991 a 11.34,11.34 0 0 1 5.82703,1.95548 l 3.71486,-4.23562 a 13.7346,13.7346 0 0 0 -9.2801,-3.12464 z m -153.138438,0.55643 v 15.65324 c 0,7.72999 3.546184,11.57806 11.617478,11.57806 8.07129,0 11.61841,-3.84807 11.61841,-11.57806 v -15.65324 h -6.95115 v 16.06235 c 0,3.43589 -1.27196,5.19178 -4.67195,5.19178 -3.3957,0 -4.67102,-1.75589 -4.67102,-5.19178 l 0.005,-14.98233 a 1.1037,1.1037 0 0 0 -1.03592,-1.08002 z m 63.687338,0 v 15.65324 c 0,7.72969 3.54773,11.57806 11.61842,11.57806 8.07069,0 11.61748,-3.84807 11.61748,-11.57806 v -15.65324 h -6.95116 v 16.06235 c 0,3.43589 -1.27195,5.19178 -4.67195,5.19178 -3.3957,0 -4.67101,-1.75589 -4.67101,-5.19178 l 0.005,-14.98233 a 1.1037,1.1037 0 0 0 -1.03592,-1.08002 z m 28.22594,0 v 24.01846 a 2.6509,2.6509 0 0 0 2.64891,2.6489 h 16.74358 v -4.89433 a 1.1088,1.1088 0 0 0 -1.03592,-1.08377 h -11.40447 v -19.60924 a 1.104,1.104 0 0 0 -1.03123,-1.08002 z m 22.12866,0 v 15.65324 c 0,7.72969 3.54772,11.57806 11.61842,11.57806 8.07069,0 11.61747,-3.84807 11.61747,-11.57806 v -15.65324 h -6.95115 v 16.06235 c 0,3.43589 -1.27196,5.19178 -4.67195,5.19178 -3.3957,0 -4.67102,-1.75589 -4.67102,-5.19178 l 0.005,-14.98233 a 1.1037,1.1037 0 0 0 -1.03592,-1.08002 z" /><path
       class="cls-3"
       d="m 146.0663,146.6668 h 8.4313 v 26.6673 H 147.68 V 157.938 l -6.6134,15.3961 h -3.6627 L 130.91,157.938 v 15.3961 h -6.8265 v -26.6673 h 9.1375 l 6.2759,15.0539 z"
       id="path5-9"
       style="fill:#ff6600;stroke-width:0.480426" /></g></g></svg>
