<?xml version="1.0" encoding="UTF-8" standalone="no"?>
<!-- Generator: Adobe Illustrator 26.0.3, SVG Export Plug-In . SVG Version: 6.00 Build 0)  -->

<svg
   version="1.0"
   id="katman_1"
   x="0px"
   y="0px"
   viewBox="0 0 450 300"
   xml:space="preserve"
   width="450"
   height="300"
   xmlns="http://www.w3.org/2000/svg"
   xmlns:svg="http://www.w3.org/2000/svg"><defs
   id="defs9"><style
     id="style1">.cls-1{fill:#003d8d;}.cls-2{fill:#fff;}.cls-3{fill:#f60;}</style></defs>
<style
   type="text/css"
   id="style2">
	.st0{fill:#010202;}
</style>

<g
   id="g857"
   style="display:inline;stroke-width:0.478088"
   transform="matrix(2.7888881,0,0,-2.7888881,-1165.3612,2255.9871)"><rect
     style="display:inline;fill:#ffffff;fill-opacity:1;fill-rule:evenodd;stroke-width:0.35856"
     id="rect1-3-0-8-3-2-5"
     width="161.35464"
     height="107.56976"
     x="417.8587"
     y="-808.91992"
     rx="7.1713166"
     ry="7.1713166"
     transform="scale(1,-1)" /><g
     id="g116"
     transform="translate(484.5114,758.1003)"
     style="stroke-width:0.478088"><path
       id="path102"
       style="display:inline;fill:#c6c6c7;fill-opacity:1;fill-rule:nonzero;stroke:none;stroke-width:0.478088"
       d="m 0,0 h -14.924 l 4.586,12.577 h 7.509 l 4.601,12.572 h -7.527 l 4.59,12.584 H 13.754 L 9.16,25.154 H 21.763 L 17.175,12.572 H 4.565 Z"
       transform="translate(43.5495,-24.479198)" /><path
       id="path106"
       style="display:inline;fill:#e3000b;fill-opacity:1;fill-rule:nonzero;stroke:none;stroke-width:0.478088"
       d="m 0,0 h -12.602 l 4.593,12.58 h -14.919 l -4.591,-12.585 h 12.614 l -4.601,-12.569 h -12.595 l -4.585,-12.581 h 14.923 l 4.565,12.576 h 12.61 z"
       transform="translate(61.940801,5.9686994)" /><path
       id="path118"
       style="fill:#181716;fill-opacity:1;fill-rule:nonzero;stroke:none;stroke-width:0.478088"
       d="m -24.76176,5.1215744 c -0.466312,-0.00253 -0.943336,-0.041319 -0.943336,-0.041319 -1.619999,-0.1439999 -2.81435,-0.6491589 -3.780349,-2.0701575 h -0.04832 l 0.589673,1.7900279 h -4.575216 L -37.26324,-5.458919 h 4.657854 l 1.429361,3.9281167 c 0.641,1.96299806 1.761643,3.2193987 4.195641,3.2403987 0.16,0 0.924336,-0.062967 1.158336,-0.144967 l 1.504996,3.5450396 c -0.135,0.01 -0.289269,0.012749 -0.444706,0.011906 z M -2.1728125,5.1082684 C -5.8758088,5.1112684 -8.1771924,3.1747929 -9.2621914,0.19479592 -10.25719,-2.5442013 -9.160135,-5.098858 -5.9041382,-5.110858 c 1.5679984,-0.006 3.4069208,0.3338866 4.5829196,1.4818854 h 0.049023 l -0.4166927,-1.0098671 c -0.5489994,-1.5099984 -1.3269671,-2.6514263 -3.3839651,-2.6514263 -0.4919995,0 -0.8328247,0.052309 -1.1338244,0.2353089 -0.5389994,0.3799996 -0.2990383,1.0869027 -0.2990383,1.0869027 l -4.4722689,-0.123257 c 0,0 -0.270733,-0.7516741 0.144267,-1.6716732 0.332999,-0.7359993 1.3756944,-1.7802234 4.9526908,-1.7802234 1.9249981,0 4.2016933,0.3409583 5.81969168,1.4209572 C 1.7576623,-6.9022522 2.47907,-5.7850547 3.1930693,-4.0260564 L 6.4040544,4.8001257 H 1.8687568 L 1.2237584,3.3476539 H 1.1740354 C 0.72503589,4.5226528 -0.45781421,5.1062682 -2.1728125,5.1082684 Z M -16.39429,5.1075679 c -3.881996,0 -7.205018,-1.6107557 -8.469017,-5.08575218 -1.474998,-4.05499592 0.691617,-5.78607612 4.784613,-5.78607612 1.446999,0 2.986378,0.2290702 4.273376,0.7990696 1.246999,0.5129995 2.392811,1.3095484 3.04781,2.4805473 0.031,0.054 0.06034,0.1015729 0.09034,0.1575728 l -4.179533,0.2037943 c -0.458,-0.947999 -1.287767,-1.4670711 -2.734765,-1.4510711 -1.732998,0.02 -1.727602,1.3551445 -1.302603,2.4721434 h 8.732339 c 1.460999,3.5299964 0.408433,6.209772 -4.242562,6.209772 z m 32.418694,0 c -1.371999,0 -2.960746,-0.057947 -4.419744,-0.5329465 C 9.1436621,3.7826222 8.6485925,1.8853776 8.6485925,1.8853776 l 4.2250545,-0.096645 c 0.205999,0.7309993 0.889738,1.4797029 2.026737,1.5197029 1.885998,0.061 1.120186,-1.3856922 0.836187,-2.1436915 H 14.26589 c -4.019995,0 -6.8750808,-0.66227755 -7.9570797,-3.189275 -0.4429996,-1.029999 -0.3102543,-1.9875799 0.3137451,-2.7655791 0.4679995,-0.5819994 1.4503522,-0.9958606 2.9203507,-0.9958606 2.3049979,0 3.4636869,0.9854946 4.2936859,1.7164939 h 0.05042 l -0.408289,-1.390143 h 4.23696 l 2.48685,6.8316597 c 0.887999,2.3139977 -1.327135,3.7355277 -4.178132,3.7355277 z m -32.8641,-1.9391969 c 0.573384,-0.029435 0.935719,-0.2776782 1.121219,-0.6548028 0.210999,-0.4299996 0.205902,-0.9799086 0.0049,-1.53090809 h -4.314696 c 0.521,1.30699869 1.290157,2.12301069 2.930155,2.18501059 0.09062,0.005 0.176508,0.00491 0.25842,7.003e-4 z M -1.2890037,2.8623295 c 1.91299806,0 1.74929582,-1.5932251 1.289296281,-2.8622238222 C -0.46070696,-1.2668931 -1.4590686,-2.8579162 -3.3710667,-2.8579162 c -1.9129981,0 -1.9066246,1.5766452 -1.3516251,2.9056439 0.5199995,1.2439988 1.52269,2.8146018 3.4336881,2.8146018 z M 14.540417,-0.55945312 c 0.180149,-5.6445e-4 0.368212,-0.004468 0.564462,-0.0119055 -0.5,-1.50499848 -1.18318,-2.93995978 -3.194178,-2.93995978 -0.882999,0 -1.43827,0.6067301 -1.23327,1.3607294 0.233437,0.8559366 1.160759,1.59960268 3.862986,1.59113588 z" /></g></g></svg>
