<?xml version="1.0" encoding="UTF-8" standalone="no"?>
<!-- Generator: Adobe Illustrator 26.0.3, SVG Export Plug-In . SVG Version: 6.00 Build 0)  -->

<svg
   version="1.0"
   id="katman_1"
   x="0px"
   y="0px"
   viewBox="0 0 450 300"
   xml:space="preserve"
   width="450"
   height="300"
   xmlns="http://www.w3.org/2000/svg"
   xmlns:svg="http://www.w3.org/2000/svg"><defs
   id="defs9"><style
     id="style1">.cls-1{fill:#003d8d;}.cls-2{fill:#fff;}.cls-3{fill:#f60;}</style></defs>
<style
   type="text/css"
   id="style2">
	.st0{fill:#010202;}
</style>

<g
   id="g19"
   transform="translate(-1537.6227,-168.86215)"><rect
     style="fill:#ffe700;fill-opacity:1;fill-rule:evenodd;stroke-width:0.999985"
     id="rect1-3-0-8-3-2-5-9-2"
     width="450.00003"
     height="300"
     x="1537.6227"
     y="168.86215"
     rx="20"
     ry="20" /><g
     transform="matrix(0.28023773,0,0,0.28090647,1684.7936,402.44242)"
     id="g2679"
     style="stroke-width:3.56415"><path
       style="color:#000000;fill:#003f8a;fill-opacity:1;stroke-width:3.56415;-inkscape-stroke:none"
       d="m -969.57069,519.78837 c -12.46986,0 -22.17771,8.03827 -25.6914,15.2168 -3.5137,7.17853 -3.20508,13.95117 -3.20508,13.95117 l 0.002,0.0527 1.55469,57.01563 c -112.58752,51.95128 -190.98632,165.91476 -190.98632,297.89063 0,180.9231 146.9132,327.8555 327.82031,327.8555 180.90718,0 327.82031,-146.9324 327.82031,-327.8555 0,-131.97713 -78.41438,-245.93937 -190.98633,-297.89063 l 1.55664,-57.01563 v -0.0527 c 0,0 0.30912,-6.77725 -3.20898,-13.95703 -3.5181,-7.17978 -13.22877,-15.21094 -25.70313,-15.21094 h -109.47851 z"
       id="path17"
       transform="translate(1137.8019,-1173.3173)" /><path
       id="path11872"
       style="fill:#ffffff;fill-opacity:1;fill-rule:nonzero;stroke:none;stroke-width:3.56415"
       d="m 168.22824,-641.12698 c -16.80782,0 -16.48991,16.53408 -16.48991,16.53408 l 1.77026,65.03778 c -112.313259,48.2834 -191.202056,160.16188 -191.202056,290.15301 0,174.220462 141.216956,315.454756 315.419976,315.454756 174.20309,0 315.41998,-141.234294 315.41998,-315.454756 0,-129.99113 -78.91317,-241.86961 -191.20903,-290.15301 l 1.77723,-65.03778 c 0,0 0.31444,-16.53408 -16.51082,-16.53408 H 277.72651 Z m 230.94231,124.61749 2.03511,1.02208 c 93.76551,47.34383 152.01936,141.02216 152.01936,244.47917 0,41.3584 -8.97371,81.17383 -26.68632,118.33899 l -0.0558,0.0834 -0.0488,0.0904 c -4.07153,6.1594 -9.36317,5.3585 -11.59032,4.05356 -0.0174,0 -184.17678,-110.38483 -184.17678,-110.38483 0,0 -0.72483,-0.43458 -0.72483,-0.41718 l 0.0488,-0.84825 0.0558,-0.88998 c 0.0349,-0.5568 0.0697,-1.05973 0.0697,-1.63394 0,-19.29594 -10.35223,-36.90425 -27.02086,-45.95196 l -0.68302,-0.38241 -0.0488,-0.78569 -3.28962,-63.20915 -0.0558,-0.9595 0.87119,-0.40327 c 97.83699,-44.69914 99.28094,-138.13309 99.28094,-139.07265 v -0.84826 z m -242.93687,0.007 v 2.27361 0.84131 c 0,0.93958 1.44411,94.38749 99.28094,139.08655 l 0.87119,0.38241 -0.0557,0.95951 -3.12932,63.34821 -0.0349,0.78568 -0.67604,0.36851 c -16.77306,9.25647 -27.19511,26.81271 -27.19511,45.84766 0,0.9744 0.0175,1.98068 0.0697,2.88547 l 0.0488,0.85521 -0.73181,0.41718 c 0,0 -184.103566,109.99892 -184.121013,110.01632 -2.227102,1.28757 -7.515405,2.10585 -11.569419,-4.05356 l -0.0697,-0.0904 -0.03485,-0.0834 C 11.173887,-189.84487 2.17921,-229.66029 2.17921,-271.00128 c 0,-103.45692 58.253954,-197.15278 152.01937,-244.47918 z m 285.95281,124.76351 c -21.08814,0 -39.05084,6.80125 -51.90905,19.67681 -13.41491,13.39755 -20.49042,32.46878 -20.49042,55.15765 0,22.25388 7.35417,41.88527 20.73435,55.24803 12.80599,12.82336 30.68138,19.58643 51.66512,19.58643 41.54983,0 64.274,-29.49096 65.00479,-57.73024 h -41.46869 c -2.22711,10.73544 -7.37728,24.2588 -24.77668,24.2588 -7.37741,0 -13.53454,-2.42192 -18.30198,-7.18934 -9.41309,-9.41312 -10.82368,-25.43917 -10.82368,-34.17368 0,-25.89034 10.89103,-41.35607 29.12566,-41.35607 18.51296,0 23.38795,15.09903 24.62335,21.41504 h 40.85538 c -4.34985,-35.72102 -26.53358,-54.68467 -64.23815,-54.89343 z m -375.413685,3.46256 v 34.50742 h 40.764775 v 108.23638 h 42.0402 V -353.769 h 40.76478 v -34.50742 z m 239.500895,169.65861 0.71786,0.34765 191.52963,96.89613 -0.15333,-0.0695 c 0.33061,0.12182 3.25253,1.27009 4.1399,3.60162 0.43501,1.11356 0.35109,2.30028 -0.25787,3.44866 l -0.0349,0.0695 -0.0558,0.0695 C 451.57915,-40.202298 367.68159,4.7925784 277.69166,6.1149757 187.73656,4.7925784 103.83213,-40.202238 53.251919,-114.25427 l -0.04879,-0.0695 -0.03485,-0.0695 c -0.591579,-1.14838 -0.682411,-2.3351 -0.264843,-3.44866 0.854563,-2.24533 3.489272,-3.34148 4.00051,-3.53209 l 192.198694,-96.66668 0.69696,-0.34765 0.6621,0.41718 c 8.38653,5.08063 17.79597,7.77338 27.24389,7.77338 9.91769,0 19.57163,-2.76557 27.906,-8.00283 z m -26.47027,48.24643 c -18.72175,0 -35.23462,5.77494 -45.30891,15.86661 -7.96893,7.95154 -12.0085,18.32261 -12.0085,30.85018 0,27.230134 23.31328,33.805868 45.84557,40.139304 l 2.47418,0.695294 c 24.89863,7.081546 32.39437,9.224837 32.39437,18.06373 0,3.740923 -1.21609,6.87055 -3.65203,9.289124 -4.81967,4.836992 -12.9993,5.360715 -16.28779,5.360715 -12.23183,0 -19.86366,-3.861814 -22.69976,-11.500158 -0.99177,-2.557684 -1.53346,-5.534915 -1.67269,-8.684218 h -42.0402 c 1.42672,47.152495 52.27191,49.588347 62.53759,49.588347 15.45071,0 65.87599,-3.511996 65.87599,-48.733136 0,-26.064338 -20.20091,-35.166062 -39.94934,-40.646872 -4.36723,-1.21799 -8.7353,-2.26221 -12.96333,-3.28874 -15.85094,-3.8105 -29.53095,-7.10021 -30.26169,-16.40893 0,-10.37001 13.4012,-11.18727 17.50745,-11.18727 5.48086,0 10.61242,1.44377 14.0227,3.9145 4.19328,2.78394 6.24791,6.70153 6.05652,11.38196 h 39.37087 c -2.20973,-38.81813 -37.94407,-44.70044 -59.241,-44.70044 z" /><path
       id="path11880"
       style="fill:#e2001a;fill-opacity:1;fill-rule:nonzero;stroke:none;stroke-width:3.56415"
       d="m 173.17645,-617.74035 3.12932,106.24088 c 0,0 0.0722,90.62991 101.40665,124.08907 101.31705,-33.45916 101.39967,-124.08907 101.39967,-124.08907 l 3.13629,-106.24088 H 277.71242 Z m 84.02464,35.15405 h 40.61145 v 49.37976 h 49.76243 v 40.59125 h -49.76243 v 49.3589 h -40.61145 v -49.3589 h -49.76244 v -40.59125 h 49.76244 z" /></g></g></svg>
